{
.appVersion = "3151";
.formatVersion = 3;
DisplayStrings = (
".",
".,",
"Yesterday, the sun bathed the city streets in a warm, golden glow as people strolled leisurely through parks, sipped coffee at sidewalk cafes, and enjoyed the sights and sounds of urban life. In the evening, the sky transformed into a mesmerizing palette of colors deep purples, fiery oranges, and vibrant pinks.

Please note that the comma and period symbols should be used according to the rules of grammar and punctuation to ensure clarity and coherence in the sentence structure.",
HNZz
);
customParameters = (
{
name = glyphOrder;
value = (
A,
B,
C,
D,
E,
F,
G,
H,
I,
J,
K,
L,
M,
N,
O,
P,
Q,
R,
S,
T,
U,
V,
W,
X,
Y,
Z,
a,
b,
c,
d,
e,
f,
g,
h,
i,
j,
k,
l,
m,
n,
o,
p,
q,
r,
s,
t,
u,
v,
w,
x,
y,
z,
n.001,
n.002,
o.001,
"ha-ethiopic",
"ma-ethiopic",
"aPharyngeal-ethiopic",
"za-ethiopic",
"za-ethiopic.001",
"za-ethiopic.002",
"za-ethiopic.003",
space,
"za-ethiopic.alt",
a.alt,
a.alt1,
a.alt2,
a.alt3,
a.alt4,
a.alt5,
H.alt,
a.alt6,
H.alt1,
A.alt
);
},
{
name = backdropGlyphLib;
value = {
AE = (
(
A,
1,
0
),
(
E,
1,
0
),
(
OE,
1,
0
)
);
B = (
(
D,
1,
0
),
(
E,
1,
0
),
(
H,
0,
0
),
(
P,
1,
0
),
(
R,
0,
0
),
(
Germandbls,
0,
0
),
(
germandbls,
0,
0
),
(
three,
0,
0
),
(
eight,
0,
0
)
);
C = (
(
D,
0,
0
),
(
G,
1,
0
),
(
O,
1,
0
),
(
Q,
0,
0
)
);
D = (
(
B,
0,
0
),
(
C,
0,
0
),
(
E,
0,
0
),
(
G,
0,
0
),
(
O,
1,
0
),
(
Q,
0,
0
)
);
E = (
(
B,
1,
0
),
(
D,
0,
0
),
(
F,
1,
0
),
(
H,
0,
0
)
);
Eng = (
(
N,
1,
0
),
(
j,
1,
0
)
);
F = (
(
E,
1,
0
),
(
H,
0,
0
)
);
G = (
(
A,
0,
0
),
(
C,
0,
0
),
(
D,
0,
0
),
(
H,
0,
0
),
(
O,
1,
0
),
(
Q,
0,
0
),
(
x,
0,
0
)
);
Germandbls = (
(
B,
1,
0
),
(
S,
1,
0
),
(
T,
0,
0
),
(
germandbls,
0,
0
)
);
H = (
(
B,
0,
0
),
(
D,
0,
0
),
(
E,
0,
0
),
(
F,
0,
0
),
(
I,
0,
0
),
(
J,
0,
0
),
(
K,
0,
0
),
(
L,
0,
0
),
(
M,
0,
0
),
(
N,
1,
0
),
(
P,
0,
0
),
(
R,
0,
0
),
(
U,
1,
0
)
);
I = (
(
B,
0,
0
),
(
D,
0,
0
),
(
E,
0,
0
),
(
F,
0,
0
),
(
H,
0,
0
),
(
J,
0,
0
),
(
K,
0,
0
),
(

glyphs = (
{
glyphname = A;
lastChange = "2023-05-31 19:14:34 +0000";
layers = (
{
associatedMasterId = "CDFC0212-EC7A-4000-86F8-EA19B9E6D7F9";
background = {
shapes = (
{
closed = 1;
nodes = (
(429.352,391.082,o),
(464.851,473.816,o),
(424.461,541.132,c),
(424.461,547.75,l),
(504.976,638.191,o),
(618.432,615.029,o),
(618.432,491.5,cs),
(618.432,357.86,o),
(506.094,108.642,o),
(594.01,108.642,cs),
(606.474,108.642,o),
(621.083,119.552,o),
(634.976,138.971,c),
(651.52,108.088,l),
(631.165,45.827,o),
(578.609,0.286,o),
(512.956,0.284,cs),
(391.404,0.279,o),
(386.44,137.185,o),
(401.43,225.876,cs)
);
},
{
closed = 1;
nodes = (
(432.402,385.112,l),
(408.521,442.347,o),
(380.886,474.827,o),
(354.358,474.802,cs),
(298.122,474.747,o),
(246.856,373.563,o),
(246.855,287.918,cs),
(246.853,190.699,o),
(271.504,142.543,o),
(303.891,142.523,cs),
(344.689,142.498,o),
(397.763,218.856,o),
(429.301,369.746,c),
(444.314,280.141,l),
(404.72,100.82,o),
(304.119,0.488,o),
(216.575,0.475,cs),
(-18.098,0.44,o),
(33.845,594.869,o),
(298.982,594.779,cs),
(370.562,594.754,o),
(437.524,527.247,o),
(464.167,394.721,c)
);
}
);
};
layerId = "17877AB9-B28B-46BA-9D47-63DAA1FDE8D3";
name = "May 29, 23, 13:44";
shapes = (
{
closed = 1;
nodes = (
(101.745,223.068,l),
(247.977,199.068,o),
(361.588,200.068,o),
(485.323,243.068,c),
(485.323,161.068,l),
(361.588,118.068,o),
(247.977,97.068,o),
(101.745,141.068,c)
);
},
{
closed = 1;
nodes = (
(155.56,478,l),
(222.659,617.685,o),
(457.744,645.582,o),
(499.886,502.494,cs),
(535.572,381.327,o),
(489.594,102.997,o),
(579.258,102.997,cs),
(591.97,102.997,o),
(603.956,112.888,o),
(612.939,130.494,c),
(638.059,102.494,l),
(633.925,46.044,o),
(579.087,0.754,o),
(512.131,0.751,cs),
(388.164,0.747,o),
(370.667,128.876,o),
(362.272,209.288,cs),
(351.413,313.303,o),
(367.824,402.352,o),
(341.317,470.391,c),
(355.882,472.601,l),
(326.612,349.058,o),
(204.489,178.842,o),
(225.652,59,c),
(224.26,52.956,l),
(206.748,14.426,o),
(145.496,0.468,o),
(96.379,0.468,cs),
(49.115,0.468,o),
(13.136,32.077,o),
(38.227,121.472,cs),
(66.861,223.486,o),
(240.433,414.199,o),
(260.003,483.775,cs),
(276.829,543.596,o),
(205.145,516,o),
(165.793,464,c)
);
}
);
width = 654.06;
},
{
associatedMasterId = "CDFC0212-EC7A-4000-86F8-EA19B9E6D7F9";
background = {
shapes = (
{
closed = 1;
nodes = (
(429.352,391.082,o),
(464.851,473.816,o),
(424.461,541.132,c),
(424.461,547.75,l),
(504.976,638.191,o),
(618.432,615.029,o),
(618.432,491.5,cs),
(618.432,357.86,o),
(506.094,108.642,o),
(594.01,108.642,cs),
(606.474,108.642,o),
(621.083,119.552,o),
(634.976,138.971,c),
(651.52,108.088,l),
(631.165,45.827,o),
(578.609,0.286,o),
(512.956,0.284,cs),
(391.404,0.279,o),
(386.44,137.185,o),
(401.43,225.876,cs)
);
},
{
closed = 1;
nodes = (
(432.402,385.112,l),
(408.521,442.347,o),
(380.886,474.827,o),
(354.358,474.802,cs),
(298.122,474.747,o),
(246.856,373.563,o),
(246.855,287.918,cs),
(246.853,190.699,o),
(271.504,142.543,o),
(303.891,142.523,cs),
(344.689,142.498,o),
(397.763,218.856,o),
(429.301,369.746,c),
(444.314,280.141,l),
(404.72,100.82,o),
(304.119,0.488,o),
(216.575,0.475,cs),
(-18.098,0.44,o),
(33.845,594.869,o),
(298.982,594.779,cs),
(370.562,594.754,o),
(437.524,527.247,o),
(464.167,394.721,c)
);
}
);
};
layerId = "64867249-0282-4DAF-BCD5-F4E451F7276D";
name = "May 29, 23, 13:48";
shapes = (
{
closed = 1;
nodes = (
(120.099,269.176,l),
(296.62,240.205,o),
(433.764,241.412,o),
(583.128,293.318,c),
(583.128,194.334,l),
(433.764,142.427,o),
(296.62,117.077,o),
(120.099,170.191,c)
);
},
{
closed = 1;
nodes = (
(185.061,576.913,l),
(266.058,745.531,o),
(549.837,779.206,o),
(600.708,606.48,cs),
(643.786,460.215,o),
(588.284,124.234,o),
(696.52,124.234,cs),
(711.865,124.234,o),
(726.334,136.174,o),
(737.178,157.427,c),
(767.501,123.627,l),
(762.511,55.484,o),
(696.314,0.813,o),
(615.489,0.81,cs),
(465.845,0.805,o),
(444.723,155.473,o),
(434.589,252.541,cs),
(421.481,378.101,o),
(441.291,485.595,o),
(409.294,567.727,c),
(426.876,570.395,l),
(391.543,421.262,o),
(211.67,313.793,o),
(269.671,71.124,c),
(267.991,63.828,l),
(248.378,20.675,o),
(45.563,-55.889,o),
(45.563,63.828,cs),
(45.563,263.171,o),
(287.514,499.896,o),
(311.137,583.884,cs),
(331.448,656.096,o),
(244.916,622.784,o),
(197.413,560.013,c)
);
}
);
width = 797.5;
},
{
associatedMasterId = "CDFC0212-EC7A-4000-86F8-EA19B9E6D7F9";
background = {
shapes = (
{
closed = 1;
nodes = (
(429.352,391.082,o),
(464.851,473.816,o),
(424.461,541.132,c),
(424.461,547.75,l),
(504.976,638.191,o),
(618.432,615.029,o),
(618.432,491.5,cs),
(618.432,357.86,o),
(506.094,108.642,o),
(594.01,108.642,cs),
(606.474,108.642,o),
(621.083,119.552,o),
(634.976,138.971,c),
(651.52,108.088,l),
(631.165,45.827,o),
(578.609,0.286,o),
(512.956,0.284,cs),
(391.404,0.279,o),
(386.44,137.185,o),
(401.43,225.876,cs)
);
},
{
closed = 1;
nodes = (
(432.402,385.112,l),
(408.521,442.347,o),
(380.886,474.827,o),
(354.358,474.802,cs),
(298.122,474.747,o),
(246.856,373.563,o),
(246.855,287.918,cs),
(246.853,190.699,o),
(271.504,142.543,o),
(303.891,142.523,cs),
(344.689,142.498,o),
(397.763,218.856,o),
(429.301,369.746,c),
(444.314,280.141,l),
(404.72,100.82,o),
(304.119,0.488,o),
(216.575,0.475,cs),
(-18.098,0.44,o),
(33.845,594.869,o),
(298.982,594.779,cs),
(370.562,594.754,o),
(437.524,527.247,o),
(464.167,394.721,c)
);
}
);
};
layerId = "6C5F81BE-45D7-437A-A815-763B0FD4A989";
name = "May 29, 23, 13:55";
width = 797.5;
},
{
layerId = "CDFC0212-EC7A-4000-86F8-EA19B9E6D7F9";
name = Regular;
shapes = (
{
closed = 1;
nodes = (
(181.37,547.523,l),
(193.29,619.682,o),
(242.29,637.263,o),
(242.29,591,cs),
(242.29,448.43,o),
(10.004,251.32,o),
(10.004,67,cs),
(10.004,-34.687,o),
(188.29,1.459,o),
(188.29,57.687,cs),
(188.29,236.607,o),
(348.29,417.08,o),
(348.29,588,c),
(332.29,584,l),
(414.273,355.013,o),
(277.069,1,o),
(520.29,1,cs),
(594.29,1,o),
(646.214,67,o),
(646.214,147.446,c),
(639.217,151.554,l),
(633.636,139.835,o),
(615,123,o),
(594.29,123,cs),
(496.29,123,o),
(547.29,468,o),
(507.29,612,cs),
(486.29,690,o),
(421.29,725,o),
(349.29,725,cs),
(269.54,725,o),
(170.229,670.922,o),
(170.229,550.045,c)
);
},
{
closed = 1;
nodes = (
(146.29,171,o),
(196.29,178,o),
(264.29,178,cs),
(315.29,178,o),
(375.29,174,o),
(451.29,165,c),
(460.29,188,o),
(467.29,218,o),
(467.29,244,cs),
(467.29,255,o),
(465.29,265,o),
(462.29,275,c),
(422.29,278,o),
(385.29,281,o),
(352.29,281,cs),
(237.29,281,o),
(161.29,255,o),
(95.29,169,c),
(97.29,159,l)
);
}
);
width = 656.21;
},
{
associatedMasterId = "CDFC0212-EC7A-4000-86F8-EA19B9E6D7F9";
background = {
shapes = (
{
closed = 1;
nodes = (
(429.352,391.082,o),
(464.851,473.816,o),
(424.461,541.132,c),
(424.461,547.75,l),
(504.976,638.191,o),
(618.432,615.029,o),
(618.432,491.5,cs),
(618.432,357.86,o),
(506.094,108.642,o),
(594.01,108.642,cs),
(606.474,108.642,o),
(621.083,119.552,o),
(634.976,138.971,c),
(651.52,108.088,l),
(631.165,45.827,o),
(578.609,0.286,o),
(512.956,0.284,cs),
(391.404,0.279,o),
(386.44,137.185,o),
(401.43,225.876,cs)
);
},
{
closed = 1;
nodes = (
(432.402,385.112,l),
(408.521,442.347,o),
(380.886,474.827,o),
(354.358,474.802,cs),
(298.122,474.747,o),
(246.856,373.563,o),
(246.855,287.918,cs),
(246.853,190.699,o),
(271.504,142.543,o),
(303.891,142.523,cs),
(344.689,142.498,o),
(397.763,218.856,o),
(429.301,369.746,c),
(444.314,280.141,l),
(404.72,100.82,o),
(304.119,0.488,o),
(216.575,0.475,cs),
(-18.098,0.44,o),
(33.845,594.869,o),
(298.982,594.779,cs),
(370.562,594.754,o),
(437.524,527.247,o),
(464.167,394.721,c)
);
}
);
};
layerId = "0B432945-C56A-4376-8BFA-35F7A6BB2AF0";
name = "May 29, 23, 14:00";
shapes = (
{
closed = 1;
nodes = (
(214.008,6.333,o),
(215,70,c),
(190.23,206.236,o),
(328.56,444.539,o),
(358,578,c),
(342,574,l),
(371,493,o),
(353,373,o),
(365,249,cs),
(374,153,o),
(394,1,o),
(530,1,cs),
(604,1,o),
(655.924,67,o),
(655.924,147.446,c),
(648.927,151.554,l),
(643.346,139.835,o),
(624.71,123,o),
(604,123,cs),
(506,123,o),
(557,468,o),
(517,612,cs),
(496,690,o),
(431,725,o),
(359,725,cs),
(273,725,o),
(177,674,o),
(141.208,579.042,c),
(146.792,575.958,l),
(199.499,657.609,o),
(252,655.414,o),
(252,591,cs),
(252,448.43,o),
(-1,244.32,o),
(-1,82,cs),
(-1,-54.662,o)
);
},
{
closed = 1;
nodes = (
(156,171,o),
(206,178,o),
(274,178,cs),
(325,178,o),
(385,174,o),
(461,165,c),
(470,188,o),
(477,218,o),
(477,244,cs),
(477,255,o),
(475,265,o),
(472,275,c),
(432,278,o),
(395,281,o),
(362,281,cs),
(247,281,o),
(171,255,o),
(105,169,c),
(107,159,l)
);
}
);
width = 654;
},
{
associatedMasterId = "CDFC0212-EC7A-4000-86F8-EA19B9E6D7F9";
layerId = "D09D3544-12B8-4094-AFA1-DC7397ED62D6";
name = "May 31, 23, 15:10";
shapes = (
{
closed = 1;
nodes = (
(655.542,67.572,o),
(569.616,-0.626,o),
(493.936,-0.626,cs),
(434.382,-0.626,o),
(381.172,41.605,o),
(381.172,140.204,cs),
(381.172,272.88,o),
(451.241,479.013,o),
(460.28,669.931,c),
(460.28,728.083,o),
(647.664,764.288,o),
(680.338,657.292,c),
(682.899,648.677,l),
(641.831,536.872,o),
(584.94,346.626,o),
(584.94,210.493,cs),
(584.94,133.356,o),
(620.577,131.388,o),
(646.282,180.943,c),
(655.542,174.961,l)
);
},
{
closed = 1;
nodes = (
(438.347,369.692,l),
(427.617,526.085,o),
(391.221,587.061,o),
(351.644,587.061,cs),
(234.867,587.061,o),
(185.179,152.711,o),
(269.164,152.711,cs),
(322.596,152.711,o),
(413.238,330.054,o),
(445.548,541.353,c),
(458.458,495.121,l),
(423.875,143.976,o),
(299.746,-0.338,o),
(193.484,-0.338,cs),
(-77.101,-0.338,o),
(6.941,725.213,o),
(308.092,725.213,cs),
(404.553,725.213,o),
(483.324,626.404,o),
(459.268,397.656,c)
);
}
);
width = 692.9;
},
{
associatedMasterId = "CDFC0212-EC7A-4000-86F8-EA19B9E6D7F9";
layerId = "DE1B4749-7773-433B-9287-6E198DA16196";
name = "May 31, 23, 15:12";
shapes = (
{
closed = 1;
nodes = (
(646.282,180.943,l),
(610.577,131.388,o),
(574.94,133.356,o),
(574.94,210.493,cs),
(574.94,346.626,o),
(631.831,536.872,o),
(672.899,648.677,c),
(670.338,657.292,ls),
(637.664,764.288,o),
(460.28,728.083,o),
(460.28,669.931,cs),
(458.92,641.198,o),
(456.177,612.119,o),
(452.499,583,c),
(429.326,680.922,o),
(372.674,725.213,o),
(308.092,725.213,cs),
(6.941,725.213,o),
(-77.101,-0.338,o),
(193.484,-0.338,cs),
(265.011,-0.338,o),
(344.634,65.05,o),
(399.592,214.891,c),
(385.458,204.555,l),
(382.748,181.652,o),
(381.172,160.102,o),
(381.172,140.204,cs),
(381.172,41.605,o),
(434.382,-0.626,o),
(493.936,-0.626,cs),
(569.616,-0.626,o),
(655.542,67.572,o),
(655.542,174.961,c)
);
},
{
closed = 1;
nodes = (
(185.179,152.711,o),
(234.867,587.061,o),
(351.644,587.061,cs),
(388.839,587.061,o),
(423.224,533.205,o),
(436.135,396.904,c),
(438.194,498.85,l),
(401.107,306.801,o),
(318.97,152.711,o),
(269.164,152.711,cs)
);
}
);
width = 692.9;
}
);
unicode = 65;
},
{
glyphname = C;
lastChange = "2023-05-29 18:18:13 +0000";
layers = (
{
layerId = "CDFC0212-EC7A-4000-86F8-EA19B9E6D7F9";
shapes = (
{
closed = 1;
nodes = (
(658.157,444.037,o),
(635.102,725.578,o),
(392.287,725.578,cs),
(157.098,725.578,o),
(25,501.254,o),
(25,300.944,cs),
(25,-110.442,o),
(522.868,-91.186,o),
(562.868,272,c),
(549.766,277.96,l),
(483.41,180.562,o),
(411.57,133.259,o),
(351.885,133.259,cs),
(275.782,133.259,o),
(219.444,210.168,o),
(219.444,358.2,cs),
(219.444,475.235,o),
(281,601.067,o),
(358.932,601.067,cs),
(406.423,601.067,o),
(438.595,568.495,o),
(399.167,444.037,c)
);
}
);
width = 609.07;
},
{
associatedMasterId = "CDFC0212-EC7A-4000-86F8-EA19B9E6D7F9";
layerId = "F7C9CAA9-9311-4D4C-9208-5B20728C26C0";
name = "May 29, 23, 14:09";
shapes = (
{
closed = 1;
nodes = (
(356,-4,o),
(521,75,o),
(521,272,c),
(509,278,l),
(483,204,o),
(417,163,o),
(354,163,cs),
(280,163,o),
(212,219,o),
(212,348,cs),
(212,523,o),
(280,608,o),
(330,608,cs),
(366,608,o),
(378,575,o),
(378,536,cs),
(378,509,o),
(373,480,o),
(367,451,c),
(477,451,o),
(535,522,o),
(535,592,cs),
(535,659,o),
(479,724,o),
(366,724,cs),
(136,724,o),
(6,500,o),
(6,297,cs),
(6,139,o),
(87,-5,o),
(265,-4,cs)
);
}
);
width = 600;
}
);
unicode = 67;
},
{
glyphname = D;
lastChange = "2023-04-18 18:30:17 +0000";
layers = (
{
background = {
shapes = (
{
closed = 1;
nodes = (
(578.499,111.89,o),
(541.321,583.989,o),
(69,497,c),
(51.909,576.885,l),
(1005.68,700,o),
(570,-86.04,o),
(145.436,0.284,c),
(-18.535,42.925,o),
(149.506,326.858,o),
(86.941,431.132,c),
(86.941,437.75,l),
(167.456,528.191,o),
(280.912,505.029,o),
(280.912,381.5,cs),
(280.912,285.262,o),
(192.655,186.132,o),
(192.878,138.182,cs),
(192.896,134.304,o),
(193.297,130.761,o),
(194.142,127.581,c)
);
}
);
};
layerId = "CDFC0212-EC7A-4000-86F8-EA19B9E6D7F9";
shapes = (
{
closed = 1;
nodes = (
(578.499,111.89,o),
(541.321,583.989,o),
(69,497,c),
(51.909,576.885,l),
(1005.68,700,o),
(570,-86.04,o),
(145.436,0.284,c),
(-18.535,42.925,o),
(149.506,326.858,o),
(86.941,431.132,c),
(86.941,437.75,l),
(167.456,528.191,o),
(280.912,505.029,o),
(280.912,381.5,cs),
(280.912,285.262,o),
(192.655,186.132,o),
(192.878,138.182,cs),
(192.896,134.304,o),
(193.297,130.761,o),
(194.142,127.581,c)
);
}
);
width = 600;
}
);
unicode = 68;
},
{
glyphname = E;
lastChange = "2023-05-30 20:15:28 +0000";
layers = (
{
layerId = "CDFC0212-EC7A-4000-86F8-EA19B9E6D7F9";
name = Regular;
shapes = (
{
closed = 1;
nodes = (
(442.112,86.945,o),
(488.114,607.942,o),
(223.44,383.238,c),
(306.334,357.999,l),
(98.867,581.731,o),
(440.417,749.732,o),
(365.342,483.438,c),
(544.308,483.438,o),
(589.118,725.544,o),
(373.348,725.544,cs),
(50.697,725.544,o),
(-35.841,459.467,o),
(182.063,358.478,c),
(185.653,383.238,l),
(75.741,353.309,o),
(13.134,259.974,o),
(10.124,173.495,cs),
(5.949,53.519,o),
(104.771,-6.519,o),
(216.637,-6.519,cs),
(355.749,-6.519,o),
(504.098,87.328,o),
(510.567,273.219,c),
(502.388,278,l),
(297.021,-16.955,o),
(108.663,216.445,o),
(259.993,313.805,c),
(187.615,357.6,l)
);
}
);
width = 533.03;
}
);
unicode = 69;
},
{
glyphname = G;
lastChange = "2023-05-30 16:33:59 +0000";
layers = (
{
associatedMasterId = "CDFC0212-EC7A-4000-86F8-EA19B9E6D7F9";
layerId = "93CE5017-4F8E-4DC4-8573-340595B63F69";
name = "May 30, 23, 12:32";
shapes = (
{
closed = 1;
nodes = (
(770.484,273.423,o),
(341.885,533.046,o),
(395.528,131.801,c),
(382.116,75.211,o),
(450.022,-151.313,o),
(399.064,-161.672,c),
(400.215,-170.161,l),
(472.339,-182.504,o),
(569.892,-124.539,o),
(576.586,-68.609,cs),
(585,1.699,o),
(511.386,61.691,o),
(522.868,109.303,c)
);
},
{
closed = 1;
nodes = (
(448.646,169.315,l),
(414.818,145.16,o),
(381.822,133.259,o),
(351.885,133.259,cs),
(275.782,133.259,o),
(219.444,210.168,o),
(219.444,358.2,cs),
(219.444,475.235,o),
(281,601.067,o),
(358.932,601.067,cs),
(406.423,601.067,o),
(438.595,568.495,o),
(399.167,444.037,c),
(658.157,444.037,o),
(635.102,725.578,o),
(392.287,725.578,cs),
(157.098,725.578,o),
(25,501.254,o),
(25,300.944,cs),
(25,-13.358,o),
(315.61,-76.291,o),
(470.611,73.475,c)
);
}
);
width = 606.71;
},
{
associatedMasterId = "CDFC0212-EC7A-4000-86F8-EA19B9E6D7F9";
layerId = "283CF548-4BE6-4F70-A392-A13686B29521";
name = "May 30, 23, 12:32";
shapes = (
{
closed = 1;
nodes = (
(770.484,273.423,o),
(341.885,533.046,o),
(395.528,131.801,c),
(382.116,75.211,o),
(450.022,-151.313,o),
(399.064,-161.672,c),
(400.215,-170.161,l),
(472.339,-182.504,o),
(569.892,-124.539,o),
(576.586,-68.609,cs),
(585,1.699,o),
(511.386,61.691,o),
(522.868,109.303,c)
);
},
{
closed = 1;
nodes = (
(448.646,169.315,l),
(414.818,145.16,o),
(381.822,133.259,o),
(351.885,133.259,cs),
(275.782,133.259,o),
(219.444,210.168,o),
(219.444,358.2,cs),
(219.444,475.235,o),
(281,601.067,o),
(358.932,601.067,cs),
(406.423,601.067,o),
(438.595,568.495,o),
(399.167,444.037,c),
(658.157,444.037,o),
(635.102,725.578,o),
(392.287,725.578,cs),
(157.098,725.578,o),
(25,501.254,o),
(25,300.944,cs),
(25,-13.358,o),
(315.61,-76.291,o),
(470.611,73.475,c)
);
}
);
width = 606.71;
},
{
layerId = "CDFC0212-EC7A-4000-86F8-EA19B9E6D7F9";
name = Regular;
shapes = (
{
closed = 1;
nodes = (
(729.489,245.172,o),
(397.528,544.046,o),
(397.528,142.801,c),
(383.102,81.93,o),
(383.778,-35.133,o),
(400.215,-150.161,c),
(472.339,-162.504,o),
(552.364,-123.113,o),
(566.586,-68.609,c),
(522.868,37.237,o),
(511.262,71.763,o),
(522.745,119.375,c)
);
},
{
closed = 1;
nodes = (
(448.646,169.315,l),
(414.818,145.16,o),
(381.822,133.259,o),
(351.885,133.259,cs),
(275.782,133.259,o),
(219.444,210.168,o),
(219.444,358.2,cs),
(219.444,475.235,o),
(281,601.067,o),
(358.932,601.067,cs),
(406.423,601.067,o),
(438.595,568.495,o),
(399.167,444.037,c),
(658.157,444.037,o),
(635.102,725.578,o),
(392.287,725.578,cs),
(157.098,725.578,o),
(25,501.254,o),
(25,300.944,cs),
(25,-13.358,o),
(315.61,-76.291,o),
(470.611,73.475,c)
);
}
);
width = 606.71;
}
);
unicode = 71;
},
{
glyphname = H;
lastChange = "2023-06-01 20:28:25 +0000";
layers = (
{
background = {
shapes = (
{
closed = 1;
nodes = (
(160.2,365,l),
(290.2,341,o),
(391.2,342,o),
(501.2,385,c),
(501.2,303,l),
(391.2,260,o),
(290.2,259,o),
(160.2,283,c)
);
},
{
closed = 1;
nodes = (
(30.2,455,l),
(44.973,529.734,o),
(130.941,595.149,o),
(202.581,595.157,cs),
(257.239,595.163,o),
(303.557,557.098,o),
(303.557,456.054,cs),
(303.557,333.844,o),
(230.683,194.519,o),
(283.2,79,c),
(283.505,72.956,l),
(276.878,34.426,o),
(225.544,0.468,o),
(176.775,0.468,cs),
(129.846,0.468,o),
(85.293,32.077,o),
(85.241,121.472,cs),
(85.181,223.486,o),
(139.103,374.738,o),
(139.103,444.314,cs),
(139.103,504.135,o),
(78.751,493,o),
(54.2,441,c)
);
},
{
closed = 1;
nodes = (
(426.635,354.581,o),
(458.82,478.966,o),
(422.2,540,c),
(422.2,546,l),
(495.2,628,o),
(616.2,607,o),
(616.2,495,cs),
(616.2,373.833,o),
(514.347,98.503,o),
(594.058,98.503,cs),
(605.359,98.503,o),
(618.604,108.394,o),
(631.2,126,c),
(646.2,98,l),
(627.745,41.55,o),
(561.96,0.26,o),
(502.436,0.257,cs),
(392.228,0.253,o),
(387.728,124.382,o),
(401.319,204.794,cs)
);
}
);
};
layerId = "CDFC0212-EC7A-4000-86F8-EA19B9E6D7F9";
shapes = (
{
closed = 1;
nodes = (
(43.464,-63.11,o),
(254.854,-16.531,o),
(259.555,118.11,cs),
(261.305,168.237,o),
(245.047,186.655,o),
(247.349,252.598,cs),
(250.427,340.747,o),
(306.112,455.056,o),
(310.208,572.365,cs),
(318.292,803.951,o),
(47.393,742.396,o),
(40.003,530.691,c),
(49.094,529.352,l),
(69.329,586.231,o),
(138.154,598.916,o),
(135.804,531.605,cs),
(132.889,448.097,o),
(54.544,254.251,o),
(50.309,132.966,cs)
);
},
{
closed = 1;
nodes = (
(393.074,-75.865,o),
(666.687,-17,o),
(672.301,143.813,c),
(665.541,147.205,l),
(655.273,127.274,o),
(639.059,117.371,o),
(620.551,118.112,cs),
(595.732,119.106,o),
(586.72,145.896,o),
(587.97,181.685,cs),
(591.648,287.064,o),
(679.983,510.746,o),
(683.488,611.154,cs),
(687.959,739.24,o),
(565.653,754.181,o),
(480.499,662.849,c),
(480.222,654.896,l),
(490.394,633.025,o),
(494.323,603.201,o),
(493.039,566.417,cs),
(490.332,488.874,o),
(443.385,368.583,o),
(414.297,247.298,cs),
(407.326,218.468,o),
(402.204,185.661,o),
(401.093,153.849,cs)
);
},
{
closed = 1;
nodes = (
(227.627,311,o),
(277.872,318,o),
(345.872,318,cs),
(396.872,318,o),
(456.732,314,o),
(532.418,305,c),
(542.221,328,o),
(550.268,358,o),
(551.176,384,cs),
(551.56,395,o),
(549.909,405,o),
(547.258,415,c),
(507.363,418,o),
(470.467,421,o),
(437.467,421,cs),
(322.467,421,o),
(245.56,395,o),
(176.557,309,c),
(178.208,299,l)
);
}
);
width = 708.61;
},
{
associatedMasterId = "CDFC0212-EC7A-4000-86F8-EA19B9E6D7F9";
background = {
shapes = (
{
closed = 1;
nodes = (
(151.78,365,l),
(281.78,341,o),
(382.78,342,o),
(492.78,385,c),
(492.78,303,l),
(382.78,260,o),
(281.78,259,o),
(151.78,283,c)
);
},
{
closed = 1;
nodes = (
(21.78,455,l),
(36.553,529.734,o),
(122.521,595.149,o),
(194.161,595.157,cs),
(248.819,595.163,o),
(295.137,557.098,o),
(295.137,456.054,cs),
(295.137,333.844,o),
(222.263,194.519,o),
(274.78,79,c),
(275.085,72.956,l),
(268.458,34.426,o),
(217.124,0.468,o),
(168.355,0.468,cs),
(121.426,0.468,o),
(76.873,32.077,o),
(76.821,121.472,cs),
(76.761,223.486,o),
(130.683,374.738,o),
(130.683,444.314,cs),
(130.683,504.135,o),
(70.331,493,o),
(45.78,441,c)
);
},
{
closed = 1;
nodes = (
(418.215,354.581,o),
(450.4,478.966,o),
(413.78,540,c),
(413.78,546,l),
(486.78,628,o),
(607.78,607,o),
(607.78,495,cs),
(607.78,373.833,o),
(505.927,98.503,o),
(585.638,98.503,cs),
(596.939,98.503,o),
(610.184,108.394,o),
(622.78,126,c),
(637.78,98,l),
(619.325,41.55,o),
(553.54,0.26,o),
(494.016,0.257,cs),
(383.808,0.253,o),
(379.308,124.382,o),
(392.899,204.794,cs)
);
}
);
};
layerId = "F49DBC0D-DF66-470F-82E3-436FCA0EC8BD";
name = "May 26, 23, 14:44";
shapes = (
{
closed = 1;
nodes = (
(182.377,345.905,l),
(314.558,321.905,o),
(397.596,322.905,o),
(510.546,365.905,c),
(509.115,283.905,l),
(396.165,240.905,o),
(313.127,239.905,o),
(180.946,263.905,c)
);
},
{
closed = 1;
nodes = (
(37.662,450.481,l),
(37.662,529.734,o),
(140.194,595.149,o),
(213.267,595.157,cs),
(269.019,595.163,o),
(314.243,557.098,o),
(308.881,456.054,cs),
(302.396,333.844,o),
(220.672,194.519,o),
(268.109,79,c),
(268.1,72.956,l),
(259.296,34.426,o),
(205.133,0.468,o),
(155.389,0.468,cs),
(107.521,0.468,o),
(63.754,32.077,o),
(68.445,121.472,cs),
(73.797,223.486,o),
(136.823,374.738,o),
(140.515,444.314,cs),
(143.69,504.135,o),
(71.54,503,o),
(46.077,445.519,c)
);
},
{
closed = 1;
nodes = (
(429.036,354.581,o),
(458.865,478.966,o),
(424.752,540,c),
(425.07,546,l),
(503.881,628,o),
(626.187,607,o),
(620.244,495,cs),
(613.814,373.833,o),
(504.914,98.503,o),
(586.219,98.503,cs),
(597.747,98.503,o),
(611.781,108.394,o),
(625.563,126,c),
(639.378,98,l),
(617.558,41.55,o),
(548.266,0.26,o),
(487.552,0.257,cs),
(375.139,0.253,o),
(377.136,124.382,o),
(395.266,204.794,cs)
);
}
);
width = 653.45;
},
{
associatedMasterId = "CDFC0212-EC7A-4000-86F8-EA19B9E6D7F9";
background = {
shapes = (
{
closed = 1;
nodes = (
(151.78,365,l),
(281.78,341,o),
(382.78,342,o),
(492.78,385,c),
(492.78,303,l),
(382.78,260,o),
(281.78,259,o),
(151.78,283,c)
);
},
{
closed = 1;
nodes = (
(21.78,455,l),
(36.553,529.734,o),
(122.521,595.149,o),
(194.161,595.157,cs),
(248.819,595.163,o),
(295.137,557.098,o),
(295.137,456.054,cs),
(295.137,333.844,o),
(222.263,194.519,o),
(274.78,79,c),
(275.085,72.956,l),
(268.458,34.426,o),
(217.124,0.468,o),
(168.355,0.468,cs),
(121.426,0.468,o),
(76.873,32.077,o),
(76.821,121.472,cs),
(76.761,223.486,o),
(130.683,374.738,o),
(130.683,444.314,cs),
(130.683,504.135,o),
(70.331,493,o),
(45.78,441,c)
);
},
{
closed = 1;
nodes = (
(418.215,354.581,o),
(450.4,478.966,o),
(413.78,540,c),
(413.78,546,l),
(486.78,628,o),
(607.78,607,o),
(607.78,495,cs),
(607.78,373.833,o),
(505.927,98.503,o),
(585.638,98.503,cs),
(596.939,98.503,o),
(610.184,108.394,o),
(622.78,126,c),
(637.78,98,l),
(619.325,41.55,o),
(553.54,0.26,o),
(494.016,0.257,cs),
(383.808,0.253,o),
(379.308,124.382,o),
(392.899,204.794,cs)
);
}
);
};
layerId = "C9095F56-7CB8-4548-82FD-688045312EB8";
name = "May 26, 23, 14:48";
shapes = (
{
closed = 1;
nodes = (
(204,0,o),
(259,31,o),
(268,66,c),
(268,71,l),
(258,95,o),
(253,119,o),
(253,143,cs),
(253,236,o),
(309,345,o),
(309,434,cs),
(309,514,o),
(266,545,o),
(213,545,cs),
(140,545,o),
(38,477,o),
(38,414,c),
(56,401,l),
(69,427,o),
(93,440,o),
(114,440,cs),
(134,440,o),
(151,428,o),
(151,403,cs),
(151,339,o),
(68,191,o),
(68,98,cs),
(68,27,o),
(109,0,o),
(154,0,cs)
);
},
{
closed = 1;
nodes = (
(222,237,o),
(267,242,o),
(329,242,cs),
(375,242,o),
(429,239,o),
(498,232,c),
(506,249,o),
(513,272,o),
(513,292,cs),
(513,300,o),
(511,308,o),
(508,315,c),
(472,318,o),
(438,320,o),
(408,320,cs),
(304,320,o),
(235,300,o),
(175,235,c),
(177,228,l)
);
},
{
closed = 1;
nodes = (
(548,0,o),
(618,37,o),
(639,88,c),
(626,113,l),
(612,98,o),
(598,89,o),
(586,89,cs),
(564,89,o),
(556,107,o),
(556,135,cs),
(556,215,o),
(620,385,o),
(620,462,cs),
(620,517,o),
(580,545,o),
(531,545,cs),
(497,545,o),
(457,530,o),
(425,500,c),
(425,495,l),
(435,478,o),
(440,455,o),
(440,428,cs),
(440,368,o),
(418,277,o),
(395,184,cs),
(390,163,o),
(386,138,o),
(386,113,cs),
(386,56,o),
(408,0,o),
(488,0,cs)
);
}
);
width = 653.45;
},
{
associatedMasterId = "CDFC0212-EC7A-4000-86F8-EA19B9E6D7F9";
background = {
shapes = (
{
closed = 1;
nodes = (
(160.2,365,l),
(290.2,341,o),
(391.2,342,o),
(501.2,385,c),
(501.2,303,l),
(391.2,260,o),
(290.2,259,o),
(160.2,283,c)
);
},
{
closed = 1;
nodes = (
(30.2,455,l),
(44.973,529.734,o),
(130.941,595.149,o),
(202.581,595.157,cs),
(257.239,595.163,o),
(303.557,557.098,o),
(303.557,456.054,cs),
(303.557,333.844,o),
(230.683,194.519,o),
(283.2,79,c),
(283.505,72.956,l),
(276.878,34.426,o),
(225.544,0.468,o),
(176.775,0.468,cs),
(129.846,0.468,o),
(85.293,32.077,o),
(85.241,121.472,cs),
(85.181,223.486,o),
(139.103,374.738,o),
(139.103,444.314,cs),
(139.103,504.135,o),
(78.751,493,o),
(54.2,441,c)
);
},
{
closed = 1;
nodes = (
(426.635,354.581,o),
(458.82,478.966,o),
(422.2,540,c),
(422.2,546,l),
(495.2,628,o),
(616.2,607,o),
(616.2,495,cs),
(616.2,373.833,o),
(514.347,98.503,o),
(594.058,98.503,cs),
(605.359,98.503,o),
(618.604,108.394,o),
(631.2,126,c),
(646.2,98,l),
(627.745,41.55,o),
(561.96,0.26,o),
(502.436,0.257,cs),
(392.228,0.253,o),
(387.728,124.382,o),
(401.319,204.794,cs)
);
}
);
};
layerId = "0CDD1436-3927-402D-A8E4-DD158B3F8A31";
name = "Jun 1, 23, 16:27";
shapes = (
{
closed = 1;
nodes = (
(43.464,-63.11,o),
(254.854,-16.531,o),
(259.555,118.11,cs),
(261.305,168.237,o),
(245.047,186.655,o),
(247.349,252.598,cs),
(250.427,340.747,o),
(306.112,455.056,o),
(310.208,572.365,cs),
(318.292,803.951,o),
(47.393,742.396,o),
(40.003,530.691,c),
(49.094,529.352,l),
(69.329,586.231,o),
(138.154,598.916,o),
(135.804,531.605,cs),
(132.889,448.097,o),
(54.544,254.251,o),
(50.309,132.966,cs)
);
},
{
closed = 1;
nodes = (
(393.074,-75.865,o),
(666.687,-17,o),
(672.301,143.813,c),
(665.541,147.205,l),
(655.273,127.274,o),
(639.059,117.371,o),
(620.551,118.112,cs),
(595.732,119.106,o),
(586.72,145.896,o),
(587.97,181.685,cs),
(591.648,287.064,o),
(679.983,510.746,o),
(683.488,611.154,cs),
(687.959,739.24,o),
(565.653,754.181,o),
(480.499,662.849,c),
(480.222,654.896,l),
(490.394,633.025,o),
(494.323,603.201,o),
(493.039,566.417,cs),
(490.332,488.874,o),
(443.385,368.583,o),
(414.297,247.298,cs),
(407.326,218.468,o),
(402.204,185.661,o),
(401.093,153.849,cs)
);
},
{
closed = 1;
nodes = (
(227.627,311,o),
(277.872,318,o),
(345.872,318,cs),
(396.872,318,o),
(456.732,314,o),
(532.418,305,c),
(542.221,328,o),
(550.268,358,o),
(551.176,384,cs),
(551.56,395,o),
(549.909,405,o),
(547.258,415,c),
(507.363,418,o),
(470.467,421,o),
(437.467,421,cs),
(322.467,421,o),
(245.56,395,o),
(176.557,309,c),
(178.208,299,l)
);
}
);
width = 708.61;
}
);
unicode = 72;
},
{
glyphname = I;
lastChange = "2023-05-31 19:23:17 +0000";
layers = (
{
associatedMasterId = "CDFC0212-EC7A-4000-86F8-EA19B9E6D7F9";
background = {
shapes = (
{
closed = 1;
nodes = (
(68.01,546,l),
(141.01,628,o),
(261.01,607,o),
(261.01,495,cs),
(261.01,373.833,o),
(159.157,89.764,o),
(238.868,89.764,c),
(238.928,9.794,o),
(39.691,-81.335,o),
(40.002,128.791,cs),
(40.166,239.741,o),
(116.907,458.504,o),
(68.01,540,c)
);
}
);
};
layerId = "4E7B714F-ED6E-4DEB-BADC-14CE4F521997";
name = "May 29, 23, 14:22";
shapes = (
{
closed = 1;
nodes = (
(68.01,551,l),
(141.01,633,o),
(261.01,612,o),
(261.01,500,cs),
(261.01,378.833,o),
(159.157,89.764,o),
(238.868,89.764,c),
(259.403,9.794,o),
(39.691,-81.335,o),
(40.002,128.791,cs),
(40.166,239.741,o),
(116.907,463.504,o),
(68.01,545,c)
);
}
);
width = 281.01;
},
{
background = {
shapes = (
{
closed = 1;
nodes = (
(80.41,546,l),
(153.41,628,o),
(273.41,607,o),
(273.41,495,cs),
(273.41,373.833,o),
(171.557,89.764,o),
(251.268,89.764,c),
(251.328,9.794,o),
(52.091,-81.335,o),
(52.402,128.791,cs),
(52.566,239.741,o),
(129.307,458.504,o),
(80.41,540,c)
);
}
);
};
layerId = "CDFC0212-EC7A-4000-86F8-EA19B9E6D7F9";
name = Regular;
shapes = (
{
closed = 1;
nodes = (
(217.026,317,o),
(268.624,592.771,o),
(295.696,653.424,c),
(263.131,761.87,o),
(118.011,714.891,o),
(110.409,671.227,cs),
(99.912,610.929,o),
(36.742,265.34,o),
(30.051,73.687,cs),
(27.054,-12.164,o),
(155.208,-21.544,o),
(213.847,36.417,c)
);
}
);
width = 295.7;
},
{
associatedMasterId = "CDFC0212-EC7A-4000-86F8-EA19B9E6D7F9";
background = {
shapes = (
{
closed = 1;
nodes = (
(66.01,546,l),
(139.01,628,o),
(259.01,607,o),
(259.01,495,cs),
(259.01,373.833,o),
(157.157,89.764,o),
(236.868,89.764,c),
(236.928,9.794,o),
(37.691,-81.335,o),
(38.002,128.791,cs),
(38.166,239.741,o),
(114.907,458.504,o),
(66.01,540,c)
);
}
);
};
layerId = "82A91246-D292-4D28-9573-3E96B2000F77";
name = "May 31, 23, 14:55";
shapes = (
{
closed = 1;
nodes = (
(241,-30.07,o),
(241,106,c),
(183.498,237.641,o),
(276,470.588,o),
(276,602,cs),
(276,733.113,o),
(148.802,762.366,o),
(66,662,c),
(66,655,l),
(114.907,458.504,o),
(25,264.391,o),
(25,127.013,cs),
(25,-46.521,o)
);
}
);
width = 296;
},
{
associatedMasterId = "CDFC0212-EC7A-4000-86F8-EA19B9E6D7F9";
background = {
shapes = (
{
closed = 1;
nodes = (
(40.89,546,l),
(113.89,628,o),
(233.89,607,o),
(233.89,495,cs),
(233.89,373.833,o),
(132.037,89.764,o),
(211.748,89.764,c),
(211.808,9.794,o),
(12.571,-81.335,o),
(12.882,128.791,cs),
(13.046,239.741,o),
(89.787,458.504,o),
(40.89,540,c)
);
}
);
};
layerId = "07F70BDE-7513-4F9F-A52F-BB183CC55F75";
name = "May 31, 23, 15:17";
shapes = (
{
closed = 1;
nodes = (
(248.449,712.834,o),
(201.6,733,o),
(117.804,713,c),
(50.329,614.682,o),
(-92.66,-1.23,o),
(104.512,-1.23,cs),
(154.496,-1.23,o),
(205.176,33.467,o),
(205.176,63.039,c),
(156.241,209.555,o),
(225.297,560.344,o),
(277.34,676.672,c)
);
}
);
width = 268.34;
}
);
unicode = 73;
},
{
glyphname = J;
lastChange = "2023-05-29 18:42:26 +0000";
layers = (
{
layerId = "CDFC0212-EC7A-4000-86F8-EA19B9E6D7F9";
name = Regular;
shapes = (
{
closed = 1;
nodes = (
(406,-255.773,o),
(406,206,cs),
(406,284,o),
(394,370,o),
(394,443,cs),
(394,492.819,o),
(399.156,534.044,o),
(418.483,557.662,c),
(368.383,556.109,l),
(408.73,534.038,o),
(431.605,529,o),
(457,529,cs),
(518,529,o),
(545,582,o),
(545,633,cs),
(545,683,o),
(520,726,o),
(473,726,cs),
(437.502,726,o),
(387.019,715.511,o),
(327.055,621.168,c),
(392.687,642.057,l),
(308.634,702.834,o),
(239.776,727,o),
(183,727,cs),
(89,727,o),
(37,658,o),
(37,589,cs),
(37,523,o),
(88,446,o),
(190,446,c),
(181,470,o),
(177,493,o),
(177,513,cs),
(177,573,o),
(211,609,o),
(254,609,cs),
(277.971,609,o),
(307.049,598.785,o),
(324.91,566.112,c),
(313.482,608.992,l),
(249.77,536.473,o),
(231,480.169,o),
(231,227,cs),
(231,55,o),
(171,-17,o),
(93,-17,cs),
(69,-17,o),
(45,-3,o),
(27,21,c),
(15,15.391,l),
(15,-181.609,o)
);
}
);
width = 515;
},
{
associatedMasterId = "CDFC0212-EC7A-4000-86F8-EA19B9E6D7F9";
layerId = "5F7887A7-0944-4B5F-B72C-0609E905FA7D";
name = "May 25, 23, 12:33";
shapes = (
{
closed = 1;
nodes = (
(167.615,-114.383,o),
(51.984,346.836,o),
(246.661,483.448,c),
(220.581,481.419,o),
(185.904,493.1,o),
(162.025,493.1,cs),
(114.14,493.1,o),
(82.646,439.505,o),
(134.558,374.369,c),
(43.957,324.64,o),
(-30.003,409.248,o),
(-30.003,486.683,cs),
(-30.003,547.893,o),
(13.133,606.619,o),
(111.363,606.619,cs),
(207.727,606.619,o),
(238.478,556.859,o),
(305.158,556.859,cs),
(325.484,556.859,o),
(345.234,607.954,o),
(362.223,619.59,c),
(399.404,610.417,o),
(434.677,538.853,o),
(423.344,507.191,c),
(287.625,485.375,o),
(285.093,307.198,o),
(285.093,185.133,cs),
(285.093,-78.102,o),
(193.606,-171.104,o),
(70.483,-171.104,cs),
(-147.935,-171.104,o),
(-153.042,49.183,o),
(34.363,49.183,c),
(4.881,-13.286,o),
(3.957,-114.383,o),
(62.217,-114.383,cs)
);
}
);
width = 392.71;
},
{
associatedMasterId = "CDFC0212-EC7A-4000-86F8-EA19B9E6D7F9";
layerId = "14930F0A-615D-4253-8021-1889562487D2";
name = "May 25, 23, 12:38";
shapes = (
{
closed = 1;
nodes = (
(150.615,-114.383,o),
(106.371,390.371,o),
(212.462,489.191,c),
(163.278,539.002,o),
(110.812,473.408,o),
(110.812,391,c),
(-116.153,391,o),
(-15.661,737.512,o),
(264.227,548.859,c),
(429.415,728.956,o),
(480.916,359.616,o),
(305.158,454.883,c),
(259.763,391,o),
(285.093,266.248,o),
(285.093,167.133,cs),
(285.093,-96.102,o),
(193.606,-171.104,o),
(70.483,-171.104,cs),
(-147.935,-171.104,o),
(-153.042,49.183,o),
(34.363,49.183,c),
(4.881,-13.286,o),
(3.957,-114.383,o),
(45.217,-114.383,cs)
);
}
);
width = 392.71;
}
);
unicode = 74;
},
{
glyphname = K;
lastChange = "2023-05-31 18:39:23 +0000";
layers = (
{
associatedMasterId = "CDFC0212-EC7A-4000-86F8-EA19B9E6D7F9";
layerId = "3B78CFBF-B472-4813-B3A8-8F89EA199B25";
name = "May 30, 23, 16:51";
shapes = (
{
closed = 1;
nodes = (
(204,0,o),
(259,31,o),
(268,66,c),
(268,71,l),
(258,95,o),
(253,119,o),
(253,143,cs),
(253,236,o),
(309,347,o),
(309,436,cs),
(309,516,o),
(266,546,o),
(213,546,cs),
(140,546,o),
(38,479,o),
(38,416,c),
(56,403,l),
(69,428,o),
(93,442,o),
(114,442,cs),
(134,442,o),
(151,429,o),
(151,405,cs),
(151,341,o),
(68,191,o),
(68,98,cs),
(68,27,o),
(109,0,o),
(154,0,cs)
);
},
{
closed = 1;
nodes = (
(561,9,o),
(599,77,o),
(606,155,c),
(598,158,l),
(591,145,o),
(581,138,o),
(568,138,cs),
(540,138,o),
(496,164,o),
(433,247,cs),
(386,308,o),
(366,351,o),
(287,351,cs),
(228,351,o),
(224,319,o),
(234,319,cs),
(255,319,o),
(253,310,o),
(317,187,cs),
(363,98,o),
(410,9,o),
(481,9,cs)
);
},
{
closed = 1;
nodes = (
(372,362,o),
(463,391,o),
(525,391,cs),
(535,391,o),
(544,390,o),
(554,389,c),
(575,420,o),
(583,450,o),
(583,474,cs),
(583,516,o),
(565,544,o),
(519,544,cs),
(463,544,o),
(345,477,o),
(324,328,c),
(345,314,l)
);
}
);
width = 600;
},
{
associatedMasterId = "CDFC0212-EC7A-4000-86F8-EA19B9E6D7F9";
layerId = "2C64498E-CB5A-41A7-AEB9-9B595CFB6F86";
name = "May 31, 23, 14:07";
shapes = (
{
closed = 1;
nodes = (
(100.211,551.661,o),
(186.965,581.889,o),
(203.651,581.889,cs),
(325.125,581.889,o),
(189.696,-0.388,o),
(332.28,-0.388,cs),
(496.156,-0.388,o),
(568.386,548.34,o),
(802.676,548.34,cs),
(811.316,548.34,o),
(820.245,547.594,o),
(829.48,546.046,c),
(829.48,632.676,o),
(777.847,724.929,o),
(703.916,724.929,cs),
(608.326,724.929,o),
(425.459,570.703,o),
(318.725,50.687,c),
(347.484,53.965,l),
(348.029,79.334,o),
(344.677,104.093,o),
(348.293,127.433,cs),
(423.952,615.682,o),
(335.029,717.176,o),
(246.644,717.176,cs),
(172.058,717.176,o),
(69.999,617.881,o),
(69.999,530.688,c),
(77.483,527.508,l)
);
}
);
width = 705.84;
},
{
associatedMasterId = "CDFC0212-EC7A-4000-86F8-EA19B9E6D7F9";
layerId = "9B399BD3-5038-45A6-B41E-361C0C70C76F";
name = "May 31, 23, 14:08";
shapes = (
{
closed = 1;
nodes = (
(193,-11,o),
(260,38,o),
(260,112,c),
(253,114,l),
(248,105,o),
(235,96,o),
(223,96,cs),
(211,96,o),
(199,106,o),
(199,132,cs),
(199,189,o),
(272,528,o),
(272,611,cs),
(272,689,o),
(228,720,o),
(176,720,cs),
(115,720,o),
(44,670,o),
(37,591,c),
(44,587,l),
(54,601,o),
(66,609,o),
(78,609,cs),
(92,609,o),
(104,596,o),
(104,566,cs),
(104,491,o),
(31,197,o),
(31,110,cs),
(31,24,o),
(80,-11,o),
(132,-11,cs)
);
}
);
width = 705.84;
},
{
associatedMasterId = "CDFC0212-EC7A-4000-86F8-EA19B9E6D7F9";
layerId = "60FAD836-200B-4DE0-8B39-89B968C4D249";
name = "May 31, 23, 14:27";
shapes = (
{
closed = 1;
nodes = (
(247.348,0,o),
(286.481,229.072,o),
(378.842,371.585,c),
(453.576,546.046,o),
(571.665,553.046,o),
(620,483.438,c),
(687.809,600,o),
(655.414,725.625,o),
(562.655,725.625,cs),
(322.122,725.625,o),
(171.525,126.379,o),
(154.712,126.379,cs),
(114.729,126.379,o),
(394.603,720,o),
(160.011,720,cs),
(99.011,720,o),
(-1,675.805,o),
(-1,538,c),
(10,537,l),
(25.089,625.682,o),
(94,648.323,o),
(94,566,cs),
(94,491,o),
(21,207,o),
(21,120,cs),
(21,34,o),
(80,0,o),
(132,0,cs)
);
},
{
closed = 1;
nodes = (
(612,0,o),
(654,89,o),
(662,192,c),
(653,196,l),
(645,179,o),
(634,170,o),
(620,170,cs),
(489.2,170,o),
(460.8,434,o),
(330,434,c),
(295.886,384.562,l),
(376.486,384.562,o),
(362.331,0,o),
(524,0,cs)
);
}
);
width = 705.84;
},
{
layerId = "CDFC0212-EC7A-4000-86F8-EA19B9E6D7F9";
name = Regular;
shapes = (
{
closed = 1;
nodes = (
(86.911,-0.142,o),
(138.021,-0.142,cs),
(194.174,-0.142,o),
(254.618,43.446,o),
(256.836,107,cs),
(258.217,146.56,o),
(248.629,187,o),
(249.851,222,cs),
(254.005,341,o),
(319.043,428,o),
(324.209,576,cs),
(327.789,678.533,o),
(276.078,719.906,o),
(215.073,719.906,cs),
(132.607,719.906,o),
(42.809,634.303,o),
(40,531.977,c),
(47.276,530.023,l),
(85.605,605.682,o),
(151.178,603.749,o),
(148.778,535,cs),
(145.845,451,o),
(46.898,252,o),
(42.604,129,cs),
(39.351,35.798,o)
);
},
{
closed = 1;
nodes = (
(582.101,0,o),
(635.208,89,o),
(638.804,192,c),
(632.908,195,l),
(624.315,178,o),
(610.036,170,o),
(596.036,170,cs),
(565.036,170,o),
(517.305,192.309,o),
(451.644,302,cs),
(402.971,383.312,o),
(382.252,434,o),
(295.252,434,c),
(235.751,391,l),
(258.751,391,o),
(255.541,385,o),
(320.886,223,cs),
(367.767,105,o),
(416.101,0,o),
(494.101,0,cs)
);
},
{
closed = 1;
nodes = (
(411.408,506.859,o),
(536.453,545.046,o),
(601.556,500,c),
(739.962,732.27,o),
(428.878,912.283,o),
(313.773,363,c),
(336.145,345,l)
);
}
);
width = 668.8;
},
{
associatedMasterId = "CDFC0212-EC7A-4000-86F8-EA19B9E6D7F9";
layerId = "F882CC54-D3C5-44B3-B87B-6EC40F00FC63";
name = "May 31, 23, 14:39";
shapes = (
{
closed = 1;
nodes = (
(105.495,-0.142,o),
(156.605,-0.142,cs),
(212.757,-0.142,o),
(271.68,43.446,o),
(271.68,107,cs),
(271.68,146.56,o),
(260.68,187,o),
(260.68,222,cs),
(260.68,341,o),
(322.68,428,o),
(322.68,576,cs),
(322.68,678.533,o),
(269.524,719.906,o),
(208.52,719.906,cs),
(126.054,719.906,o),
(39.245,634.303,o),
(40.008,531.977,c),
(47.352,530.023,l),
(83.039,605.682,o),
(148.68,603.749,o),
(148.68,535,cs),
(148.68,451,o),
(56.68,252,o),
(56.68,129,cs),
(56.68,35.798,o)
);
},
{
closed = 1;
nodes = (
(600.68,0,o),
(650.68,89,o),
(650.68,192,c),
(644.68,195,l),
(636.68,178,o),
(622.68,170,o),
(608.68,170,cs),
(577.68,170,o),
(529.17,192.309,o),
(459.68,302,cs),
(408.169,383.312,o),
(385.68,434,o),
(298.68,434,c),
(240.68,391,l),
(263.68,391,o),
(260.68,385,o),
(331.68,223,cs),
(382.68,105,o),
(434.68,0,o),
(512.68,0,cs)
);
},
{
closed = 1;
nodes = (
(412.293,506.859,o),
(536.005,545.046,o),
(602.68,500,c),
(732.978,732.27,o),
(415.609,912.283,o),
(319.68,363,c),
(342.68,345,l)
);
}
);
width = 705.84;
}
);
unicode = 75;
},
{
glyphname = M;
lastChange = "2023-05-31 17:24:40 +0000";
layers = (
{
associatedMasterId = "CDFC0212-EC7A-4000-86F8-EA19B9E6D7F9";
background = {
shapes = (
{
closed = 0;
nodes = (
(659.146,328.071,l),
(684.44,386.293,o),
(706.155,439.349,o),
(749.958,439.349,cs),
(844.815,439.349,o),
(605.37,-0.452,o),
(842.77,-0.452,cs),
(900.495,-0.452,o),
(964.094,40.367,o),
(989.144,116.992,c),
(971.237,154.419,l),
(962.88,136.512,o),
(949.749,126.961,o),
(931.842,126.961,cs),
(860.032,126.961,o),
(949.078,328.861,o),
(949.084,462.7,cs),
(949.088,555.363,o),
(906.41,595.165,o),
(850.655,595.24,cs),
(781.825,595.332,o),
(713.067,537.117,o),
(660.08,431.887,c)
);
}
);
};
layerId = "D7257221-1E1B-4955-A236-C6D3721D5787";
name = "May 31, 23, 12:32";
shapes = (
{
closed = 1;
nodes = (
(156.914,480.317,o),
(39.997,312.308,o),
(39.997,127.013,cs),
(39.997,-48.206,o),
(254.174,-24.775,o),
(254.174,107,c),
(191.679,193.769,o),
(270.582,363.081,o),
(266.522,525.501,c),
(163.708,579.64,l)
);
},
{
closed = 1;
nodes = (
(115.429,615.682,o),
(160.147,578.906,o),
(192.281,529.7,c),
(338.741,431.712,o),
(333.567,26.612,o),
(416.44,26.612,cs),
(515.841,26.612,o),
(537.077,635.014,o),
(928.331,564.344,c),
(928.331,734.415,o),
(560.51,956.625,o),
(402.885,112.492,c),
(450.097,86.755,l),
(433.512,971.859,o),
(60.611,728.47,o),
(57.159,530.688,c),
(64.643,527.508,l)
);
},
{
closed = 1;
nodes = (
(701.731,560.257,l),
(645.325,468.532,o),
(604.242,300.054,o),
(604.242,153.849,cs),
(604.242,46.068,o),
(664.024,1.817,o),
(727.489,1.817,cs),
(799.287,1.817,o),
(875.8,58.453,o),
(875.8,143.813,c),
(868.922,147.205,l),
(859.35,127.274,o),
(843.481,117.371,o),
(824.948,118.112,cs),
(800.094,119.106,o),
(790.147,145.896,o),
(790.147,181.685,cs),
(790.147,281.568,o),
(771.728,477.764,o),
(802.734,631.103,c)
);
}
);
width = 918.33;
},
{
background = {
shapes = (
{
closed = 0;
nodes = (
(651.986,328.071,l),
(677.28,386.293,o),
(698.995,439.349,o),
(742.798,439.349,cs),
(837.655,439.349,o),
(598.21,-0.452,o),
(835.61,-0.452,cs),
(893.335,-0.452,o),
(956.934,40.367,o),
(981.984,116.992,c),
(964.077,154.419,l),
(955.72,136.512,o),
(942.589,126.961,o),
(924.682,126.961,cs),
(852.872,126.961,o),
(941.918,328.861,o),
(941.924,462.7,cs),
(941.928,555.363,o),
(899.25,595.165,o),
(843.495,595.24,cs),
(774.665,595.332,o),
(705.907,537.117,o),
(652.92,431.887,c)
);
}
);
};
layerId = "CDFC0212-EC7A-4000-86F8-EA19B9E6D7F9";
name = Regular;
shapes = (
{
closed = 1;
nodes = (
(91.13,613.287,o),
(149.499,584.56,o),
(185.445,546.562,c),
(166.753,583.395,l),
(162.746,484.586,o),
(42.837,313.664,o),
(42.837,126.013,cs),
(42.837,-49.206,o),
(257.014,-25.775,o),
(257.014,106,c),
(255.075,108.499,l),
(182.139,106.545,o),
(261.974,372.804,o),
(259.505,528.53,c),
(217.152,520.228,l),
(304.984,386.891,o),
(338.675,290.426,o),
(367.24,206.599,c),
(336.599,128.856,o),
(330.266,7.18,o),
(431.504,7.18,cs),
(538.225,7.18,o),
(528.59,130.382,o),
(498.644,212.293,c),
(575.07,412.825,o),
(741.148,598.136,o),
(961.171,564.344,c),
(961.171,725.014,o),
(607.609,930.211,o),
(427.041,261.558,c),
(456.05,258.585,l),
(371.918,935.759,o),
(43.272,728.19,o),
(39.999,540.688,c),
(47.483,537.508,l)
);
},
{
closed = 1;
nodes = (
(733.731,584.56,l),
(677.325,492.835,o),
(624.242,300.054,o),
(624.242,153.849,cs),
(624.242,46.068,o),
(684.024,1.817,o),
(747.489,1.817,cs),
(819.287,1.817,o),
(895.8,58.453,o),
(895.8,143.813,c),
(888.922,147.205,l),
(879.35,127.274,o),
(863.496,118.112,o),
(844.948,118.112,cs),
(756.231,118.112,o),
(791.728,431.221,o),
(822.734,584.56,c)
);
}
);
width = 966.17;
},
{
associatedMasterId = "CDFC0212-EC7A-4000-86F8-EA19B9E6D7F9";
background = {
shapes = (
{
closed = 0;
nodes = (
(659.146,328.071,l),
(684.44,386.293,o),
(706.155,439.349,o),
(749.958,439.349,cs),
(844.815,439.349,o),
(605.37,-0.452,o),
(842.77,-0.452,cs),
(900.495,-0.452,o),
(964.094,40.367,o),
(989.144,116.992,c),
(971.237,154.419,l),
(962.88,136.512,o),
(949.749,126.961,o),
(931.842,126.961,cs),
(860.032,126.961,o),
(949.078,328.861,o),
(949.084,462.7,cs),
(949.088,555.363,o),
(906.41,595.165,o),
(850.655,595.24,cs),
(781.825,595.332,o),
(713.067,537.117,o),
(660.08,431.887,c)
);
}
);
};
layerId = "2767DE59-FE6F-4200-B3D7-87E1FBD8B74D";
name = "May 31, 23, 12:33";
shapes = (
{
closed = 1;
nodes = (
(663.356,600.757,l),
(734.578,477.317,o),
(613.661,312.308,o),
(613.661,127.013,cs),
(613.661,-48.206,o),
(847.838,-24.775,o),
(847.838,107,c),
(746.443,229.859,o),
(838.007,483.774,o),
(755.276,609.336,c)
);
},
{
closed = 1;
nodes = (
(166.914,480.317,o),
(49.997,312.308,o),
(49.997,127.013,cs),
(49.997,-48.206,o),
(264.174,-24.775,o),
(264.174,107,c),
(201.679,193.769,o),
(250.582,363.081,o),
(246.522,525.501,c),
(173.708,579.64,l)
);
},
{
closed = 1;
nodes = (
(176.147,575.906,o),
(208.281,526.7,c),
(336.089,400.078,o),
(343.567,26.612,o),
(426.44,26.612,cs),
(525.841,26.612,o),
(559.753,620.952,o),
(928.331,564.344,c),
(928.331,734.415,o),
(570.51,956.625,o),
(412.885,112.492,c),
(460.097,116.755,l),
(443.68,962.862,o),
(50.611,728.47,o),
(47.159,530.688,c),
(54.643,527.508,l),
(105.429,615.682,o)
);
}
);
width = 918.33;
},
{
associatedMasterId = "CDFC0212-EC7A-4000-86F8-EA19B9E6D7F9";
background = {
shapes = (
{
closed = 0;
nodes = (
(659.146,328.071,l),
(684.44,386.293,o),
(706.155,439.349,o),
(749.958,439.349,cs),
(844.815,439.349,o),
(605.37,-0.452,o),
(842.77,-0.452,cs),
(900.495,-0.452,o),
(964.094,40.367,o),
(989.144,116.992,c),
(971.237,154.419,l),
(962.88,136.512,o),
(949.749,126.961,o),
(931.842,126.961,cs),
(860.032,126.961,o),
(949.078,328.861,o),
(949.084,462.7,cs),
(949.088,555.363,o),
(906.41,595.165,o),
(850.655,595.24,cs),
(781.825,595.332,o),
(713.067,537.117,o),
(660.08,431.887,c)
);
}
);
};
layerId = "C22FD797-A48C-49EB-A4EC-026E5CA3DE9A";
name = "May 31, 23, 13:06";
shapes = (
{
closed = 1;
nodes = (
(98.29,603.287,o),
(156.659,574.56,o),
(192.605,536.562,c),
(173.913,573.395,l),
(169.906,474.586,o),
(49.997,314.664,o),
(49.997,127.013,cs),
(49.997,-48.206,o),
(264.174,-24.775,o),
(264.174,107,c),
(202.573,192.528,o),
(269.206,358.256,o),
(266.665,518.53,c),
(224.312,510.228,l),
(312.144,376.891,o),
(344.835,290.426,o),
(373.4,206.599,c),
(342.759,128.856,o),
(336.426,7.18,o),
(437.664,7.18,cs),
(544.385,7.18,o),
(534.75,130.382,o),
(504.804,212.293,c),
(534.961,291.422,o),
(582.711,386.406,o),
(712.752,517.993,c),
(664.579,534.118,l),
(676.87,420.476,o),
(613.661,280.724,o),
(613.661,127.013,cs),
(613.661,-48.206,o),
(847.838,-24.775,o),
(847.838,107,c),
(753.309,221.54,o),
(826.491,439.987,o),
(769.799,572.143,c),
(754.087,538.37,l),
(802.221,557.593,o),
(859.481,574.918,o),
(928.331,564.344,c),
(928.331,725.014,o),
(593.769,930.211,o),
(433.201,261.558,c),
(462.21,258.585,l),
(378.078,935.759,o),
(50.432,718.19,o),
(47.159,530.688,c),
(54.643,527.508,l)
);
}
);
width = 918.33;
},
{
associatedMasterId = "CDFC0212-EC7A-4000-86F8-EA19B9E6D7F9";
background = {
shapes = (
{
closed = 0;
nodes = (
(651.986,328.071,l),
(677.28,386.293,o),
(698.995,439.349,o),
(742.798,439.349,cs),
(837.655,439.349,o),
(598.21,-0.452,o),
(835.61,-0.452,cs),
(893.335,-0.452,o),
(956.934,40.367,o),
(981.984,116.992,c),
(964.077,154.419,l),
(955.72,136.512,o),
(942.589,126.961,o),
(924.682,126.961,cs),
(852.872,126.961,o),
(941.918,328.861,o),
(941.924,462.7,cs),
(941.928,555.363,o),
(899.25,595.165,o),
(843.495,595.24,cs),
(774.665,595.332,o),
(705.907,537.117,o),
(652.92,431.887,c)
);
}
);
};
layerId = "D80B962D-AB0C-46F4-B7C7-41DDD0CA3C41";
name = "May 31, 23, 13:17";
shapes = (
{
closed = 1;
nodes = (
(91.13,613.287,o),
(149.499,584.56,o),
(185.445,546.562,c),
(166.753,583.395,l),
(162.746,484.586,o),
(42.837,313.664,o),
(42.837,126.013,cs),
(42.837,-49.206,o),
(257.014,-25.775,o),
(257.014,106,c),
(255.075,108.499,l),
(182.139,106.545,o),
(261.974,372.804,o),
(259.505,528.53,c),
(217.152,520.228,l),
(304.984,386.891,o),
(337.675,290.426,o),
(366.24,206.599,c),
(335.599,128.856,o),
(329.266,7.18,o),
(430.504,7.18,cs),
(537.225,7.18,o),
(527.59,130.382,o),
(497.644,212.293,c),
(574.07,412.825,o),
(711.148,598.136,o),
(931.171,564.344,c),
(931.171,725.014,o),
(586.609,930.211,o),
(426.041,261.558,c),
(455.05,258.585,l),
(370.918,935.759,o),
(43.272,728.19,o),
(39.999,540.688,c),
(47.483,537.508,l)
);
},
{
closed = 1;
nodes = (
(658.937,564.789,l),
(732.531,503.063,o),
(614.242,300.054,o),
(614.242,153.849,cs),
(614.242,46.068,o),
(664.024,1.817,o),
(727.489,1.817,cs),
(799.287,1.817,o),
(875.8,58.453,o),
(875.8,143.813,c),
(868.922,147.205,l),
(859.35,127.274,o),
(843.481,117.371,o),
(824.948,118.112,cs),
(800.094,119.106,o),
(790.147,145.896,o),
(790.147,181.685,cs),
(790.147,281.568,o),
(845.934,512.295,o),
(746.94,635.634,c)
);
},
{
closed = 1;
nodes = (
(701.731,560.257,l),
(645.325,468.532,o),
(604.242,300.054,o),
(604.242,153.849,cs),
(604.242,46.068,o),
(664.024,1.817,o),
(727.489,1.817,cs),
(799.287,1.817,o),
(875.8,58.453,o),
(875.8,143.813,c),
(868.922,147.205,l),
(859.35,127.274,o),
(843.481,117.371,o),
(824.948,118.112,cs),
(800.094,119.106,o),
(790.147,145.896,o),
(790.147,181.685,cs),
(790.147,281.568,o),
(771.728,477.764,o),
(802.734,631.103,c)
);
}
);
width = 921.17;
}
);
unicode = 77;
},
{
glyphname = N;
lastChange = "2023-05-29 19:18:40 +0000";
layers = (
{
associatedMasterId = "CDFC0212-EC7A-4000-86F8-EA19B9E6D7F9";
background = {
shapes = (
{
closed = 1;
nodes = (
(244.246,378.628,l),
(290.921,517.302,o),
(397.318,595.346,o),
(477.005,595.24,cs),
(532.76,595.165,o),
(575.438,555.363,o),
(575.434,462.7,cs),
(575.428,328.861,o),
(486.382,126.961,o),
(558.192,126.961,c),
(576.099,126.961,o),
(589.23,136.512,o),
(597.587,154.419,c),
(615.494,116.992,l),
(590.444,40.367,o),
(526.845,-0.452,o),
(469.12,-0.452,cs),
(231.72,-0.452,o),
(471.165,439.349,o),
(376.308,439.349,cs),
(315.424,439.349,o),
(258.572,336.845,o),
(244.246,260.442,c)
);
},
{
closed = 1;
nodes = (
(2.06,455,l),
(16.833,529.734,o),
(102.801,595.149,o),
(174.441,595.157,cs),
(229.099,595.163,o),
(275.417,557.098,o),
(275.417,456.054,cs),
(275.417,333.844,o),
(202.543,194.519,o),
(255.06,79,c),
(255.365,72.956,l),
(248.738,34.426,o),
(197.404,0.468,o),
(148.635,0.468,cs),
(101.706,0.468,o),
(57.153,32.077,o),
(57.101,121.472,cs),
(57.041,223.486,o),
(110.963,374.738,o),
(110.963,444.314,cs),
(110.963,504.135,o),
(50.611,493,o),
(26.06,441,c)
);
}
);
};
layerId = "673B596C-8DC2-4FD5-9F29-B2E065A52C7D";
name = "May 25, 23, 13:23";
shapes = (
{
closed = 1;
nodes = (
(65.141,491.104,o),
(120.963,509.135,o),
(120.963,449.314,cs),
(120.963,379.738,o),
(57.041,223.486,o),
(57.101,121.472,cs),
(57.153,32.077,o),
(101.706,0.468,o),
(148.635,0.468,cs),
(197.404,0.468,o),
(248.738,34.426,o),
(255.365,72.956,c),
(255.06,79,l),
(219.88,156.384,o),
(245.455,246.695,o),
(266.175,334.625,c),
(291.533,392.233,o),
(332.895,444.349,o),
(376.308,444.349,cs),
(471.165,444.349,o),
(231.72,-0.452,o),
(469.12,-0.452,cs),
(526.845,-0.452,o),
(605.859,56.687,o),
(605.859,139.108,c),
(598.374,144.303,l),
(591.357,128.919,o),
(576.099,111.961,o),
(558.192,111.961,cs),
(486.382,111.961,o),
(575.428,333.861,o),
(575.434,467.7,cs),
(575.438,560.363,o),
(532.76,600.165,o),
(477.005,600.24,cs),
(408.175,600.332,o),
(309.417,522.117,o),
(256.43,396.887,c),
(283.106,419.534,l),
(297.028,551.834,o),
(246.029,600.164,o),
(184.441,600.157,cs),
(112.801,600.149,o),
(40.002,539.63,o),
(40.002,450.352,c),
(48.298,445.43,l)
);
}
);
width = 620.86;
},
{
associatedMasterId = "CDFC0212-EC7A-4000-86F8-EA19B9E6D7F9";
background = {
shapes = (
{
closed = 1;
nodes = (
(244.246,378.628,l),
(290.921,517.302,o),
(397.318,595.346,o),
(477.005,595.24,cs),
(532.76,595.165,o),
(575.438,555.363,o),
(575.434,462.7,cs),
(575.428,328.861,o),
(486.382,126.961,o),
(558.192,126.961,c),
(576.099,126.961,o),
(589.23,136.512,o),
(597.587,154.419,c),
(615.494,116.992,l),
(590.444,40.367,o),
(526.845,-0.452,o),
(469.12,-0.452,cs),
(231.72,-0.452,o),
(471.165,439.349,o),
(376.308,439.349,cs),
(315.424,439.349,o),
(258.572,336.845,o),
(244.246,260.442,c)
);
},
{
closed = 1;
nodes = (
(2.06,455,l),
(16.833,529.734,o),
(102.801,595.149,o),
(174.441,595.157,cs),
(229.099,595.163,o),
(275.417,557.098,o),
(275.417,456.054,cs),
(275.417,333.844,o),
(202.543,194.519,o),
(255.06,79,c),
(255.365,72.956,l),
(248.738,34.426,o),
(197.404,0.468,o),
(148.635,0.468,cs),
(101.706,0.468,o),
(57.153,32.077,o),
(57.101,121.472,cs),
(57.041,223.486,o),
(110.963,374.738,o),
(110.963,444.314,cs),
(110.963,504.135,o),
(50.611,493,o),
(26.06,441,c)
);
}
);
};
layerId = "D064859F-214E-4144-9B44-54C2006F3299";
name = "May 26, 23, 14:59";
shapes = (
{
closed = 1;
nodes = (
(65.141,491.104,o),
(120.963,509.135,o),
(120.963,449.314,cs),
(120.963,379.738,o),
(57.041,223.486,o),
(57.101,121.472,cs),
(57.153,32.077,o),
(101.706,0.468,o),
(148.635,0.468,cs),
(197.404,0.468,o),
(250.365,30.155,o),
(250.365,113,cs),
(250.365,203.661,o),
(225.306,205.538,o),
(266.175,334.625,cs),
(285.173,394.632,o),
(332.895,444.349,o),
(376.308,444.349,cs),
(471.165,444.349,o),
(231.72,-0.452,o),
(469.12,-0.452,cs),
(526.845,-0.452,o),
(605.859,56.687,o),
(605.859,139.108,c),
(598.374,144.303,l),
(591.357,128.919,o),
(576.099,111.961,o),
(558.192,111.961,cs),
(486.382,111.961,o),
(575.428,333.861,o),
(575.434,467.7,cs),
(575.438,560.363,o),
(532.76,600.165,o),
(477.005,600.24,cs),
(408.175,600.332,o),
(309.417,522.117,o),
(256.43,396.887,c),
(283.106,419.534,l),
(297.028,551.834,o),
(246.029,600.164,o),
(184.441,600.157,cs),
(112.801,600.149,o),
(40.002,539.63,o),
(40.002,450.352,c),
(48.298,445.43,l)
);
}
);
width = 620.86;
},
{
associatedMasterId = "CDFC0212-EC7A-4000-86F8-EA19B9E6D7F9";
background = {
shapes = (
{
closed = 1;
nodes = (
(244.246,378.628,l),
(290.921,517.302,o),
(397.318,595.346,o),
(477.005,595.24,cs),
(532.76,595.165,o),
(575.438,555.363,o),
(575.434,462.7,cs),
(575.428,328.861,o),
(486.382,126.961,o),
(558.192,126.961,c),
(576.099,126.961,o),
(589.23,136.512,o),
(597.587,154.419,c),
(615.494,116.992,l),
(590.444,40.367,o),
(526.845,-0.452,o),
(469.12,-0.452,cs),
(231.72,-0.452,o),
(471.165,439.349,o),
(376.308,439.349,cs),
(315.424,439.349,o),
(258.572,336.845,o),
(244.246,260.442,c)
);
},
{
closed = 1;
nodes = (
(2.06,455,l),
(16.833,529.734,o),
(102.801,595.149,o),
(174.441,595.157,cs),
(229.099,595.163,o),
(275.417,557.098,o),
(275.417,456.054,cs),
(275.417,333.844,o),
(202.543,194.519,o),
(255.06,79,c),
(255.365,72.956,l),
(248.738,34.426,o),
(197.404,0.468,o),
(148.635,0.468,cs),
(101.706,0.468,o),
(57.153,32.077,o),
(57.101,121.472,cs),
(57.041,223.486,o),
(110.963,374.738,o),
(110.963,444.314,cs),
(110.963,504.135,o),
(50.611,493,o),
(26.06,441,c)
);
}
);
};
layerId = "B9EFC279-0160-457C-9D49-19E25F46CB66";
name = "May 26, 23, 15:00";
shapes = (
{
closed = 1;
nodes = (
(65.141,608.104,o),
(120.963,626.135,o),
(120.963,566.314,cs),
(120.963,496.738,o),
(57.041,340.486,o),
(57.101,121.472,cs),
(57.126,32.077,o),
(101.706,0.468,o),
(148.635,0.468,cs),
(197.404,0.468,o),
(250.365,30.155,o),
(250.365,113,cs),
(250.365,320.661,o),
(225.306,322.538,o),
(266.175,451.625,cs),
(285.173,511.632,o),
(332.895,561.349,o),
(376.308,561.349,cs),
(471.165,561.349,o),
(231.72,-0.452,o),
(469.12,-0.452,cs),
(526.845,-0.452,o),
(605.859,56.687,o),
(605.859,139.108,c),
(598.374,144.303,l),
(591.357,128.919,o),
(576.099,111.961,o),
(558.192,111.961,cs),
(486.382,111.961,o),
(575.428,450.861,o),
(575.434,584.7,cs),
(575.438,677.363,o),
(532.76,717.165,o),
(477.005,717.24,cs),
(408.175,717.332,o),
(309.417,639.117,o),
(256.43,513.887,c),
(283.106,536.534,l),
(297.028,668.834,o),
(246.029,717.164,o),
(184.441,717.157,cs),
(112.801,717.149,o),
(40.002,656.63,o),
(40.002,567.352,c),
(48.298,562.43,l)
);
}
);
width = 620.86;
},
{
layerId = "CDFC0212-EC7A-4000-86F8-EA19B9E6D7F9";
name = Regular;
shapes = (
{
closed = 1;
nodes = (
(568.866,0,o),
(619.669,46,o),
(620.507,94,cs),
(620.594,99,o),
(620.647,102,o),
(619.734,107,c),
(594.734,107,o),
(597.205,134,o),
(597.938,176,cs),
(599.823,284,o),
(671.437,491,o),
(673.252,595,cs),
(675.641,731.853,o),
(564.352,759.365,o),
(479.404,661,c),
(479.264,653,l),
(512.878,533.25,o),
(469.942,215.713,o),
(456.609,139.545,c),
(474.65,139.312,l),
(442.91,391,o),
(370.159,720,o),
(199.434,720,cs),
(129.434,720,o),
(52.445,672.917,o),
(49.998,532.734,c),
(59.946,529.734,l),
(74.784,572.221,o),
(120.798,589.672,o),
(184.825,545.117,c),
(139.056,595.149,l),
(156.889,471,o),
(53.557,314.512,o),
(53.557,127.013,cs),
(53.557,-48.206,o),
(267.734,-24.775,o),
(267.734,107,c),
(189.434,215.713,o),
(286.002,454,o),
(245.26,572.961,c),
(186.744,589.523,l),
(380.241,293.451,o),
(296.125,0,o),
(512.866,0,cs)
);
}
);
width = 698.29;
}
);
unicode = 78;
},
{
glyphname = O;
lastChange = "2023-05-29 17:28:52 +0000";
layers = (
{
background = {
shapes = (
{
closed = 1;
nodes = (
(650.428,-6,o),
(720.068,601.177,o),
(355.841,601.177,cs),
(-19.44,601.177,o),
(-99.028,-6,o),
(271.279,-6,cs)
);
},
{
closed = 1;
nodes = (
(178.627,102.341,o),
(189.123,492.822,o),
(320.92,492.822,cs),
(442.413,492.822,o),
(431.811,102.341,o),
(299.956,102.341,cs)
);
}
);
};
layerId = "CDFC0212-EC7A-4000-86F8-EA19B9E6D7F9";
shapes = (
{
closed = 1;
nodes = (
(728.895,-6.578,o),
(828.557,725.578,o),
(406.239,725.578,cs),
(-22.199,725.578,o),
(-121.443,-6.578,o),
(301.15,-6.578,cs)
);
},
{
closed = 1;
nodes = (
(170.41,119.5,o),
(193.178,599.5,o),
(379.293,599.5,cs),
(530.41,599.5,o),
(509.232,119.5,o),
(343.799,119.5,cs)
);
}
);
width = 707.05;
},
{
associatedMasterId = "CDFC0212-EC7A-4000-86F8-EA19B9E6D7F9";
background = {
shapes = (
{
closed = 1;
nodes = (
(654.908,-6,o),
(724.548,601.177,o),
(360.321,601.177,cs),
(-14.96,601.177,o),
(-94.548,-6,o),
(275.759,-6,cs)
);
},
{
closed = 1;
nodes = (
(183.107,102.341,o),
(193.603,492.822,o),
(325.4,492.822,cs),
(446.893,492.822,o),
(436.291,102.341,o),
(304.436,102.341,cs)
);
}
);
};
layerId = "D8EA2D78-02EC-45C8-9C9F-46DE93D62813";
name = "May 26, 23, 14:47";
shapes = (
{
closed = 1;
nodes = (
(502,-6,o),
(629,221,o),
(629,418,cs),
(629,578,o),
(545,723,o),
(364,723,cs),
(135,723,o),
(6,502,o),
(6,296,cs),
(6,138,o),
(90,-6,o),
(271,-6,cs)
);
},
{
closed = 1;
nodes = (
(241,123,o),
(210,225,o),
(210,333,cs),
(210,464,o),
(249,595,o),
(326,595,cs),
(389,595,o),
(419,493,o),
(419,377,cs),
(419,253,o),
(380,123,o),
(303,123,cs)
);
}
);
width = 635;
},
{
associatedMasterId = "CDFC0212-EC7A-4000-86F8-EA19B9E6D7F9";
background = {
shapes = (
{
closed = 1;
nodes = (
(654.908,-6,o),
(724.548,601.177,o),
(360.321,601.177,cs),
(-14.96,601.177,o),
(-94.548,-6,o),
(275.759,-6,cs)
);
},
{
closed = 1;
nodes = (
(183.107,102.341,o),
(193.603,492.822,o),
(325.4,492.822,cs),
(446.893,492.822,o),
(436.291,102.341,o),
(304.436,102.341,cs)
);
}
);
};
layerId = "64CE6B40-5935-4298-A8C3-AC288DD246FF";
name = "May 26, 23, 16:14";
shapes = (
{
closed = 1;
nodes = (
(654.908,-6,o),
(724.548,601.177,o),
(360.321,601.177,cs),
(-14.96,601.177,o),
(-94.548,-6,o),
(275.759,-6,cs)
);
},
{
closed = 1;
nodes = (
(183.107,102.341,o),
(193.603,492.822,o),
(325.4,492.822,cs),
(446.893,492.822,o),
(436.291,102.341,o),
(304.436,102.341,cs)
);
}
);
width = 635;
}
);
unicode = 79;
},
{
glyphname = Q;
lastChange = "2023-05-30 17:38:56 +0000";
layers = (
{
associatedMasterId = "CDFC0212-EC7A-4000-86F8-EA19B9E6D7F9";
layerId = "C3E6BFA4-2D4F-4EB0-A1CA-E26BF668C52B";
name = "May 30, 23, 12:53";
shapes = (
{
ref = O;
},
{
closed = 1;
nodes = (
(625.872,-137.864,o),
(599.912,-68.51,o),
(515.219,-68.51,cs),
(428.219,-68.51,o),
(247.461,-81.919,o),
(173.601,-81.919,cs),
(122.899,-81.919,o),
(125.512,-35.149,o),
(163.339,-17.076,c),
(160.615,-9.488,l),
(81.6,-2.663,o),
(10.219,-63.902,o),
(10.219,-123.975,cs),
(10.219,-175.971,o),
(23.296,-237.879,o),
(100.111,-237.879,cs),
(183.11,-237.879,o),
(408.246,-220.327,o),
(464.38,-230.225,cs),
(509.659,-238.209,o),
(500.308,-277.005,o),
(472.73,-286.53,c),
(473.484,-293.771,l),
(546.359,-306.621,o),
(606.249,-249.148,o),
(616.842,-189.074,cs)
);
}
);
width = 707.05;
},
{
associatedMasterId = "CDFC0212-EC7A-4000-86F8-EA19B9E6D7F9";
layerId = "1F192130-08C6-4261-BC9A-DE68245E632E";
name = "May 30, 23, 13:36";
shapes = (
{
locked = 1;
ref = O;
},
{
closed = 1;
nodes = (
(260.467,26.811,l),
(401.476,516.306,o),
(321.077,-200,o),
(537.07,-200,cs),
(618.802,-200,o),
(682.229,-109.822,o),
(682.229,32.695,c),
(671.51,33.789,l),
(522.535,-283.663,o),
(593.089,278.211,o),
(393.725,278.211,cs),
(282.78,278.211,o),
(252.412,164.225,o),
(252.412,29.811,c)
);
}
);
width = 707.05;
},
{
layerId = "CDFC0212-EC7A-4000-86F8-EA19B9E6D7F9";
name = Regular;
shapes = (
{
ref = O;
},
{
closed = 1;
nodes = (
(31.419,-113.383,o),
(115.348,-36.602,o),
(226.294,-36.602,cs),
(425.658,-36.602,o),
(600,-234.57,o),
(667.2,-49.023,c),
(677.919,-50.117,l),
(677.919,-192.634,o),
(628.02,-282.812,o),
(518.225,-282.812,cs),
(302.231,-282.812,o),
(166.792,-77.356,o),
(39.473,-250.797,c),
(31.419,-247.797,l)
);
}
);
width = 702.92;
},
{
associatedMasterId = "CDFC0212-EC7A-4000-86F8-EA19B9E6D7F9";
layerId = "0E18A52A-1FAB-4920-9972-3ADE27BE0E50";
name = "May 30, 23, 13:37";
shapes = (
{
ref = O;
},
{
closed = 1;
nodes = (
(16.419,-113.383,o),
(100.348,-36.602,o),
(211.294,-36.602,cs),
(410.658,-36.602,o),
(585,-234.57,o),
(652.2,-49.023,c),
(662.919,-50.117,l),
(662.919,-192.634,o),
(613.02,-282.812,o),
(503.225,-282.812,cs),
(287.231,-282.812,o),
(151.792,-77.356,o),
(24.473,-250.797,c),
(16.419,-247.797,l)
);
}
);
width = 707.05;
}
);
unicode = 81;
},
{
glyphname = S;
lastChange = "2023-05-31 19:22:45 +0000";
layers = (
{
layerId = "CDFC0212-EC7A-4000-86F8-EA19B9E6D7F9";
name = Regular;
shapes = (
{
closed = 1;
nodes = (
(377.676,-6,o),
(521.59,107.161,o),
(525.817,228.264,cs),
(531.565,392.895,o),
(258.398,415.873,o),
(263.457,560.799,cs),
(264.593,593.337,o),
(296.196,615.682,o),
(328.465,615.682,cs),
(370.179,615.682,o),
(413.006,578.343,o),
(392.567,477.417,c),
(485.323,477.417,o),
(534.004,533.398,o),
(536.056,592.183,cs),
(538.325,657.167,o),
(483.613,725.578,o),
(368.474,725.578,cs),
(238.438,725.578,o),
(80.063,653.115,o),
(74.865,504.219,cs),
(68.385,318.594,o),
(338.896,304.844,o),
(334.458,177.72,cs),
(332.686,126.965,o),
(300.946,99.22,o),
(252.307,99.22,cs),
(204.66,99.22,o),
(151.797,148.852,o),
(160.996,297.763,c),
(69.643,296.818,o),
(12.58,228.91,o),
(10.089,157.548,cs),
(7.309,77.924,o),
(72.469,-6,o),
(233.743,-6,cs)
);
}
);
width = 556.12;
},
{
associatedMasterId = "CDFC0212-EC7A-4000-86F8-EA19B9E6D7F9";
layerId = "096D5CEE-466F-4B62-9C19-6ED22C447B88";
name = "May 30, 23, 10:14";
shapes = (
{
closed = 1;
nodes = (
(389.226,-6,o),
(529.189,107.161,o),
(529.189,228.264,cs),
(529.189,412.895,o),
(255.22,415.873,o),
(255.22,560.799,cs),
(255.22,593.337,o),
(286.043,615.682,o),
(318.312,615.682,cs),
(360.026,615.682,o),
(404.156,578.343,o),
(387.241,477.417,c),
(479.997,477.417,o),
(526.723,533.398,o),
(526.723,592.183,cs),
(526.723,657.167,o),
(469.623,725.578,o),
(354.484,725.578,cs),
(224.448,725.578,o),
(68.603,653.115,o),
(68.603,504.219,cs),
(68.603,318.594,o),
(339.594,284.844,o),
(339.594,166.72,cs),
(341.58,127.014,o),
(308.822,99.22,o),
(260.183,99.22,cs),
(212.536,99.22,o),
(157.941,148.852,o),
(157.941,295.763,c),
(69.02,295.763,o),
(15.3,228.888,o),
(15.3,158.101,cs),
(15.3,78.522,o),
(83.194,-6,o),
(245.293,-6,cs)
);
}
);
width = 548;
},
{
associatedMasterId = "CDFC0212-EC7A-4000-86F8-EA19B9E6D7F9";
layerId = "2BEFB439-C846-484B-A556-C98784018342";
name = "May 29, 23, 15:33";
shapes = (
{
closed = 1;
nodes = (
(350,-6,o),
(475,79,o),
(475,170,cs),
(475,309,o),
(230,308,o),
(230,417,cs),
(230,447,o),
(249,463,o),
(281,463,cs),
(312,463,o),
(348,431,o),
(348,358,c),
(409,358,o),
(470,375,o),
(470,452,cs),
(470,516,o),
(400,546,o),
(319,546,cs),
(203,546,o),
(63,486,o),
(63,378,cs),
(63,238,o),
(306,213,o),
(306,124,cs),
(307,94,o),
(278,73,o),
(234,73,cs),
(192,73,o),
(143,110,o),
(143,221,c),
(64,221,o),
(15,171,o),
(15,117,cs),
(15,58,o),
(76,-6,o),
(221,-6,cs)
);
}
);
width = 490;
}
);
unicode = 83;
},
{
glyphname = T;
lastChange = "2023-06-01 15:55:16 +0000";
layers = (
{
layerId = "CDFC0212-EC7A-4000-86F8-EA19B9E6D7F9";
shapes = (
{
closed = 1;
nodes = (
(129.866,620.136,o),
(382.939,535.16,o),
(556.965,535.16,cs),
(679.128,535.16,o),
(678.753,702.084,o),
(610.707,725.16,c),
(553.27,655.814,o),
(296.341,720.07,o),
(187.469,720.07,cs),
(57.597,720.07,o),
(35.004,663.355,o),
(35.004,537.358,c)
);
},
{
closed = 1;
nodes = (
(256.006,600.533,l),
(234.079,473.834,o),
(193.35,225.479,o),
(188.051,73.687,cs),
(185.054,-12.164,o),
(313.208,-21.544,o),
(371.847,36.417,c),
(374.255,248.951,o),
(404.444,458.723,o),
(430.712,574.334,c)
);
}
);
width = 631.59;
},
{
associatedMasterId = "CDFC0212-EC7A-4000-86F8-EA19B9E6D7F9";
layerId = "FB0272C2-DE95-4400-832C-C744005D3700";
name = "Jun 1, 23, 11:53";
shapes = (
{
closed = 1;
nodes = (
(243.316,628.068,l),
(276.795,440.872,o),
(196.51,258.11,o),
(196.51,127.013,cs),
(196.51,-46.521,o),
(413.044,-37.07,o),
(413.044,129.259,c),
(343.747,215.706,o),
(454.45,445.43,o),
(423.079,632.596,c)
);
},
{
closed = 1;
nodes = (
(129.866,620.136,o),
(382.939,535.16,o),
(556.965,535.16,cs),
(679.128,535.16,o),
(678.753,702.084,o),
(610.707,725.16,c),
(553.27,655.814,o),
(296.341,720.07,o),
(187.469,720.07,cs),
(57.597,720.07,o),
(35.004,663.355,o),
(35.004,537.358,c)
);
}
);
width = 631.59;
}
);
unicode = 84;
},
{
glyphname = U;
lastChange = "2023-06-01 19:54:20 +0000";
layers = (
{
layerId = "CDFC0212-EC7A-4000-86F8-EA19B9E6D7F9";
shapes = (
{
closed = 1;
nodes = (
(419.539,364.47,o),
(520.761,500,o),
(480.911,632.356,c),
(481.442,642.011,l),
(535.845,758.575,o),
(693.086,745.262,o),
(684.49,580.114,cs),
(679.308,480.558,o),
(590.597,308.397,o),
(584.977,201.083,cs),
(582.377,151.427,o),
(606.896,116.915,o),
(635.187,116.915,cs),
(650.109,116.915,o),
(666.637,126.516,o),
(681.932,148.562,c),
(689.613,144.532,l),
(684.994,56.309,o),
(608.864,-1.849,o),
(537.161,-1.849,cs),
(468.119,-1.849,o),
(403.181,52.074,o),
(410.141,185,cs)
);
},
{
closed = 1;
nodes = (
(56.053,-47.897,o),
(59.387,143.097,cs),
(61.208,247.432,o),
(114.465,387.009,o),
(119.514,483.438,cs),
(126.439,615.682,o),
(74.41,599.644,o),
(49.904,530.347,c),
(40.002,533.881,l),
(46.013,648.673,o),
(120.775,717.871,o),
(201.502,717.871,cs),
(464.049,717.871,o),
(164.636,171.986,o),
(289.846,171.986,cs),
(325.416,171.986,o),
(430.656,292.096,o),
(470.114,448.244,c),
(502.107,354.944,l),
(337.366,-111.434,o)
);
}
);
width = 699.61;
}
);
unicode = 85;
},
{
glyphname = V;
lastChange = "2023-06-01 17:05:26 +0000";
layers = (
{
layerId = "CDFC0212-EC7A-4000-86F8-EA19B9E6D7F9";
shapes = (
{
closed = 1;
nodes = (
(197.807,172.259,o),
(275.659,172.259,cs),
(378.464,172.259,o),
(518.811,407.758,o),
(466.167,665.737,c),
(466.167,671.284,l),
(489.846,719.235,o),
(674.498,788.763,o),
(674.498,611.722,cs),
(674.498,249.442,o),
(392.611,0.571,o),
(206.703,0.571,cs),
(-67.704,0.571,o),
(132.365,329.554,o),
(132.365,533.962,cs),
(132.365,593.625,o),
(64.505,600.549,o),
(50.443,529.483,c),
(39.997,532.918,l),
(39.997,766.347,o),
(320.03,784.229,o),
(320.03,576,cs),
(320.03,405.148,o)
);
}
);
width = 684.5;
},
{
associatedMasterId = "CDFC0212-EC7A-4000-86F8-EA19B9E6D7F9";
layerId = "08CD9246-367E-49F3-829E-C59A9C4233D0";
name = "Jun 1, 23, 13:05";
shapes = (
{
closed = 1;
nodes = (
(197.807,142.259,o),
(275.659,142.259,cs),
(378.464,142.259,o),
(518.811,407.758,o),
(466.167,665.737,c),
(466.167,671.284,l),
(489.846,719.235,o),
(674.498,788.763,o),
(674.498,611.722,cs),
(674.498,249.442,o),
(392.611,0.571,o),
(206.703,0.571,cs),
(-67.704,0.571,o),
(132.365,329.554,o),
(132.365,533.962,cs),
(132.365,593.625,o),
(64.505,600.549,o),
(50.443,529.483,c),
(39.997,532.918,l),
(39.997,766.347,o),
(320.03,784.229,o),
(320.03,576,cs),
(320.03,405.148,o)
);
}
);
width = 684.5;
}
);
unicode = 86;
},
{
glyphname = W;
lastChange = "2023-06-01 19:58:59 +0000";
layers = (
{
layerId = "CDFC0212-EC7A-4000-86F8-EA19B9E6D7F9";
shapes = (
{
closed = 1;
nodes = (
(75.5,-35.03,o),
(339.842,-110.734,o),
(484.025,288.359,c),
(458.664,272.155,l),
(470.697,127.19,o),
(514.813,0.571,o),
(630.555,0.571,cs),
(785.374,0.571,o),
(995.836,229.442,o),
(977.961,570.802,cs),
(967.793,764.97,o),
(819.616,765.235,o),
(757.87,639.284,c),
(758.412,633.737,l),
(842.902,375.378,o),
(722.942,172.298,o),
(646.782,172.298,cs),
(604.09,172.298,o),
(569.592,237.534,o),
(574.137,352.736,c),
(799.641,686.555,o),
(399.734,891.981,o),
(448.195,392.29,c),
(406.354,269.239,o),
(315.302,171.986,o),
(285.941,171.986,cs),
(167.745,171.986,o),
(483.339,717.871,o),
(195.165,717.871,cs),
(118.961,717.871,o),
(39.662,646.673,o),
(39.999,531.881,c),
(49.531,528.347,l),
(61.481,570.802,o),
(86.031,581.81,o),
(102.068,581.81,cs),
(181.029,581.81,o),
(62.61,277.15,o),
(67.65,155.097,cs)
);
}
);
width = 999.03;
},
{
associatedMasterId = "CDFC0212-EC7A-4000-86F8-EA19B9E6D7F9";
layerId = "868216F6-8DA8-4A81-BA5E-122549253967";
name = "Jun 1, 23, 12:17";
shapes = (
{
closed = 1;
nodes = (
(529.83,533.271,l),
(529.83,281.173,o),
(386.756,195.377,o),
(322.042,195.377,cs),
(230.019,195.377,o),
(329.771,471.67,o),
(329.771,578.715,cs),
(329.771,676.058,o),
(255.225,720.308,o),
(192.258,720.308,cs),
(115.378,720.308,o),
(50.002,654.339,o),
(50.002,538.498,c),
(59.287,535.027,l),
(80.616,593.441,o),
(133.935,595.539,o),
(133.935,528.155,cs),
(133.935,461.329,o),
(85.353,301.328,o),
(85.353,179.192,cs),
(85.353,59.053,o),
(137.585,0.041,o),
(233.063,0.041,cs),
(338.083,0.041,o),
(439.638,106.965,o),
(529.83,242.839,c),
(582.588,273.929,o),
(645.937,400.949,o),
(645.937,542.913,cs),
(645.937,625.605,o),
(628.581,682.014,o),
(565.564,682.014,cs),
(470.653,682.014,o),
(388.922,556.836,o),
(452.362,183.588,c),
(570.521,260.287,l)
);
},
{
closed = 1;
nodes = (
(496.879,260.287,l),
(452.599,194.986,l),
(472.599,86.069,o),
(564.81,0.231,o),
(679.305,0.231,cs),
(825.077,0.231,o),
(990.759,138.13,o),
(990.759,531.192,cs),
(990.759,644.444,o),
(942.811,725.578,o),
(894.153,725.578,cs),
(841.518,725.578,o),
(791.134,684.255,o),
(772.277,647.247,c),
(772.277,639.419,l),
(792.388,599.821,o),
(802.312,562.874,o),
(802.312,482.036,cs),
(802.312,240.734,o),
(725.03,195.969,o),
(669.834,195.969,cs),
(630.805,195.969,o),
(573.352,244.908,o),
(574.019,311.636,c)
);
}
);
width = 1035.76;
},
{
associatedMasterId = "CDFC0212-EC7A-4000-86F8-EA19B9E6D7F9";
layerId = "E37BF361-0D49-4D06-83CD-9C936FC3680E";
name = "Jun 1, 23, 12:48";
shapes = (
{
closed = 1;
nodes = (
(59.287,535.027,l),
(80.616,593.441,o),
(133.935,595.539,o),
(133.935,528.155,cs),
(133.935,461.329,o),
(85.353,301.328,o),
(85.353,179.192,cs),
(85.353,59.053,o),
(137.585,0.041,o),
(233.063,0.041,cs),
(321.789,0.041,o),
(473.212,125.424,o),
(517.059,291.977,c),
(443.406,311.765,l),
(443.406,122.595,o),
(565.93,0.414,o),
(695.04,0.414,cs),
(838.816,0.414,o),
(990.759,151.932,o),
(990.759,531.192,cs),
(990.759,644.444,o),
(942.811,725.578,o),
(894.153,725.578,cs),
(841.518,725.578,o),
(791.134,684.255,o),
(772.277,647.247,c),
(772.277,639.419,l),
(792.388,599.821,o),
(802.312,562.874,o),
(802.312,482.036,cs),
(802.312,240.734,o),
(725.03,195.969,o),
(669.834,195.969,cs),
(634.996,195.969,o),
(585.48,254.961,o),
(575.72,310.792,c),
(613.502,367.4,o),
(645.937,461.331,o),
(645.937,562.913,cs),
(645.937,645.605,o),
(628.581,702.014,o),
(565.564,702.014,cs),
(477.38,702.014,o),
(400.575,593.953,o),
(441.013,279.264,c),
(399.266,213.594,o),
(352.165,195.377,o),
(322.042,195.377,cs),
(230.019,195.377,o),
(329.771,471.67,o),
(329.771,578.715,cs),
(329.771,676.058,o),
(255.225,720.308,o),
(192.258,720.308,cs),
(115.378,720.308,o),
(50.002,654.339,o),
(50.002,538.498,c)
);
}
);
width = 1035.76;
},
{
associatedMasterId = "CDFC0212-EC7A-4000-86F8-EA19B9E6D7F9";
layerId = "C1619F0F-6E47-4287-86E8-AD3FD3EC2B7B";
name = "Jun 1, 23, 12:49";
shapes = (
{
closed = 1;
nodes = (
(434.073,343.926,l),
(435.808,323.414,o),
(438.108,301.873,o),
(441.013,279.264,c),
(399.266,213.594,o),
(352.165,195.377,o),
(322.042,195.377,cs),
(230.019,195.377,o),
(329.771,471.67,o),
(329.771,578.715,cs),
(329.771,676.058,o),
(255.225,720.308,o),
(192.258,720.308,cs),
(115.378,720.308,o),
(50.002,654.339,o),
(50.002,538.498,c),
(59.287,535.027,l),
(80.616,593.441,o),
(133.935,595.539,o),
(133.935,528.155,cs),
(133.935,461.329,o),
(85.353,301.328,o),
(85.353,179.192,cs),
(85.353,59.053,o),
(137.585,0.041,o),
(233.063,0.041,cs),
(321.789,0.041,o),
(473.212,125.424,o),
(517.059,291.977,c),
(443.406,311.765,l),
(443.406,239.406,o),
(461.333,176.849,o),
(490.698,127.181,c),
(611.882,234.272,l),
(594.602,255.766,o),
(580.464,283.652,o),
(575.72,310.792,c),
(582.234,320.552,o),
(588.589,331.421,o),
(594.646,343.248,c)
);
},
{
closed = 1;
nodes = (
(721.03,576,cs),
(721.03,784.229,o),
(440.997,766.347,o),
(440.997,532.918,c),
(451.443,529.483,l),
(465.505,600.549,o),
(533.365,593.625,o),
(533.365,533.962,cs),
(533.365,329.554,o),
(333.296,0.571,o),
(607.703,0.571,cs),
(793.611,0.571,o),
(1075.498,249.442,o),
(1075.498,611.722,cs),
(1075.498,788.763,o),
(890.846,719.235,o),
(867.167,671.284,c),
(867.167,665.737,l),
(919.811,407.758,o),
(779.464,142.259,o),
(676.659,142.259,cs),
(598.807,142.259,o),
(721.03,405.148,o)
);
}
);
width = 1035.76;
},
{
associatedMasterId = "CDFC0212-EC7A-4000-86F8-EA19B9E6D7F9";
layerId = "D0A8102F-D5BC-42E8-80C1-0FD5216F75B2";
name = "Jun 1, 23, 13:10";
shapes = (
{
closed = 1;
nodes = (
(544.747,502.655,l),
(503,180.05,o),
(372.165,171.996,o),
(342.042,171.996,cs),
(173.283,171.996,o),
(547.861,720.16,o),
(258.063,720.16,cs),
(173.283,720.16,o),
(90.002,651.986,o),
(90.002,535.498,c),
(99.287,532.027,l),
(120.616,590.441,o),
(173.935,611.539,o),
(173.935,544.155,cs),
(173.935,477.329,o),
(95.353,301.328,o),
(95.353,179.192,cs),
(95.353,59.053,o),
(157.585,0.041,o),
(253.063,0.041,cs),
(341.789,0.041,o),
(531.039,74.775,o),
(574.886,361.328,c)
);
},
{
closed = 1;
nodes = (
(870.082,560.907,o),
(761.077,702.293,o),
(674.777,702.293,cs),
(575.989,702.293,o),
(510.025,630,o),
(510.025,233.657,c),
(562.109,203.112,l)
);
},
{
closed = 1;
nodes = (
(536.466,555.471,l),
(488.239,353.46,o),
(462.842,0.571,o),
(690.191,0.571,cs),
(853.611,0.571,o),
(1135.498,229.442,o),
(1135.498,611.722,cs),
(1135.498,788.763,o),
(950.846,719.235,o),
(927.167,671.284,c),
(927.167,665.737,l),
(979.811,387.758,o),
(809.464,172.259,o),
(702.239,172.259,cs),
(626.856,172.259,o),
(650.311,372.006,o),
(698.606,553.288,c)
);
}
);
width = 1135.5;
},
{
associatedMasterId = "CDFC0212-EC7A-4000-86F8-EA19B9E6D7F9";
layerId = "C8CDA11F-6174-448D-8478-6DAE8C0769A7";
name = "Jun 1, 23, 13:15";
shapes = (
{
closed = 1;
nodes = (
(469.301,502.655,l),
(446.487,180.05,o),
(326.776,171.996,o),
(299.126,171.996,cs),
(144.218,171.996,o),
(481.703,720.16,o),
(195.69,720.16,cs),
(117.869,720.16,o),
(44.699,651.986,o),
(50.299,535.498,c),
(58.988,532.027,l),
(75.759,590.441,o),
(123.687,611.539,o),
(126.927,544.155,cs),
(130.139,477.329,o),
(66.467,301.328,o),
(72.337,179.192,cs),
(78.112,59.053,o),
(138.073,0.041,o),
(225.715,0.041,cs),
(307.159,0.041,o),
(477.284,74.775,o),
(503.759,361.328,c)
);
},
{
closed = 1;
nodes = (
(765.134,560.907,o),
(658.279,702.293,o),
(579.062,702.293,cs),
(488.382,702.293,o),
(431.307,630,o),
(450.358,233.657,c),
(499.636,203.112,l)
);
},
{
closed = 1;
nodes = (
(459.161,555.471,l),
(424.602,353.46,o),
(418.251,0.571,o),
(626.941,0.571,cs),
(776.949,0.571,o),
(1024.699,229.442,o),
(1006.324,611.722,cs),
(997.814,788.763,o),
(831.659,719.235,o),
(812.228,671.284,c),
(812.495,665.737,l),
(864.18,387.758,o),
(728.172,172.259,o),
(629.747,172.259,cs),
(560.551,172.259,o),
(572.48,372.006,o),
(608.097,553.288,c)
);
}
);
width = 1057.29;
},
{
associatedMasterId = "CDFC0212-EC7A-4000-86F8-EA19B9E6D7F9";
layerId = "31A6215F-663F-4E4F-863A-D1A7285E5E7B";
name = "Jun 1, 23, 14:21";
shapes = (
{
closed = 1;
nodes = (
(932.183,678.294,o),
(351.13,984.499,o),
(478.703,233.657,c),
(506.34,263.112,l)
);
},
{
closed = 1;
nodes = (
(487.012,555.471,l),
(454.389,353.46,o),
(429.515,0.571,o),
(622.737,0.571,cs),
(777.556,0.571,o),
(1000.004,229.442,o),
(1000.004,570.802,cs),
(1000.004,764.97,o),
(851.841,765.235,o),
(783.499,639.284,c),
(783.75,633.737,l),
(854.711,375.378,o),
(725.27,194.298,o),
(649.109,194.298,cs),
(587.306,194.298,o),
(547.419,284.907,o),
(627.605,553.288,c)
);
},
{
closed = 1;
nodes = (
(493.569,293.944,c),
(478.472,448.244,l),
(441.225,292.096,o),
(321.881,194.986,o),
(288.304,194.986,cs),
(170.109,194.986,o),
(493.083,717.871,o),
(204.909,717.871,cs),
(128.705,717.871,o),
(45.678,646.673,o),
(40.004,531.881,c),
(49.351,528.347,l),
(63.523,570.802,o),
(88.65,581.81,o),
(104.687,581.81,cs),
(183.648,581.81,o),
(69.276,277.15,o),
(67.924,155.097,cs),
(65.809,-35.912,o),
(328.618,-111.434,o)
);
}
);
width = 1020;
}
);
unicode = 87;
},
{
glyphname = Y;
lastChange = "2023-06-01 19:49:50 +0000";
layers = (
{
layerId = "CDFC0212-EC7A-4000-86F8-EA19B9E6D7F9";
shapes = (
{
closed = 1;
nodes = (
(326.172,357.51,l),
(250.006,366.533,l),
(245.727,304.727,o),
(245.977,164.938,o),
(204.051,33.687,c),
(231.054,-2.164,o),
(329.208,-21.544,o),
(387.847,36.417,c),
(411.156,151.971,o),
(423.333,207.308,o),
(415.415,339.312,c)
);
},
{
closed = 1;
nodes = (
(406.828,282.508,l),
(406.828,440.118,o),
(326.213,719.871,o),
(171.502,719.871,cs),
(90.775,719.871,o),
(36.013,650.673,o),
(30.002,535.881,c),
(39.904,532.347,l),
(159.06,640.697,o),
(254.884,427.814,o),
(244.148,256.471,c)
);
},
{
closed = 1;
nodes = (
(458.408,474.859,o),
(599.453,571.046,o),
(694.556,518,c),
(772.962,758.27,o),
(422.347,880.283,o),
(367.242,317,c),
(413.145,317,l)
);
}
);
width = 705.93;
},
{
associatedMasterId = "CDFC0212-EC7A-4000-86F8-EA19B9E6D7F9";
layerId = "A25AAF2C-76F2-4094-943E-62D9CADC4CD7";
name = "Jun 1, 23, 15:48";
shapes = (
{
closed = 1;
nodes = (
(296.172,357.51,l),
(220.006,366.533,l),
(215.727,304.727,o),
(215.977,164.938,o),
(174.051,33.687,c),
(201.054,-2.164,o),
(299.208,-21.544,o),
(357.847,36.417,c),
(381.156,151.971,o),
(393.333,207.308,o),
(385.415,339.312,c)
);
},
{
closed = 1;
nodes = (
(376.828,282.508,l),
(376.828,440.118,o),
(296.213,717.871,o),
(141.502,717.871,cs),
(60.775,717.871,o),
(6.013,648.673,o),
(0.002,533.881,c),
(9.904,530.347,l),
(129.06,638.697,o),
(224.884,427.814,o),
(214.148,256.471,c)
);
},
{
closed = 1;
nodes = (
(428.408,474.859,o),
(559.453,585.046,o),
(654.556,532,c),
(621.247,821,o),
(358.361,800,o),
(337.242,317,c),
(383.145,317,l)
);
}
);
width = 719.38;
}
);
unicode = 89;
},
{
glyphname = Z;
lastChange = "2023-06-01 20:42:46 +0000";
layers = (
{
layerId = "CDFC0212-EC7A-4000-86F8-EA19B9E6D7F9";
shapes = (
{
closed = 1;
nodes = (
(435.668,194.502,o),
(381.821,436.479,o),
(621.177,551.959,cs),
(627.739,555.125,o),
(634.581,560.708,o),
(640.837,557.917,c),
(648.056,630.5,o),
(607.746,706.458,o),
(518.788,726,c),
(313.827,608.75,o),
(290.225,321.523,o),
(30.67,126.93,cs),
(25.848,123.315,o),
(19.299,121.919,o),
(14.998,121.919,c),
(52.652,29.794,o),
(110.488,-0.727,o),
(155.357,-0.914,c)
);
},
{
closed = 1;
nodes = (
(656.103,-24.644,o),
(699.682,276.627,o),
(462.929,276.627,c),
(496.484,208.597,o),
(487.145,104.482,o),
(417.576,104.482,cs),
(374.565,104.482,o),
(357.342,176.586,o),
(295.406,176.586,cs),
(267.449,176.586,o),
(234.594,152.627,o),
(190.225,102.377,c),
(182.617,24.211,l),
(216.528,63.294,o),
(243.309,77.252,o),
(264.815,77.252,cs),
(323.955,77.252,o),
(367.7,-24.644,o),
(458.023,-24.644,cs)
);
},
{
closed = 1;
nodes = (
(175.672,401.086,o),
(197.665,408.065,o),
(221.318,423.419,c),
(177.365,486.829,o),
(179.855,572.773,o),
(252.176,572.773,cs),
(288.735,572.773,o),
(337.323,544.857,o),
(381.52,484.836,c),
(434.097,544.857,l),
(357.14,674.669,o),
(280.688,719.336,o),
(216.172,719.336,cs),
(13.914,719.336,o),
(2.059,401.086,o),
(156.317,401.086,cs)
);
}
);
width = 656.66;
}
);
unicode = 90;
},
{
glyphname = a;
lastChange = "2023-05-25 17:57:55 +0000";
layers = (
{
background = {
shapes = (
{
closed = 1;
nodes = (
(362,160,l),
(308,-30,o),
(11,-72,o),
(11,150,cs),
(11,382,o),
(307,353,o),
(361,210,c)
);
},
{
closed = 1;
nodes = (
(338.716,170.032,l),
(292.716,266.032,o),
(172,240,o),
(172,160,cs),
(172,72,o),
(307.716,113.032,o),
(335.716,168.032,c)
);
},
{
closed = 1;
nodes = (
(188.752,288.168,l),
(41.478,469.818,o),
(610.671,692.497,o),
(516,245,cs),
(499.837,168.601,o),
(489,103,o),
(526,103,c),
(541,103,o),
(552,111,o),
(559,126,c),
(574,98,l),
(553.641,35.725,o),
(488.596,0.077,o),
(430.504,0.167,cs),
(376.216,0.252,o),
(328,31.295,o),
(328,108,cs),
(328,150,o),
(337.112,199.758,o),
(350,243,cs),
(418.978,474.445,o),
(155.897,458.005,o),
(254.481,288.168,c)
);
}
);
};
layerId = "CDFC0212-EC7A-4000-86F8-EA19B9E6D7F9";
shapes = (
{
closed = 1;
nodes = (
(536.658,52.761,o),
(459.222,-0.611,o),
(394.221,-0.611,cs),
(347.207,-0.611,o),
(306.699,27.309,o),
(306.699,97.463,cs),
(306.699,189.869,o),
(361.436,333.436,o),
(368.497,462.227,c),
(368.497,502.728,o),
(514.88,527.944,o),
(540.405,453.424,c),
(542.405,447.424,l),
(510.324,373.733,o),
(473.692,241.231,o),
(473.692,146.418,cs),
(473.692,92.694,o),
(509.344,91.323,o),
(529.424,125.837,c),
(536.658,121.671,l)
);
},
{
closed = 1;
nodes = (
(352.154,326.944,l),
(283.699,490.797,o),
(187.08,344.138,o),
(187.078,231.485,cs),
(187.075,53.023,o),
(299.312,104.069,o),
(349.873,328.101,c),
(359.958,295.901,l),
(332.453,88.696,o),
(244.431,-0.497,o),
(166.215,-0.497,cs),
(93.907,-0.497,o),
(29.98,75.733,o),
(29.997,205.424,cs),
(30.023,391.777,o),
(148.289,500,o),
(245.048,500,cs),
(309.629,500,o),
(364.629,451.788,o),
(368.497,346.42,c)
);
}
);
width = 564.4;
},
{
associatedMasterId = "CDFC0212-EC7A-4000-86F8-EA19B9E6D7F9";
background = {
shapes = (
{
closed = 1;
nodes = (
(381.91,160,l),
(327.91,-30,o),
(30.91,-72,o),
(30.91,150,cs),
(30.91,382,o),
(326.91,353,o),
(380.91,210,c)
);
},
{
closed = 1;
nodes = (
(358.626,170.032,l),
(312.626,266.032,o),
(191.91,240,o),
(191.91,160,cs),
(191.91,72,o),
(327.626,113.032,o),
(355.626,168.032,c)
);
},
{
closed = 1;
nodes = (
(208.662,288.168,l),
(61.388,469.818,o),
(630.581,692.497,o),
(535.91,245,cs),
(519.747,168.601,o),
(508.91,103,o),
(545.91,103,c),
(560.91,103,o),
(571.91,111,o),
(578.91,126,c),
(593.91,98,l),
(573.551,35.725,o),
(508.506,0.077,o),
(450.414,0.167,cs),
(396.126,0.252,o),
(347.91,31.295,o),
(347.91,108,cs),
(347.91,150,o),
(357.022,199.758,o),
(369.91,243,cs),
(438.888,474.445,o),
(175.807,458.005,o),
(274.391,288.168,c)
);
}
);
};
layerId = "B38D7E12-DD42-4464-92FF-0C47887069B2";
name = "May 24, 23, 13:29";
shapes = (
{
closed = 1;
nodes = (
(556.568,52.761,o),
(479.132,-0.611,o),
(414.131,-0.611,cs),
(367.117,-0.611,o),
(326.609,27.309,o),
(326.609,97.463,cs),
(326.609,189.869,o),
(381.346,333.436,o),
(388.407,462.227,c),
(388.407,502.728,o),
(534.79,527.944,o),
(560.315,453.424,c),
(562.315,447.424,l),
(530.234,373.733,o),
(493.602,241.231,o),
(493.602,146.418,cs),
(493.602,92.694,o),
(529.254,91.323,o),
(549.334,125.837,c),
(556.568,121.671,l)
);
},
{
closed = 1;
nodes = (
(371.827,331.687,l),
(302.381,497.914,o),
(204.362,349.13,o),
(204.36,234.845,cs),
(204.357,53.798,o),
(318.22,105.584,o),
(369.513,332.861,c),
(379.744,300.195,l),
(351.841,89.988,o),
(262.544,-0.497,o),
(183.195,-0.497,cs),
(109.839,-0.497,o),
(44.986,76.837,o),
(45.004,208.407,cs),
(45.048,523.641,o),
(378.603,618.496,o),
(388.407,351.445,c)
);
}
);
width = 584.31;
},
{
associatedMasterId = "CDFC0212-EC7A-4000-86F8-EA19B9E6D7F9";
background = {
shapes = (
{
closed = 1;
nodes = (
(381.91,160,l),
(327.91,-30,o),
(30.91,-72,o),
(30.91,150,cs),
(30.91,382,o),
(326.91,353,o),
(380.91,210,c)
);
},
{
closed = 1;
nodes = (
(358.626,170.032,l),
(312.626,266.032,o),
(191.91,240,o),
(191.91,160,cs),
(191.91,72,o),
(327.626,113.032,o),
(355.626,168.032,c)
);
},
{
closed = 1;
nodes = (
(208.662,288.168,l),
(61.388,469.818,o),
(630.581,692.497,o),
(535.91,245,cs),
(519.747,168.601,o),
(508.91,103,o),
(545.91,103,c),
(560.91,103,o),
(571.91,111,o),
(578.91,126,c),
(593.91,98,l),
(573.551,35.725,o),
(508.506,0.077,o),
(450.414,0.167,cs),
(396.126,0.252,o),
(347.91,31.295,o),
(347.91,108,cs),
(347.91,150,o),
(357.022,199.758,o),
(369.91,243,cs),
(438.888,474.445,o),
(175.807,458.005,o),
(274.391,288.168,c)
);
}
);
};
layerId = "E0872DD6-68B9-46FB-8352-459E48145BDD";
name = "May 24, 23, 13:36";
shapes = (
{
closed = 1;
nodes = (
(403.076,326.323,l),
(382.992,390.684,o),
(348.125,420.785,o),
(313.256,420.785,cs),
(243.012,420.785,o),
(205.267,309.754,o),
(205.267,224.385,cs),
(205.267,171.068,o),
(219.989,127.76,o),
(250.712,127.76,cs),
(284.105,127.76,o),
(334.439,205.561,o),
(371.25,342.06,c),
(374.621,241.543,l),
(341.381,90.999,o),
(260.741,0.105,o),
(182.669,0.194,cs),
(85.348,0.305,o),
(40.002,86.223,o),
(40.002,187.17,cs),
(40.002,331.047,o),
(132.119,505.452,o),
(297.157,505.452,cs),
(364.33,505.452,o),
(424.431,469.318,o),
(447.316,395.109,c)
);
},
{
closed = 1;
nodes = (
(479.132,-0.611,o),
(414.131,-0.611,cs),
(367.117,-0.611,o),
(326.609,27.309,o),
(326.609,97.463,cs),
(326.609,189.869,o),
(381.346,333.436,o),
(388.407,462.227,c),
(388.407,502.728,o),
(534.79,527.944,o),
(560.315,453.424,c),
(562.315,447.424,l),
(530.234,373.733,o),
(493.602,241.231,o),
(493.602,146.418,cs),
(493.602,92.694,o),
(529.254,91.323,o),
(549.334,125.837,c),
(556.568,121.671,l),
(556.568,52.761,o)
);
}
);
width = 584.31;
}
);
unicode = 97;
},
{
glyphname = b;
lastChange = "2023-05-25 15:45:30 +0000";
layers = (
{
associatedMasterId = "CDFC0212-EC7A-4000-86F8-EA19B9E6D7F9";
layerId = "2FBC8488-6FEF-48ED-AD63-D5282019F019";
name = "May 24, 23, 19:56";
shapes = (
{
closed = 1;
nodes = (
(215.074,205.365,l),
(216.876,136.958,o),
(248.932,101.192,o),
(284.776,101.192,cs),
(350.959,101.192,o),
(386.746,206.659,o),
(386.746,289.947,cs),
(386.746,344.291,o),
(371.51,389.192,o),
(339.54,389.192,cs),
(302.361,389.192,o),
(246.489,316.102,o),
(220.451,151.628,c),
(173.496,188.272,l),
(242.38,556.339,o),
(548.12,605.691,o),
(548.12,299.513,cs),
(548.12,160.714,o),
(473.025,-0.105,o),
(332.387,-0.105,cs),
(253.316,-0.105,o),
(182.963,60.783,o),
(183.614,176.385,c)
);
},
{
closed = 1;
nodes = (
(288,528.127,o),
(270.73,413.695,o),
(255.114,331.297,c),
(216.201,139.181,l),
(210.549,139.17,o),
(209.257,133.496,o),
(209.257,124.807,cs),
(209.257,117.483,o),
(210.175,108.017,o),
(210.175,97.994,cs),
(210.175,69.018,o),
(202.501,35.385,o),
(142.786,35.385,cs),
(92.753,35.385,o),
(51.066,49.993,o),
(55.6,81.576,cs),
(70.6,186.06,o),
(125,446.957,o),
(125,558,cs),
(125,610.819,o),
(80.505,591.142,o),
(54,555,c),
(35,575,l),
(62.295,653.874,o),
(132.882,699.628,o),
(192.582,699.628,cs),
(244.391,699.628,o),
(288,665.17,o),
(288,588,c)
);
}
);
width = 573.12;
},
{
layerId = "CDFC0212-EC7A-4000-86F8-EA19B9E6D7F9";
name = Regular;
shapes = (
{
closed = 1;
nodes = (
(171.474,205.365,l),
(173.276,136.958,o),
(205.332,101.192,o),
(241.176,101.192,cs),
(307.359,101.192,o),
(343.146,197.659,o),
(343.146,280.947,cs),
(343.146,335.291,o),
(327.91,396.192,o),
(295.94,396.192,cs),
(258.761,396.192,o),
(202.889,316.102,o),
(176.851,151.628,c),
(129.896,158.272,l),
(198.78,550.339,o),
(504.52,612.691,o),
(504.52,299.513,cs),
(504.52,160.714,o),
(429.425,-0.105,o),
(288.787,-0.105,cs),
(209.716,-0.105,o),
(139.363,60.783,o),
(140.014,176.385,c)
);
},
{
closed = 1;
nodes = (
(25,201.443,o),
(118.3,566.53,o),
(69.4,645,c),
(69.4,651,l),
(142.4,733,o),
(247.4,712,o),
(247.4,600,cs),
(247.4,526.798,o),
(227.983,397.588,o),
(207.809,317.457,c),
(172.601,139.181,l),
(166.949,139.17,o),
(165.657,133.496,o),
(165.657,124.807,cs),
(165.657,117.483,o),
(166.575,108.017,o),
(166.575,80.994,cs),
(166.575,52.018,o),
(158.901,18.385,o),
(99.186,18.385,cs),
(49.153,18.385,o),
(25,49.669,o),
(25,64.576,cs)
);
}
);
width = 529.52;
}
);
unicode = 98;
},
{
glyphname = c;
lastChange = "2023-05-25 18:47:26 +0000";
layers = (
{
associatedMasterId = "CDFC0212-EC7A-4000-86F8-EA19B9E6D7F9";
layerId = "63C5EAEA-0896-4C8C-AD05-D769F2488A99";
name = "May 24, 23, 19:45";
shapes = (
{
closed = 1;
nodes = (
(533.687,313.793,o),
(546.319,507,o),
(345.553,507,cs),
(-11.53,507,o),
(-86.972,-4.516,o),
(258.112,-4.516,cs),
(337.469,-4.516,o),
(423.079,31.016,o),
(487.524,109,c),
(465.302,141.659,l),
(445.585,121.239,o),
(386.334,92.871,o),
(330.312,92.871,cs),
(270.282,92.871,o),
(213.96,125.444,o),
(213.96,235.27,cs),
(213.96,357.357,o),
(272.641,424.16,o),
(314.702,424.16,cs),
(366.647,424.16,o),
(360.193,363.908,o),
(346.529,313.793,c)
);
}
);
width = 511.55;
},
{
layerId = "CDFC0212-EC7A-4000-86F8-EA19B9E6D7F9";
name = Regular;
shapes = (
{
closed = 1;
nodes = (
(518.687,313.793,o),
(531.319,507,o),
(330.553,507,cs),
(-26.53,507,o),
(-101.972,-4.516,o),
(243.112,-4.516,cs),
(322.469,-4.516,o),
(464.816,50.687,o),
(464.816,189.328,c),
(455.01,193.331,l),
(431.937,142.029,o),
(374.834,112.168,o),
(320.395,112.168,cs),
(257.923,112.168,o),
(198.96,151.492,o),
(198.96,242.868,cs),
(198.96,364.955,o),
(257.641,424.16,o),
(299.702,424.16,cs),
(351.647,424.16,o),
(345.193,363.908,o),
(331.529,313.793,c)
);
}
);
width = 496.55;
}
);
unicode = 99;
},
{
glyphname = d;
lastChange = "2023-05-25 15:44:49 +0000";
layers = (
{
background = {
shapes = (
{
closed = 1;
nodes = (
(353.825,354.581,o),
(412.01,555.966,o),
(375.39,617,c),
(375.39,623,l),
(448.39,705,o),
(566.39,684,o),
(566.39,572,cs),
(566.39,450.833,o),
(441.537,98.503,o),
(521.248,98.503,cs),
(532.549,98.503,o),
(545.794,108.394,o),
(558.39,126,c),
(573.39,98,l),
(554.935,41.55,o),
(489.15,0.26,o),
(429.626,0.257,cs),
(319.418,0.253,o),
(314.918,124.382,o),
(328.509,204.794,cs)
);
},
{
closed = 1;
nodes = (
(353.93,335.02,l),
(286.381,496.914,o),
(188.362,348.13,o),
(188.36,233.845,cs),
(188.357,52.798,o),
(302.22,104.584,o),
(353.513,331.861,c),
(367.39,226.794,l),
(334.15,76.25,o),
(245.831,0.105,o),
(167.759,0.194,cs),
(93.77,0.278,o),
(28.985,68.829,o),
(29.004,207.407,cs),
(29.024,347.649,o),
(106.144,507.185,o),
(249.91,507.191,cs),
(305.927,507.194,o),
(367.896,471.019,o),
(385.39,384,c)
);
}
);
};
layerId = "CDFC0212-EC7A-4000-86F8-EA19B9E6D7F9";
shapes = (
{
closed = 1;
nodes = (
(353.825,354.581,o),
(413.01,583.966,o),
(376.39,645,c),
(376.39,651,l),
(449.39,733,o),
(567.39,712,o),
(567.39,600,cs),
(567.39,528.676,o),
(445.744,102.449,o),
(525.068,102.449,cs),
(539.938,102.449,o),
(555.715,113.825,o),
(560.796,126.908,c),
(567.984,122.092,l),
(567.984,55.55,o),
(489.15,0.26,o),
(429.626,0.257,cs),
(319.418,0.253,o),
(314.918,124.382,o),
(328.509,204.794,cs)
);
},
{
closed = 1;
nodes = (
(356.827,331.687,l),
(287.381,497.914,o),
(189.362,349.13,o),
(189.36,234.845,cs),
(189.357,53.798,o),
(303.22,105.584,o),
(354.513,332.861,c),
(364.744,300.195,l),
(336.841,89.988,o),
(247.544,-0.497,o),
(168.195,-0.497,cs),
(94.839,-0.497,o),
(29.986,76.837,o),
(30.004,208.407,cs),
(30.03,397.459,o),
(150.009,507.249,o),
(248.169,507.249,cs),
(313.686,507.249,o),
(369.483,458.34,o),
(373.407,351.445,c)
);
}
);
width = 582.98;
}
);
unicode = 100;
},
{
glyphname = e;
lastChange = "2023-06-01 16:36:54 +0000";
layers = (
{
background = {
shapes = (
{
closed = 1;
nodes = (
(125.253,507,o),
(20.857,349.48,o),
(20.744,209.012,cs),
(20.627,63.825,o),
(119.449,-4.541,o),
(230.294,-4.597,cs),
(313.063,-4.638,o),
(402.535,33.408,o),
(462.524,106,c),
(440.302,138.659,l),
(437.402,129.841,o),
(369.186,88.344,o),
(306.022,88.436,cs),
(250.542,88.518,o),
(198.96,120.686,o),
(198.96,235.27,cs),
(198.96,348.007,o),
(246.75,415.051,o),
(283.68,415.014,cs),
(351.149,414.947,o),
(366.991,165.871,o),
(115.72,278.752,c),
(116.088,230.197,l),
(453.919,23.727,o),
(611.401,507,o),
(310.553,507,cs)
);
}
);
};
layerId = "CDFC0212-EC7A-4000-86F8-EA19B9E6D7F9";
name = Regular;
shapes = (
{
closed = 1;
nodes = (
(291.271,196.759,o),
(351.596,312.244,o),
(351.596,366.471,cs),
(351.596,398.513,o),
(334.027,423.133,o),
(309.06,423.133,cs),
(262.821,423.133,o),
(201.96,383.29,o),
(201.96,242.868,cs),
(201.96,148.053,o),
(252.498,113.131,o),
(310.523,113.131,cs),
(370.775,113.131,o),
(439.101,150.706,o),
(467.302,193.659,c),
(474.228,188.963,l),
(474.228,50.687,o),
(344.519,-3.456,o),
(248.28,-3.456,cs),
(-106.12,-3.456,o),
(-24.847,507,o),
(333.553,507,cs),
(440.772,507,o),
(492.803,446.005,o),
(492.803,376.274,cs),
(492.803,223.64,o),
(294.029,118.046,o),
(152.954,269.801,c),
(151.309,313.394,l)
);
}
);
width = 517.8;
},
{
associatedMasterId = "CDFC0212-EC7A-4000-86F8-EA19B9E6D7F9";
background = {
shapes = (
{
closed = 1;
nodes = (
(140.253,507,o),
(35.857,349.48,o),
(35.744,209.012,cs),
(35.627,63.825,o),
(134.449,-4.541,o),
(245.294,-4.597,cs),
(328.063,-4.638,o),
(417.535,33.408,o),
(477.524,106,c),
(455.302,138.659,l),
(452.402,129.841,o),
(384.186,88.344,o),
(321.022,88.436,cs),
(265.542,88.518,o),
(213.96,120.686,o),
(213.96,235.27,cs),
(213.96,348.007,o),
(261.75,415.051,o),
(298.68,415.014,cs),
(366.149,414.947,o),
(381.991,165.871,o),
(130.72,278.752,c),
(131.088,230.197,l),
(468.919,23.727,o),
(626.401,507,o),
(325.553,507,cs)
);
}
);
};
layerId = "AA4A2CC7-01E9-4C40-A9F2-ED0EBF682B93";
name = "May 25, 23, 11:30";
shapes = (
{
closed = 1;
nodes = (
(316.271,236.759,o),
(366.596,312.244,o),
(366.596,366.471,cs),
(366.596,398.513,o),
(349.027,423.133,o),
(324.06,423.133,cs),
(277.821,423.133,o),
(216.96,383.29,o),
(216.96,242.868,cs),
(216.96,148.053,o),
(267.498,113.131,o),
(325.523,113.131,cs),
(385.775,113.131,o),
(454.101,150.706,o),
(482.302,193.659,c),
(489.228,188.963,l),
(489.228,50.687,o),
(359.519,-3.456,o),
(263.28,-3.456,cs),
(-91.12,-3.456,o),
(-9.847,507,o),
(348.553,507,cs),
(455.772,507,o),
(507.803,446.005,o),
(507.803,376.274,cs),
(507.803,283.233,o),
(415.17,174.64,o),
(237.406,174.64,cs),
(215.539,174.64,o),
(192.384,176.283,o),
(167.954,179.801,c),
(166.309,223.394,l)
);
}
);
width = 542.8;
},
{
associatedMasterId = "CDFC0212-EC7A-4000-86F8-EA19B9E6D7F9";
background = {
shapes = (
{
closed = 1;
nodes = (
(140.253,507,o),
(35.857,349.48,o),
(35.744,209.012,cs),
(35.627,63.825,o),
(134.449,-4.541,o),
(245.294,-4.597,cs),
(328.063,-4.638,o),
(417.535,33.408,o),
(477.524,106,c),
(455.302,138.659,l),
(452.402,129.841,o),
(384.186,88.344,o),
(321.022,88.436,cs),
(265.542,88.518,o),
(213.96,120.686,o),
(213.96,235.27,cs),
(213.96,348.007,o),
(261.75,415.051,o),
(298.68,415.014,cs),
(366.149,414.947,o),
(381.991,165.871,o),
(130.72,278.752,c),
(131.088,230.197,l),
(468.919,23.727,o),
(626.401,507,o),
(325.553,507,cs)
);
}
);
};
layerId = "651A776C-A8FC-4BB3-B30F-95B8C2704774";
name = "May 24, 23, 19:40";
shapes = (
{
closed = 1;
nodes = (
(316.271,236.759,o),
(366.596,312.244,o),
(366.596,366.471,cs),
(366.596,398.513,o),
(349.027,423.133,o),
(324.06,423.133,cs),
(277.821,423.133,o),
(216.96,375.692,o),
(216.96,235.27,cs),
(216.96,125.616,o),
(273.789,93.249,o),
(335.469,93.249,cs),
(397.385,93.249,o),
(464.189,125.864,o),
(483.302,145.659,c),
(505.524,113,l),
(440.939,34.847,o),
(348.548,-3.456,o),
(263.28,-3.456,cs),
(-91.12,-3.456,o),
(-9.847,507,o),
(348.553,507,cs),
(455.772,507,o),
(507.803,446.005,o),
(507.803,376.274,cs),
(507.803,283.233,o),
(415.17,174.64,o),
(237.406,174.64,cs),
(215.539,174.64,o),
(192.384,176.283,o),
(167.954,179.801,c),
(166.309,223.394,l)
);
}
);
width = 542.8;
}
);
unicode = 101;
},
{
color = 0;
glyphname = f;
lastChange = "2023-06-01 16:36:58 +0000";
layers = (
{
layerId = "CDFC0212-EC7A-4000-86F8-EA19B9E6D7F9";
name = Regular;
shapes = (
{
closed = 1;
nodes = (
(160,-13,o),
(190,-6,o),
(211,9,c),
(243,107,o),
(250,228,o),
(250,330,cs),
(250,416,o),
(245,496,o),
(245,557,cs),
(245,625,o),
(255.849,667.338,o),
(278.493,667.338,cs),
(307.234,667.338,o),
(311.022,580.781,o),
(289.875,535.542,c),
(432.644,536.158,o),
(460.279,720,o),
(277.509,720,cs),
(61.047,720,o),
(148,356,o),
(40,29,c),
(53,1,o),
(91,-13,o),
(131,-13,cs)
);
},
{
closed = 1;
nodes = (
(77,413,o),
(112,419,o),
(166,419,cs),
(205,419,o),
(254,415,o),
(323.185,407.905,c),
(331,427,o),
(338,452,o),
(338,474,cs),
(338,483,o),
(336,492,o),
(333.616,499.905,c),
(297,503,o),
(265,505,o),
(237,505,cs),
(141,505,o),
(90,483,o),
(30.001,411.22,c),
(32.293,403.59,l)
);
}
);
width = 345.84;
},
{
associatedMasterId = "CDFC0212-EC7A-4000-86F8-EA19B9E6D7F9";
layerId = "15B0D16C-E193-47BD-BBB4-D0195F04BE99";
name = "{LONG}May 24, 23, 15:07";
shapes = (
{
closed = 1;
nodes = (
(435.136,720,o),
(446.033,536.643,o),
(269.875,536.643,c),
(299.357,599.112,o),
(304.828,668.285,o),
(278.493,668.285,cs),
(197.876,668.285,o),
(278.694,244.881,o),
(181.162,-178.08,c),
(130.756,-212.504,o),
(32.996,-207.484,o),
(9.996,-157.512,c),
(128.214,318.808,o),
(61.047,720,o),
(277.509,720,cs)
);
},
{
closed = 1;
nodes = (
(30.001,411.22,l),
(107.901,504.266,o),
(169.666,512.905,o),
(333.616,499.905,c),
(343.139,472.572,o),
(333.662,435.238,o),
(323.185,407.905,c),
(159.235,425.905,o),
(109.017,419.266,o),
(32.293,403.59,c)
);
}
);
width = 338.86;
},
{
associatedMasterId = "CDFC0212-EC7A-4000-86F8-EA19B9E6D7F9";
layerId = "5C991851-B402-4C40-9516-0357264299C7";
name = "May 22, 23, 23:48";
shapes = (
{
closed = 1;
nodes = (
(46.523,437.238,o),
(47,454.572,o),
(52.477,481.905,c),
(144.658,497.905,o),
(217.696,502.905,o),
(331.646,499.905,c),
(341.169,472.572,o),
(340.692,445.238,o),
(330.215,417.905,c),
(216.265,425.905,o),
(143.227,415.905,o),
(51.046,409.905,c)
);
},
{
closed = 1;
nodes = (
(455.136,677,o),
(466.033,526.643,o),
(309.875,526.643,c),
(339.709,589.859,o),
(339.719,616.031,o),
(319.875,616.031,cs),
(257.723,616.031,o),
(194.458,109.884,o),
(181.162,-171.08,c),
(130.756,-205.504,o),
(32.996,-200.484,o),
(9.996,-150.512,c),
(72.595,500,o),
(151.047,677,o),
(317.509,677,cs)
);
}
);
width = 338.37;
},
{
associatedMasterId = "CDFC0212-EC7A-4000-86F8-EA19B9E6D7F9";
layerId = "F6F0FCBA-36B1-42E2-BD10-2B4804F95C4E";
name = "May 23, 23, 08:51";
shapes = (
{
closed = 1;
nodes = (
(58.523,437.238,o),
(59,454.572,o),
(64.477,481.905,c),
(156.658,497.905,o),
(229.696,502.905,o),
(343.646,499.905,c),
(353.169,472.572,o),
(352.692,445.238,o),
(342.215,417.905,c),
(228.265,425.905,o),
(155.227,415.905,o),
(63.046,409.905,c)
);
},
{
closed = 1;
nodes = (
(475.136,677,o),
(486.033,526.643,o),
(329.875,526.643,c),
(359.709,589.859,o),
(359.719,616.031,o),
(339.875,616.031,cs),
(277.723,616.031,o),
(214.458,299.884,o),
(201.162,18.92,c),
(150.756,-15.504,o),
(52.996,-10.484,o),
(29.996,39.488,c),
(83.179,592.146,o),
(171.047,677,o),
(337.509,677,cs)
);
}
);
width = 363.86;
},
{
associatedMasterId = "CDFC0212-EC7A-4000-86F8-EA19B9E6D7F9";
layerId = "5E294A60-9976-40B6-8F3F-1390044053C1";
name = "May 23, 23, 08:56";
shapes = (
{
closed = 1;
nodes = (
(53.543,437.238,o),
(54.02,454.572,o),
(59.497,481.905,c),
(151.678,497.905,o),
(218.716,502.905,o),
(332.666,499.905,c),
(342.189,472.572,o),
(341.712,445.238,o),
(331.235,417.905,c),
(217.285,425.905,o),
(150.247,415.905,o),
(58.066,409.905,c)
);
},
{
closed = 1;
nodes = (
(470.156,737,o),
(477.053,546.643,o),
(310.895,546.643,c),
(340.729,609.859,o),
(330.739,676.031,o),
(310.895,676.031,cs),
(248.743,676.031,o),
(229.76,322.166,o),
(236.464,41.202,c),
(194.522,-11.222,o),
(122.957,-13.646,o),
(61.016,11.93,c),
(86.106,629.859,o),
(162.067,737,o),
(322.529,737,cs)
);
}
);
width = 339.39;
},
{
associatedMasterId = "CDFC0212-EC7A-4000-86F8-EA19B9E6D7F9";
layerId = "72FE70C1-02A2-46BB-A5B9-4A12DADA2462";
name = "May 24, 23, 15:13";
shapes = (
{
closed = 1;
nodes = (
(39.523,437.238,o),
(40,454.572,o),
(45.477,481.905,c),
(137.658,497.905,o),
(222.696,502.905,o),
(336.646,499.905,c),
(346.169,472.572,o),
(345.692,445.238,o),
(335.215,417.905,c),
(221.265,425.905,o),
(136.227,415.905,o),
(44.046,409.905,c)
);
},
{
closed = 1;
nodes = (
(475.136,677,o),
(486.033,526.643,o),
(329.875,526.643,c),
(359.709,589.859,o),
(359.719,616.031,o),
(339.875,616.031,cs),
(277.723,616.031,o),
(214.458,299.884,o),
(201.162,18.92,c),
(150.756,-15.504,o),
(52.996,-10.484,o),
(29.996,39.488,c),
(83.179,592.146,o),
(171.047,677,o),
(337.509,677,cs)
);
}
);
width = 363.86;
},
{
associatedMasterId = "CDFC0212-EC7A-4000-86F8-EA19B9E6D7F9";
layerId = "38E79F88-18FD-4A50-A47C-7BF8D78C5373";
name = "May 24, 23, 19:28";
shapes = (
{
closed = 1;
nodes = (
(49.523,437.238,o),
(50,454.572,o),
(55.477,481.905,c),
(147.658,497.905,o),
(232.696,502.905,o),
(346.646,499.905,c),
(356.169,472.572,o),
(355.692,445.238,o),
(345.215,417.905,c),
(231.265,425.905,o),
(146.227,415.905,o),
(54.046,409.905,c)
);
},
{
closed = 1;
nodes = (
(415.136,677,o),
(426.033,526.643,o),
(269.875,526.643,c),
(299.357,589.112,o),
(293.102,625.285,o),
(278.493,625.285,cs),
(197.876,625.285,o),
(298.694,291.881,o),
(211.162,18.92,c),
(160.756,-15.504,o),
(62.996,-10.484,o),
(39.996,39.488,c),
(148.214,365.808,o),
(61.047,677,o),
(277.509,677,cs)
);
}
);
width = 338.86;
},
{
associatedMasterId = "CDFC0212-EC7A-4000-86F8-EA19B9E6D7F9";
layerId = "49CAB618-CC80-4A1C-A408-59982D47F1AE";
name = "May 24, 23, 19:31";
shapes = (
{
closed = 1;
nodes = (
(39.523,437.238,o),
(40,454.572,o),
(45.477,481.905,c),
(137.658,497.905,o),
(222.696,502.905,o),
(336.646,499.905,c),
(346.169,472.572,o),
(345.692,445.238,o),
(335.215,417.905,c),
(221.265,425.905,o),
(136.227,415.905,o),
(44.046,409.905,c)
);
},
{
closed = 1;
nodes = (
(475.136,677,o),
(486.033,526.643,o),
(329.875,526.643,c),
(359.709,589.859,o),
(359.719,616.031,o),
(339.875,616.031,cs),
(208.949,616.031,o),
(247.789,-77.834,o),
(131.162,-181.08,c),
(80.756,-215.504,o),
(-17.004,-210.484,o),
(-40.004,-160.512,c),
(123.396,129.198,o),
(44.046,677,o),
(337.509,677,cs)
);
}
);
width = 363.86;
}
);
unicode = 102;
},
{
glyphname = g;
lastChange = "2023-05-26 18:40:44 +0000";
layers = (
{
layerId = "CDFC0212-EC7A-4000-86F8-EA19B9E6D7F9";
shapes = (
{
closed = 1;
nodes = (
(448.254,-199.663,o),
(483.851,107.607,o),
(506.149,298.826,cs),
(515.241,376.8,o),
(522.122,435.809,o),
(534.495,447.424,c),
(532.495,453.424,l),
(521,488,o),
(483,501,o),
(445,501,cs),
(402,501,o),
(361,484,o),
(360.587,462.227,cs),
(360.587,413.702,o),
(355.334,302.405,o),
(343.915,186.396,cs),
(326.821,12.729,o),
(269.794,-85.497,o),
(222.006,-85.497,cs),
(213,-85,o),
(207,-80,o),
(207,-68,cs),
(207,-32,o),
(257,65,o),
(418.699,269.461,c),
(400.36,303.363,l),
(229,135,o),
(155,-1,o),
(155,-89,cs),
(155,-160,o),
(203,-200,o),
(285.744,-199.663,cs)
);
},
{
closed = 1;
nodes = (
(239.286,40.808,o),
(341.09,123.7,o),
(366.651,316.266,c),
(357.279,346.191,l),
(330,223,o),
(275,156,o),
(235,156,cs),
(207,156,o),
(186,188,o),
(185.985,256.4,cs),
(186,326,o),
(231,412,o),
(282,412,cs),
(308,412,o),
(335,390,o),
(359.398,332.115,c),
(384.587,330.215,l),
(372.874,455.341,o),
(315.857,506.744,o),
(232.117,506.744,cs),
(138.346,506.744,o),
(30.025,394.325,o),
(30.002,232.181,cs),
(29.986,111.652,o),
(89.397,40.808,o),
(166.596,40.808,cs)
);
}
);
width = 555.5;
},
{
associatedMasterId = "CDFC0212-EC7A-4000-86F8-EA19B9E6D7F9";
layerId = "62020077-5EE9-4320-9218-5F9C2EFC1242";
name = "May 26, 23, 14:40";
shapes = (
{
closed = 1;
nodes = (
(502.122,435.809,o),
(495.241,376.8,o),
(486.149,298.826,cs),
(463.851,107.607,o),
(428.254,-199.663,o),
(265.744,-199.663,cs),
(79.849,-199.663,o),
(70.623,-0.896,o),
(380.36,303.363,c),
(398.699,269.461,l),
(181.17,-5.769,o),
(185.979,-85.497,o),
(222.006,-85.497,cs),
(269.794,-85.497,o),
(306.821,12.729,o),
(323.915,186.396,cs),
(335.334,302.405,o),
(340.587,413.702,o),
(340.587,462.227,cs),
(340.587,502.728,o),
(486.97,527.944,o),
(512.495,453.424,c),
(514.495,447.424,l)
);
},
{
closed = 1;
nodes = (
(339.398,332.115,l),
(267.721,503.684,o),
(185.987,361.094,o),
(185.985,256.4,cs),
(185.983,90.547,o),
(290.29,137.987,o),
(337.279,346.191,c),
(346.651,316.266,l),
(321.09,123.7,o),
(239.286,40.808,o),
(166.596,40.808,cs),
(89.397,40.808,o),
(29.986,111.652,o),
(30.002,232.181,cs),
(30.025,394.325,o),
(138.346,506.744,o),
(232.117,506.744,cs),
(295.857,506.744,o),
(352.874,455.341,o),
(364.587,330.215,c)
);
}
);
width = 534.5;
},
{
associatedMasterId = "CDFC0212-EC7A-4000-86F8-EA19B9E6D7F9";
layerId = "BCED0DF1-3607-4ED8-89D2-CCAFA0AD4CB6";
name = "May 24, 23, 13:55";
shapes = (
{
closed = 1;
nodes = (
(502.122,435.809,o),
(495.241,376.8,o),
(486.149,298.826,cs),
(463.851,107.607,o),
(428.254,-199.663,o),
(265.744,-199.663,cs),
(79.849,-199.663,o),
(70.623,-0.896,o),
(380.36,303.363,c),
(398.699,269.461,l),
(181.17,-5.769,o),
(185.979,-85.497,o),
(222.006,-85.497,cs),
(269.794,-85.497,o),
(306.821,12.729,o),
(323.915,186.396,cs),
(335.334,302.405,o),
(340.587,413.702,o),
(340.587,462.227,cs),
(340.587,502.728,o),
(486.97,527.944,o),
(512.495,453.424,c),
(514.495,447.424,l)
);
},
{
closed = 1;
nodes = (
(339.398,332.115,l),
(267.721,503.684,o),
(185.987,361.094,o),
(185.985,256.4,cs),
(185.983,90.547,o),
(290.29,137.987,o),
(337.279,346.191,c),
(346.651,316.266,l),
(321.09,123.7,o),
(239.286,40.808,o),
(166.596,40.808,cs),
(89.397,40.808,o),
(29.986,111.652,o),
(30.002,232.181,cs),
(30.025,394.325,o),
(138.346,506.744,o),
(232.117,506.744,cs),
(295.857,506.744,o),
(352.874,455.341,o),
(364.587,330.215,c)
);
}
);
width = 534.49;
},
{
associatedMasterId = "CDFC0212-EC7A-4000-86F8-EA19B9E6D7F9";
layerId = "849B38DA-8EA4-453B-8327-2DB1EE0831CE";
name = "May 24, 23, 14:15";
shapes = (
{
closed = 1;
nodes = (
(354.93,335.02,l),
(287.381,496.914,o),
(189.362,348.13,o),
(189.36,233.845,cs),
(189.357,52.798,o),
(303.22,104.584,o),
(354.513,331.861,c),
(368.39,226.794,l),
(335.15,76.25,o),
(246.831,0.105,o),
(168.759,0.194,cs),
(94.77,0.278,o),
(29.985,68.829,o),
(30.004,207.407,cs),
(30.024,347.649,o),
(107.144,507.185,o),
(250.91,507.191,cs),
(306.927,507.194,o),
(368.896,471.019,o),
(386.39,384,c)
);
},
{
closed = 1;
nodes = (
(490.189,407.326,o),
(512.931,-283.663,o),
(284.154,-283.663,cs),
(98.259,-283.663,o),
(26.795,-83.281,o),
(336.532,134.978,c),
(354.871,101.076,l),
(137.342,-88.154,o),
(201.677,-171.497,o),
(226.532,-171.497,cs),
(274.32,-171.497,o),
(325.231,12.729,o),
(342.325,186.396,cs),
(353.744,302.405,o),
(358.997,413.702,o),
(358.997,462.227,cs),
(358.997,502.728,o),
(505.38,527.944,o),
(530.905,453.424,c),
(532.905,447.424,l)
);
}
);
width = 552.9;
}
);
unicode = 103;
},
{
glyphname = h;
lastChange = "2023-05-26 18:37:39 +0000";
layers = (
{
background = {
shapes = (
{
closed = 1;
nodes = (
(202,288,l),
(218.939,366,o),
(312,500,o),
(421.579,500,cs),
(621,500,o),
(412,103,o),
(503,103,c),
(518,103,o),
(529,111,o),
(536,126,c),
(551,98,l),
(534,46,o),
(488,0,o),
(412,0,cs),
(186,0,o),
(411,363,o),
(323,363,cs),
(272,363,o),
(218.939,288.662,o),
(206.939,224.662,c)
);
},
{
closed = 1;
nodes = (
(273,488.491,o),
(225.606,368.531,o),
(209,285,cs),
(202.943,254.53,o),
(206.854,240.173,o),
(206.939,224.662,cs),
(207.341,151.718,o),
(220,151.718,o),
(220,84,cs),
(220,42.376,o),
(178.929,-0.149,o),
(128.793,-0.149,cs),
(80.462,-0.149,o),
(30,32.861,o),
(30,79,cs),
(30,203.495,o),
(130.9,535.5,o),
(82,617,c),
(82,623,l),
(155,705,o),
(273,684,o),
(273,572,cs)
);
}
);
};
layerId = "CDFC0212-EC7A-4000-86F8-EA19B9E6D7F9";
shapes = (
{
closed = 1;
nodes = (
(236.816,398.512,o),
(273,525.798,o),
(273,599,cs),
(273,711,o),
(155,732,o),
(82,650,c),
(82,644,l),
(130.9,565.53,o),
(30,218.867,o),
(30,99,cs),
(30,41.202,o),
(68.414,-0.149,o),
(123.793,-0.149,cs),
(187.226,-0.149,o),
(220,47.43,o),
(220,94,cs),
(220,156.904,o),
(199.401,182.532,o),
(206.939,224.502,cs),
(218.477,288.747,o),
(272,363,o),
(323,363,cs),
(379.246,363,o),
(307.623,216.704,o),
(307.623,109.683,cs),
(307.623,34.161,o),
(359.804,-0.344,o),
(414.981,-0.344,cs),
(476.883,-0.344,o),
(542.557,43.084,o),
(542.557,120.746,c),
(536.07,126.254,l),
(530.991,115.371,o),
(518,105,o),
(503,105,cs),
(412,105,o),
(621,500,o),
(421.579,500,cs),
(326.786,500,o),
(244.353,399.722,o),
(212.868,322.166,c),
(216.642,318.381,l)
);
}
);
width = 570.56;
}
);
unicode = 104;
},
{
glyphname = i;
lastChange = "2023-05-29 16:53:58 +0000";
layers = (
{
layerId = "CDFC0212-EC7A-4000-86F8-EA19B9E6D7F9";
shapes = (
{
closed = 1;
nodes = (
(213,-11,o),
(280,38,o),
(280,112,c),
(273,114,l),
(268,105,o),
(255,96,o),
(243,96,cs),
(231,96,o),
(219,106,o),
(219,132,cs),
(219,189,o),
(272,308,o),
(272,391,cs),
(272,469,o),
(228,500,o),
(176,500,cs),
(115,500,o),
(44,450,o),
(37,371,c),
(44,367,l),
(54,381,o),
(66,389,o),
(78,389,cs),
(92,389,o),
(104,376,o),
(104,346,cs),
(104,271,o),
(51,197,o),
(51,110,cs),
(51,24,o),
(100,-11,o),
(152,-11,cs)
);
},
{
closed = 1;
nodes = (
(269,535,o),
(315,579,o),
(315,633,cs),
(315,681,o),
(277,719,o),
(224.413,719,cs),
(167,719,o),
(121,674,o),
(121,620,cs),
(121,572,o),
(159,535,o),
(211.534,534.539,cs)
);
}
);
width = 312;
},
{
associatedMasterId = "CDFC0212-EC7A-4000-86F8-EA19B9E6D7F9";
background = {
shapes = (
{
closed = 1;
nodes = (
(19.42,398,l),
(40.346,457.882,o),
(110.258,500.007,o),
(170.54,500.128,cs),
(222.567,500.233,o),
(267.42,469.052,o),
(267.42,391,cs),
(267.42,309,o),
(213.42,201,o),
(213.42,143,cs),
(213.42,88.87,o),
(255.687,94.43,o),
(270.42,126,c),
(285.42,98,l),
(265.065,35.737,o),
(204.051,-2.191,o),
(148.64,-2.174,cs),
(94.339,-2.158,o),
(45.42,34.297,o),
(45.42,120,cs),
(45.42,206.726,o),
(99.42,291.425,o),
(99.42,366,cs),
(99.42,420.579,o),
(62.858,411.324,o),
(38.42,378,c)
);
}
);
};
layerId = "732694C7-88D8-4689-9483-5F7AFB305966";
name = "May 26, 23, 14:37";
shapes = (
{
closed = 1;
nodes = (
(22.001,370.815,l),
(28.735,449.922,o),
(100.258,500.007,o),
(160.54,500.128,cs),
(212.567,500.233,o),
(257.42,469.052,o),
(257.42,391,cs),
(257.42,309,o),
(213.42,201,o),
(213.42,143,cs),
(213.42,88.87,o),
(257.762,105.704,o),
(266.526,124.483,c),
(273.631,121.686,l),
(273.631,47.972,o),
(206.978,-0.943,o),
(145.715,-0.943,cs),
(93.619,-0.943,o),
(45.42,34.429,o),
(45.42,120,cs),
(45.42,206.726,o),
(89.42,270.984,o),
(89.42,345.559,cs),
(89.42,400.138,o),
(51.186,399.633,o),
(28.735,367.001,c)
);
},
{
closed = 1;
nodes = (
(231.45,521.737,o),
(274.481,561.418,o),
(277.899,610.368,cs),
(281.316,659.319,o),
(243.826,699,o),
(194.162,699,cs),
(144.497,699,o),
(101.466,659.319,o),
(98.048,610.368,cs),
(94.631,561.418,o),
(132.12,521.737,o),
(181.785,521.737,cs)
);
}
);
width = 303.12;
}
);
unicode = 105;
},
{
glyphname = j;
lastChange = "2023-05-24 23:24:55 +0000";
layers = (
{
associatedMasterId = "CDFC0212-EC7A-4000-86F8-EA19B9E6D7F9";
layerId = "DAE19937-CD30-4ED6-8CC6-263AD309B8A4";
name = "May 24, 23, 13:58";
shapes = (
{
closed = 1;
nodes = (
(238.491,563.737,o),
(283.045,606.863,o),
(283.045,658.542,cs),
(283.045,704.612,o),
(246.65,741,o),
(199.092,741,cs),
(147.316,741,o),
(102.762,697.874,o),
(102.762,646.194,cs),
(102.762,600.125,o),
(139.156,563.737,o),
(186.715,563.737,cs)
);
},
{
closed = 1;
nodes = (
(213.599,407.326,o),
(256.341,-199.663,o),
(27.564,-199.663,cs),
(-158.331,-199.663,o),
(-193.238,47.821,o),
(96.499,236.08,c),
(114.838,202.178,l),
(-151.972,-12.9,o),
(-9.588,-274.77,o),
(50.625,143.624,c),
(72.59,212.248,o),
(82.407,395.892,o),
(82.407,462.227,cs),
(82.407,502.728,o),
(228.79,527.944,o),
(254.315,453.424,c),
(256.315,447.424,l)
);
}
);
width = 288.05;
},
{
associatedMasterId = "CDFC0212-EC7A-4000-86F8-EA19B9E6D7F9";
layerId = "E7DED37A-645A-4347-ADED-DE42148B7475";
name = "May 24, 23, 13:58";
shapes = (
{
closed = 1;
nodes = (
(238.491,563.737,o),
(283.045,606.863,o),
(283.045,658.542,cs),
(283.045,704.612,o),
(246.65,741,o),
(199.092,741,cs),
(147.316,741,o),
(102.762,697.874,o),
(102.762,646.194,cs),
(102.762,600.125,o),
(139.156,563.737,o),
(186.715,563.737,cs)
);
},
{
closed = 1;
nodes = (
(-63.314,5.551,l),
(-63.314,-100.582,o),
(1.843,-128.552,o),
(50.625,143.624,cs),
(63.337,214.547,o),
(82.407,395.892,o),
(82.407,462.227,cs),
(82.407,502.728,o),
(228.79,527.944,o),
(254.315,453.424,c),
(256.315,447.424,l),
(213.599,407.326,o),
(256.341,-199.663,o),
(27.564,-199.663,cs),
(-90.906,-199.663,o),
(-138.053,-109.148,o),
(-71.098,9.254,c)
);
}
);
width = 288.05;
},
{
associatedMasterId = "CDFC0212-EC7A-4000-86F8-EA19B9E6D7F9";
layerId = "36C99FDF-C94B-42D9-9810-8642B02B25CF";
name = "May 24, 23, 14:39";
shapes = (
{
closed = 1;
nodes = (
(238.491,563.737,o),
(283.045,606.863,o),
(283.045,658.542,cs),
(283.045,704.612,o),
(246.65,741,o),
(199.092,741,cs),
(147.316,741,o),
(102.762,697.874,o),
(102.762,646.194,cs),
(102.762,600.125,o),
(139.156,563.737,o),
(186.715,563.737,cs)
);
},
{
closed = 1;
nodes = (
(213.599,407.326,o),
(256.341,-283.663,o),
(27.564,-283.663,cs),
(-158.331,-283.663,o),
(-210.574,-86.695,o),
(79.163,101.564,c),
(97.502,67.662,l),
(-169.308,-147.416,o),
(-9.588,-358.77,o),
(50.625,59.624,c),
(72.59,212.248,o),
(82.407,395.892,o),
(82.407,462.227,cs),
(82.407,502.728,o),
(228.79,527.944,o),
(254.315,453.424,c),
(256.315,447.424,l)
);
}
);
width = 288.05;
},
{
associatedMasterId = "CDFC0212-EC7A-4000-86F8-EA19B9E6D7F9";
layerId = "18F951B3-548F-4D41-ACA7-5BC367EAB04D";
name = "May 24, 23, 14:56";
shapes = (
{
closed = 1;
nodes = (
(238.491,563.737,o),
(283.045,606.863,o),
(283.045,658.542,cs),
(283.045,704.612,o),
(246.65,741,o),
(199.092,741,cs),
(147.316,741,o),
(102.762,697.874,o),
(102.762,646.194,cs),
(102.762,600.125,o),
(139.156,563.737,o),
(186.715,563.737,cs)
);
},
{
closed = 1;
nodes = (
(-63.314,5.551,l),
(-63.314,-100.582,o),
(1.843,-128.552,o),
(50.625,143.624,cs),
(63.337,214.547,o),
(82.407,395.892,o),
(82.407,462.227,cs),
(82.407,502.728,o),
(228.79,527.944,o),
(254.315,453.424,c),
(256.315,447.424,l),
(213.599,407.326,o),
(256.341,-199.663,o),
(27.564,-199.663,cs),
(-90.906,-199.663,o),
(-138.053,-109.148,o),
(-71.098,9.254,c)
);
}
);
width = 288.05;
},
{
associatedMasterId = "CDFC0212-EC7A-4000-86F8-EA19B9E6D7F9";
layerId = "E667A504-37C6-44F4-9676-A3EBD229D109";
name = "May 24, 23, 19:24";
shapes = (
{
closed = 1;
nodes = (
(-183.809,-200.174,o),
(-200.576,-5.817,o),
(-23.114,-5.817,c),
(-52.948,-69.033,o),
(-52.958,-137.205,o),
(-33.114,-137.205,cs),
(8.522,-137.205,o),
(41.448,-33.441,o),
(65.599,476.906,c),
(116.005,511.33,o),
(219.765,506.31,o),
(242.765,456.338,c),
(239.014,456.338,o),
(236.23,450.738,o),
(235.088,439.033,cs),
(185.592,-68.247,o),
(141.492,-200.174,o),
(-23.114,-200.174,cs)
);
},
{
closed = 1;
nodes = (
(214.93,521.737,o),
(257.961,561.418,o),
(261.379,610.368,cs),
(264.796,659.319,o),
(227.306,699,o),
(177.642,699,cs),
(127.977,699,o),
(84.946,659.319,o),
(81.528,610.368,cs),
(78.111,561.418,o),
(115.6,521.737,o),
(165.265,521.737,cs)
);
}
);
width = 261.6;
},
{
layerId = "CDFC0212-EC7A-4000-86F8-EA19B9E6D7F9";
name = Regular;
shapes = (
{
closed = 1;
nodes = (
(229.93,521.737,o),
(272.961,561.418,o),
(276.379,610.368,cs),
(279.796,659.319,o),
(242.306,699,o),
(192.642,699,cs),
(142.977,699,o),
(99.946,659.319,o),
(96.528,610.368,cs),
(93.111,561.418,o),
(130.6,521.737,o),
(180.265,521.737,cs)
);
},
{
closed = 1;
nodes = (
(-131.275,-200.174,o),
(-142.172,-19.817,o),
(13.986,-19.817,c),
(-15.496,-82.286,o),
(-9.241,-148.459,o),
(5.368,-148.459,cs),
(85.985,-148.459,o),
(5.167,204.945,o),
(92.699,477.906,c),
(143.105,512.33,o),
(240.865,507.31,o),
(263.865,457.338,c),
(155.647,131.018,o),
(222.814,-200.174,o),
(6.352,-200.174,cs)
);
}
);
width = 276.6;
}
);
unicode = 106;
},
{
glyphname = k;
lastChange = "2023-05-25 18:32:02 +0000";
layers = (
{
layerId = "CDFC0212-EC7A-4000-86F8-EA19B9E6D7F9";
shapes = (
{
closed = 1;
nodes = (
(187.226,-0.149,o),
(220,47.43,o),
(220,94,cs),
(220,156.904,o),
(199.864,182.612,o),
(206.939,224.662,cs),
(219.727,300.673,o),
(270.897,368.037,o),
(331.442,368.037,cs),
(360.515,368.037,o),
(382.884,351.683,o),
(382.884,326.826,cs),
(382.884,283.729,o),
(321.048,244.743,o),
(289.468,229.43,c),
(274.55,193.169,o),
(268.039,160.766,o),
(268.039,132.533,cs),
(268.039,46.747,o),
(328.15,-0.534,o),
(395.151,-0.534,cs),
(453.717,-0.534,o),
(517.547,35.592,o),
(551.094,113.705,c),
(545.368,119.734,l),
(494.954,98.869,o),
(389.258,159.878,o),
(376.883,248.282,c),
(344.956,199.642,l),
(476.121,241.932,o),
(527.363,322.676,o),
(527.363,389.803,cs),
(527.363,450.461,o),
(485.522,500,o),
(423,500,cs),
(316.922,500,o),
(251.622,393.404,o),
(207.784,329.845,c),
(216.409,317.457,l),
(236.583,397.588,o),
(273,526.798,o),
(273,600,cs),
(273,712,o),
(155,733,o),
(82,651,c),
(82,645,l),
(130.9,566.53,o),
(30,218.867,o),
(30,99,cs),
(30,41.202,o),
(68.414,-0.149,o),
(123.793,-0.149,cs)
);
}
);
width = 551.09;
},
{
associatedMasterId = "CDFC0212-EC7A-4000-86F8-EA19B9E6D7F9";
layerId = "FDAA1C4E-C784-4B4B-92E0-A5C0F57ACC25";
name = "May 25, 23, 14:31";
shapes = (
{
closed = 1;
nodes = (
(187.226,-0.149,o),
(220,47.43,o),
(220,94,cs),
(220,156.904,o),
(199.864,182.612,o),
(206.939,224.662,cs),
(219.727,300.673,o),
(270.897,368.037,o),
(331.442,368.037,cs),
(360.515,368.037,o),
(382.884,351.683,o),
(382.884,326.826,cs),
(382.884,283.729,o),
(321.048,244.743,o),
(289.468,229.43,c),
(189.596,-13.322,o),
(466.537,-83.181,o),
(551.094,113.705,c),
(545.368,119.734,l),
(494.954,98.869,o),
(389.258,159.878,o),
(376.883,248.282,c),
(344.956,199.642,l),
(476.121,241.932,o),
(527.363,322.676,o),
(527.363,389.803,cs),
(527.363,450.461,o),
(485.522,500,o),
(423,500,cs),
(316.922,500,o),
(253.622,388.404,o),
(209.784,324.845,c),
(216.409,317.457,l),
(236.583,397.588,o),
(273,526.798,o),
(273,600,cs),
(273,712,o),
(155,733,o),
(82,651,c),
(82,645,l),
(130.9,566.53,o),
(30,218.867,o),
(30,99,cs),
(30,41.202,o),
(68.414,-0.149,o),
(123.793,-0.149,cs)
);
}
);
width = 551.09;
}
);
unicode = 107;
},
{
glyphname = l;
lastChange = "2023-05-26 18:39:45 +0000";
layers = (
{
background = {
shapes = (
{
closed = 1;
nodes = (
(76.165,354.581,o),
(108.35,478.966,o),
(71.73,540,c),
(71.73,546,l),
(144.73,628,o),
(265.73,607,o),
(265.73,495,cs),
(265.73,373.833,o),
(163.877,98.503,o),
(243.588,98.503,cs),
(254.889,98.503,o),
(268.134,108.394,o),
(280.73,126,c),
(295.73,98,l),
(277.275,41.55,o),
(211.49,0.26,o),
(151.966,0.257,cs),
(41.758,0.253,o),
(37.258,124.382,o),
(50.849,204.794,cs)
);
},
{
pos = (10.4,0);
ref = h;
}
);
};
layerId = "CDFC0212-EC7A-4000-86F8-EA19B9E6D7F9";
shapes = (
{
closed = 1;
nodes = (
(207,-12,o),
(273,40,o),
(275,112,c),
(267,114,l),
(263,104,o),
(248,90,o),
(233,90,cs),
(220,90,o),
(207,102,o),
(207,139,cs),
(207,228,o),
(284,476,o),
(284.4,589,c),
(284,668,o),
(240,700,o),
(194,700,cs),
(153,700,o),
(111,675,o),
(95.869,632.359,c),
(96.869,628.89,l),
(104.942,615.258,o),
(107.4,606.579,o),
(107.4,559,cs),
(107.4,447.957,o),
(34,234,o),
(34,131,cs),
(34,27,o),
(89,-12,o),
(149,-12,cs)
);
}
);
width = 306.4;
}
);
unicode = 108;
},
{
glyphname = m;
lastChange = "2023-05-26 18:46:15 +0000";
layers = (
{
layerId = "CDFC0212-EC7A-4000-86F8-EA19B9E6D7F9";
shapes = (
{
closed = 1;
nodes = (
(24.1,367,l),
(60.099,404.578,o),
(89.645,384.454,o),
(89.645,349.423,cs),
(89.645,293.335,o),
(50.1,180.684,o),
(50.1,99,cs),
(50.1,41,o),
(94.1,0,o),
(140.1,0,cs),
(193.1,0,o),
(240.1,48,o),
(240.1,94,cs),
(240.1,158.184,o),
(214.946,182.771,o),
(222.1,224.5,cs),
(233.103,288.679,o),
(277,371,o),
(328,371,cs),
(385.563,371,o),
(311.623,175.53,o),
(311.623,98.683,cs),
(311.623,31.202,o),
(356.884,-0.584,o),
(403.414,-0.584,cs),
(457.476,-0.584,o),
(501.717,38.341,o),
(501.717,93.537,cs),
(501.717,144.17,o),
(488.05,181.102,o),
(490.267,219.148,cs),
(495.096,282.51,o),
(544.231,371,o),
(594,371,cs),
(657.217,371,o),
(580.82,217.182,o),
(580.82,107.508,cs),
(580.82,31.535,o),
(626.878,0.169,o),
(678.299,0.169,cs),
(743.273,0.169,o),
(816.808,50.247,o),
(816.808,123.691,c),
(808.682,127.043,l),
(804.114,115.35,o),
(789.023,104.83,o),
(775.298,104.83,cs),
(713.743,104.83,o),
(786.596,293.335,o),
(786.596,389.898,cs),
(786.596,452.221,o),
(765.832,500,o),
(693,500,cs),
(597.026,500,o),
(542.979,408.651,o),
(498.217,344.176,c),
(507.78,335.282,l),
(526.21,407.372,o),
(518.058,500,o),
(426,500,cs),
(330.88,500,o),
(260.452,389.18,o),
(229.218,321.958,c),
(238.238,311.706,l),
(279.28,399.355,o),
(253.563,500,o),
(167.1,500,cs),
(59.1,500,o),
(16.084,413.759,o),
(18.069,370.518,c)
);
}
);
width = 834.81;
},
{
associatedMasterId = "CDFC0212-EC7A-4000-86F8-EA19B9E6D7F9";
layerId = "AF8EEDE7-964D-403D-8EC9-0AC3BB8BA25E";
name = "May 17, 23, 13:27";
shapes = (
{
closed = 1;
nodes = (
(5,381,l),
(12,419,o),
(69,500,o),
(177,500,cs),
(245.099,500,o),
(277.017,457.856,o),
(277.017,402.648,cs),
(277.017,370.301,o),
(266.059,333.468,o),
(245,298,cs),
(228,270,o),
(235,237,o),
(232,205,c),
(228,156,o),
(250,121,o),
(250,85,cs),
(250,42,o),
(203,0,o),
(150,0,cs),
(104,0,o),
(60,35,o),
(60,86,c),
(60,198,o),
(91,266,o),
(101,314,cs),
(104.196,328.673,o),
(105.619,341.277,o),
(105.619,351.948,cs),
(105.619,384.961,o),
(91.998,399.47,o),
(75.103,399.47,cs),
(59.867,399.47,o),
(41.97,387.67,o),
(29,367,c)
);
},
{
closed = 1;
nodes = (
(233,318,l),
(277,380,o),
(333,500,o),
(443,500,cs),
(512.731,500,o),
(532.366,451.255,o),
(532.366,387.925,cs),
(532.366,326.618,o),
(484.723,233.753,o),
(518.729,88.537,cs),
(540.165,-3,o),
(328.623,-62.442,o),
(328.623,107.683,cs),
(328.623,184.53,o),
(402.563,363,o),
(345,363,cs),
(294,363,o),
(245,283,o),
(233,219,c)
);
},
{
closed = 1;
nodes = (
(497,318,l),
(541,380,o),
(613,500,o),
(723,500,cs),
(792.731,500,o),
(812.366,451.255,o),
(812.366,387.925,cs),
(812.366,306.283,o),
(779.734,200.404,o),
(779.734,143.477,cs),
(779.734,118.543,o),
(785.994,103,o),
(804,103,c),
(819,103,o),
(830,111,o),
(837,126,c),
(852,98,l),
(835,46,o),
(789,0,o),
(713,0,cs),
(631.451,0,o),
(608.623,47.264,o),
(608.623,107.683,cs),
(608.623,184.53,o),
(686.327,363,o),
(624,363,cs),
(573,363,o),
(509.015,278.48,o),
(507.015,214.48,c)
);
}
);
width = 857;
},
{
associatedMasterId = "CDFC0212-EC7A-4000-86F8-EA19B9E6D7F9";
layerId = "F59C819B-A1A3-483E-AE4E-D3C92D048E99";
name = "May 26, 23, 14:46";
shapes = (
{
closed = 1;
nodes = (
(831,-3,o),
(920,62,o),
(920,164,c),
(913,169,l),
(904,148,o),
(885,130,o),
(866,130,cs),
(843,130,o),
(834,152,o),
(834,187,cs),
(834,273,o),
(885,443,o),
(885,557,cs),
(885,667,o),
(837,714,o),
(776,714,cs),
(700,714,o),
(576,609,o),
(551,483,c),
(569,503,l),
(572,522,o),
(573,540,o),
(573,557,cs),
(573,666,o),
(526,714,o),
(464,714,cs),
(388,714,o),
(285,610,o),
(237,485,c),
(262,501,l),
(264,519,o),
(265,536,o),
(265,551,cs),
(265,670,o),
(218,714,o),
(158,714,cs),
(79,714,o),
(-9,637,o),
(-9,536,c),
(0,530,l),
(13,565,o),
(36,584,o),
(56,584,cs),
(73,584,o),
(88,569,o),
(88,535,cs),
(88,452,o),
(18,266,o),
(18,145,cs),
(18,38,o),
(62,1,o),
(114,1,cs),
(168,1,o),
(226,41,o),
(226,133,cs),
(226,183,o),
(221,217,o),
(221,254,cs),
(221,289,o),
(226,328,o),
(243,390,cs),
(264,468,o),
(308,529,o),
(356,529,cs),
(376,528,o),
(382,511,o),
(382,480,cs),
(382,403,o),
(338,252,o),
(338,143,cs),
(338,37,o),
(385,0,o),
(437,0,cs),
(491,0,o),
(550,43,o),
(550,138,cs),
(550,199,o),
(539,236,o),
(539,287,cs),
(539,315,o),
(542,348,o),
(551,391,cs),
(567,471,o),
(621,529,o),
(669,529,cs),
(689,528,o),
(695,511,o),
(695,481,cs),
(695,408,o),
(655,262,o),
(654,152,cs),
(654,65,o),
(675,-3,o),
(767,-3,cs)
);
}
);
width = 834.81;
}
);
unicode = 109;
},
{
glyphname = n;
lastChange = "2023-05-26 20:07:50 +0000";
layers = (
{
background = {
shapes = (
{
closed = 1;
nodes = (
(5.1,381,l),
(12.1,419,o),
(69.1,500,o),
(177.1,500,cs),
(285.1,500,o),
(302.1,394,o),
(245.1,298,cs),
(228.1,270,o),
(235.1,237,o),
(232.1,205,c),
(228.1,156,o),
(250.1,121,o),
(250.1,85,cs),
(250.1,42,o),
(203.1,0,o),
(150.1,0,cs),
(104.1,0,o),
(60.1,35,o),
(60.1,86,c),
(60.1,198,o),
(91.1,266,o),
(101.1,314,cs),
(123.1,415,o),
(61.1,418,o),
(29.1,367,c)
);
},
{
closed = 1;
nodes = (
(233.1,318,l),
(277.1,380,o),
(341.1,500,o),
(451.1,500,cs),
(650.1,500,o),
(441.1,103,o),
(532.1,103,c),
(547.1,103,o),
(558.1,111,o),
(565.1,126,c),
(580.1,98,l),
(563.1,46,o),
(517.1,0,o),
(441.1,0,cs),
(215.1,0,o),
(440.1,363,o),
(352.1,363,cs),
(301.1,363,o),
(245.1,283,o),
(233.1,219,c)
);
}
);
};
layerId = "CDFC0212-EC7A-4000-86F8-EA19B9E6D7F9";
shapes = (
{
closed = 1;
nodes = (
(65.099,404.578,o),
(94.645,384.454,o),
(94.645,349.423,cs),
(94.645,293.335,o),
(55.1,180.684,o),
(55.1,99,cs),
(55.1,41,o),
(99.1,0,o),
(145.1,0,cs),
(198.1,0,o),
(245.1,38.453,o),
(245.1,94,cs),
(245.1,158.184,o),
(220.946,182.612,o),
(227.1,224.5,cs),
(238.905,304.858,o),
(301.1,363,o),
(347.1,363,cs),
(403.346,363,o),
(331.723,216.704,o),
(331.723,109.683,cs),
(331.723,32.543,o),
(378.916,0.184,o),
(430.981,0.184,cs),
(495.037,0.184,o),
(566.467,49.163,o),
(566.467,123.987,c),
(559.239,127.013,l),
(555.1,118.143,o),
(542.1,105,o),
(527.1,105,cs),
(436.1,105,o),
(645.1,500,o),
(446.1,500,cs),
(356.236,500,o),
(264.665,383.913,o),
(234.434,320.787,c),
(242.372,310.348,l),
(285.237,401.22,o),
(262.081,500,o),
(172.1,500,cs),
(64.1,500,o),
(21.084,413.759,o),
(23.069,370.518,c),
(29.1,367,l)
);
}
);
width = 589.47;
}
);
unicode = 110;
},
{
glyphname = o;
lastChange = "2023-05-17 17:18:08 +0000";
layers = (
{
background = {
shapes = (
{
closed = 1;
nodes = (
(590.73,-6,o),
(653.73,507,o),
(324.23,507,cs),
(-15.27,507,o),
(-87.27,-6,o),
(247.73,-6,cs)
);
},
{
closed = 1;
nodes = (
(183.105,85.5,o),
(191.073,415.5,o),
(291.125,415.5,cs),
(383.355,415.5,o),
(375.306,85.5,o),
(275.211,85.5,cs)
);
}
);
};
layerId = "CDFC0212-EC7A-4000-86F8-EA19B9E6D7F9";
shapes = (
{
closed = 1;
nodes = (
(590.73,-6,o),
(653.73,507,o),
(324.23,507,cs),
(-15.27,507,o),
(-87.27,-6,o),
(247.73,-6,cs)
);
},
{
closed = 1;
nodes = (
(180.101,78.9,o),
(188.388,422.1,o),
(291.442,422.1,cs),
(386.361,422.1,o),
(377.99,78.9,o),
(274.891,78.9,cs)
);
}
);
width = 570.86;
}
);
unicode = 111;
},
{
glyphname = p;
lastChange = "2023-05-24 17:52:44 +0000";
layers = (
{
layerId = "CDFC0212-EC7A-4000-86F8-EA19B9E6D7F9";
shapes = (
{
closed = 1;
nodes = (
(226.569,146.359,o),
(158.384,-16.897,o),
(195.004,-144.06,c),
(195.004,-150.06,l),
(176.967,-183.495,o),
(142.882,-199.806,o),
(108.834,-199.806,cs),
(59.38,-199.806,o),
(10.004,-165.393,o),
(10.004,-99.06,cs),
(10.004,58.916,o),
(91.745,233.55,o),
(91.745,344.689,cs),
(91.745,404.965,o),
(47.104,390.357,o),
(28.004,367.04,c),
(20.77,371.206,l),
(20.77,440.359,o),
(91.244,500.68,o),
(150.768,500.683,cs),
(260.976,500.687,o),
(265.476,376.558,o),
(251.885,296.146,cs)
);
},
{
closed = 1;
nodes = (
(220.074,205.365,l),
(221.876,136.958,o),
(253.932,98.192,o),
(289.776,98.192,cs),
(355.959,98.192,o),
(391.746,212.659,o),
(391.746,295.947,cs),
(391.746,350.291,o),
(376.51,395.192,o),
(344.54,395.192,cs),
(307.361,395.192,o),
(251.489,316.102,o),
(225.451,151.628,c),
(178.496,178.272,l),
(220.572,403.095,o),
(333.547,506.066,o),
(425.444,506.066,cs),
(495.969,506.066,o),
(553.12,440.3,o),
(553.12,305.513,cs),
(553.12,102.451,o),
(440.801,1.018,o),
(340.86,1.018,cs),
(260.351,1.018,o),
(187.873,66.841,o),
(188.614,198.385,c)
);
}
);
width = 578.12;
}
);
unicode = 112;
},
{
glyphname = q;
lastChange = "2023-05-25 05:29:16 +0000";
layers = (
{
layerId = "CDFC0212-EC7A-4000-86F8-EA19B9E6D7F9";
shapes = (
{
closed = 1;
nodes = (
(347.267,204.802,o),
(373.89,306.871,o),
(382.407,462.227,c),
(382.407,502.728,o),
(528.79,527.944,o),
(554.315,453.424,c),
(556.315,447.424,l),
(524.234,373.733,o),
(479.593,49.698,o),
(479.593,-43.812,cs),
(479.593,-104.088,o),
(524.234,-89.48,o),
(543.334,-66.163,c),
(550.568,-70.329,l),
(550.568,-139.482,o),
(474.094,-199.803,o),
(414.57,-199.806,cs),
(304.362,-199.81,o),
(299.862,-75.681,o),
(313.453,4.731,cs)
);
},
{
closed = 1;
nodes = (
(379.542,294.843,l),
(377.74,363.25,o),
(345.684,399.016,o),
(309.84,399.016,cs),
(243.657,399.016,o),
(207.87,293.549,o),
(207.87,210.261,cs),
(207.87,155.917,o),
(223.106,111.016,o),
(255.076,111.016,cs),
(292.255,111.016,o),
(348.127,184.106,o),
(374.165,348.58,c),
(421.12,311.936,l),
(352.236,-56.131,o),
(46.496,-105.483,o),
(46.496,200.695,cs),
(46.496,339.494,o),
(121.591,500.313,o),
(262.229,500.313,cs),
(341.3,500.313,o),
(411.653,439.425,o),
(411.002,323.823,c)
);
}
);
width = 600;
},
{
associatedMasterId = "CDFC0212-EC7A-4000-86F8-EA19B9E6D7F9";
layerId = "5287E19D-C27F-4C85-8167-0CC79ADEE8D2";
name = "May 23, 23, 09:44";
shapes = (
{
closed = 1;
nodes = (
(347.267,204.802,o),
(373.89,306.871,o),
(382.407,462.227,c),
(382.407,502.728,o),
(528.79,527.944,o),
(554.315,453.424,c),
(556.315,447.424,l),
(524.234,373.733,o),
(479.593,49.698,o),
(479.593,-43.812,cs),
(479.593,-104.088,o),
(524.234,-89.48,o),
(543.334,-66.163,c),
(550.568,-70.329,l),
(550.568,-139.482,o),
(474.094,-199.803,o),
(414.57,-199.806,cs),
(304.362,-199.81,o),
(299.862,-75.681,o),
(313.453,4.731,cs)
);
},
{
closed = 1;
nodes = (
(371.827,330.687,l),
(302.381,496.914,o),
(204.362,348.13,o),
(204.36,233.845,cs),
(204.357,52.798,o),
(318.715,104.377,o),
(370.008,331.654,c),
(383.39,226.794,l),
(350.15,76.25,o),
(261.831,0.105,o),
(183.759,0.194,cs),
(109.77,0.278,o),
(44.985,68.829,o),
(45.004,207.407,cs),
(45.024,347.649,o),
(122.144,507.185,o),
(265.91,507.191,cs),
(321.927,507.194,o),
(383.896,471.019,o),
(401.39,384,c)
);
}
);
width = 600;
},
{
associatedMasterId = "CDFC0212-EC7A-4000-86F8-EA19B9E6D7F9";
layerId = "6130EA50-A254-4DB3-937E-A192D4B16FA5";
name = "May 24, 23, 13:33";
shapes = (
{
closed = 1;
nodes = (
(403.076,326.323,l),
(382.992,390.684,o),
(348.125,420.785,o),
(313.256,420.785,cs),
(243.012,420.785,o),
(205.267,309.754,o),
(205.267,224.385,cs),
(205.267,171.068,o),
(219.989,127.76,o),
(250.712,127.76,cs),
(284.105,127.76,o),
(334.439,205.561,o),
(371.25,342.06,c),
(374.621,241.543,l),
(341.381,90.999,o),
(260.741,0.105,o),
(182.669,0.194,cs),
(85.348,0.305,o),
(40.002,86.223,o),
(40.002,187.17,cs),
(40.002,331.047,o),
(132.119,505.452,o),
(297.157,505.452,cs),
(364.33,505.452,o),
(424.431,469.318,o),
(447.316,395.109,c)
);
},
{
closed = 1;
nodes = (
(382.407,462.227,c),
(382.407,502.728,o),
(528.79,527.944,o),
(554.315,453.424,c),
(556.315,447.424,l),
(524.234,373.733,o),
(479.593,49.698,o),
(479.593,-43.812,cs),
(479.593,-104.088,o),
(524.234,-89.48,o),
(543.334,-66.163,c),
(550.568,-70.329,l),
(550.568,-139.482,o),
(474.094,-199.803,o),
(414.57,-199.806,cs),
(304.362,-199.81,o),
(299.862,-75.681,o),
(313.453,4.731,cs),
(347.267,204.802,o),
(373.89,306.871,o)
);
}
);
width = 600;
}
);
unicode = 113;
},
{
glyphname = r;
lastChange = "2023-05-26 18:35:55 +0000";
layers = (
{
layerId = "CDFC0212-EC7A-4000-86F8-EA19B9E6D7F9";
shapes = (
{
closed = 1;
nodes = (
(355.086,500.978,o),
(288.449,434.976,o),
(235.413,316.628,c),
(243.238,311.706,l),
(284.28,399.355,o),
(258.563,500,o),
(172.1,500,cs),
(64.1,500,o),
(21.084,413.759,o),
(23.069,370.518,c),
(29.1,367,l),
(65.099,412.578,o),
(94.645,392.454,o),
(94.645,349.423,cs),
(94.645,293.335,o),
(55.1,180.684,o),
(55.1,99,cs),
(55.1,41,o),
(99.1,0,o),
(145.1,0,cs),
(198.1,0,o),
(245.1,48,o),
(245.1,94,cs),
(245.1,158.184,o),
(219.729,182.809,o),
(227.1,224.5,cs),
(251.778,364.071,o),
(352.841,352.105,o),
(357.642,278.197,c),
(361.522,275.759,l),
(481.145,272.759,o),
(512.231,500.978,o),
(407.553,500.978,cs)
);
}
);
width = 476.11;
}
);
metricLeft = n;
unicode = 114;
},
{
glyphname = s;
lastChange = "2023-05-26 18:38:30 +0000";
layers = (
{
background = {
shapes = (
{
closed = 1;
nodes = (
(-55.103,-5.776,o),
(-25.103,204.652,o),
(142.742,204.652,c),
(142.742,24.225,o),
(295.654,51.278,o),
(295.431,115.144,cs),
(295.145,196.954,o),
(62.857,209.595,o),
(62.857,349.996,cs),
(62.857,520.001,o),
(469.573,563,o),
(469.541,418.711,cs),
(469.526,346.952,o),
(409.347,314.102,o),
(348.162,314.102,c),
(348.162,447.342,o),
(241.414,452.963,o),
(241.414,386.413,cs),
(241.414,284.561,o),
(484.751,286.284,o),
(484.847,157.354,cs),
(484.909,73.309,o),
(352.221,-5.639,o),
(221.976,-5.682,cs)
);
}
);
};
layerId = "CDFC0212-EC7A-4000-86F8-EA19B9E6D7F9";
shapes = (
{
closed = 1;
nodes = (
(350,-6,o),
(475,73,o),
(474.847,157.354,cs),
(474.751,286.284,o),
(230,285,o),
(230,386,cs),
(230,414,o),
(249,429,o),
(281,429,cs),
(312,429,o),
(348,399,o),
(348.162,331.374,c),
(409.347,331.374,o),
(469.526,346.952,o),
(469.541,418.711,cs),
(470,478,o),
(400,506,o),
(319,506,cs),
(203,506,o),
(63,450,o),
(62.857,349.996,cs),
(63,220,o),
(306,197,o),
(306,115,cs),
(307,87,o),
(278,67,o),
(234,67,cs),
(192,67,o),
(143,102,o),
(142.742,204.652,c),
(64,205,o),
(15,158,o),
(15,108,cs),
(15,53,o),
(76,-6,o),
(221,-6,cs)
);
}
);
width = 499.85;
}
);
unicode = 115;
},
{
glyphname = t;
lastChange = "2023-05-26 18:42:43 +0000";
layers = (
{
layerId = "CDFC0212-EC7A-4000-86F8-EA19B9E6D7F9";
shapes = (
{
closed = 1;
nodes = (
(253.422,-0.196,o),
(320.88,39.709,o),
(330.88,131.771,c),
(321.573,135.275,l),
(314,120,o),
(293,108,o),
(273,108,cs),
(252,108,o),
(231,122,o),
(231,162,cs),
(231,291,o),
(307,611,o),
(313.925,623.424,c),
(302,658,o),
(263,671,o),
(225,671,cs),
(181,671,o),
(139,654,o),
(139.017,632.227,cs),
(139.017,604.033,o),
(60.67,209.074,o),
(60.67,140.724,cs),
(60.67,39.857,o),
(113.747,-0.196,o),
(170.002,-0.196,cs)
);
},
{
closed = 1;
nodes = (
(67,413,o),
(112,419,o),
(174,419,cs),
(220,419,o),
(274,415,o),
(343.185,407.905,c),
(351,427,o),
(358,452,o),
(358,474,cs),
(358,483,o),
(356,492,o),
(353.616,499.905,c),
(317,503,o),
(283,505,o),
(253,505,cs),
(149,505,o),
(80,483,o),
(20.001,411.22,c),
(22.293,403.59,l)
);
}
);
width = 360;
},
{
associatedMasterId = "CDFC0212-EC7A-4000-86F8-EA19B9E6D7F9";
layerId = "72F8DEB3-6C2A-4E95-8AD9-D2027DD37F9D";
name = "May 22, 23, 22:18";
shapes = (
{
closed = 1;
nodes = (
(53.543,437.238,o),
(54.02,454.572,o),
(59.497,481.905,c),
(151.678,497.905,o),
(218.716,502.905,o),
(332.666,499.905,c),
(342.189,472.572,o),
(341.712,445.238,o),
(331.235,417.905,c),
(217.285,425.905,o),
(150.247,415.905,o),
(58.066,409.905,c)
);
},
{
closed = 1;
nodes = (
(306.508,555.147,o),
(230.419,295.834,o),
(230.419,162.574,cs),
(230.419,67.903,o),
(274.276,97.802,o),
(294.45,126,c),
(312.45,103,l),
(288.93,-18.934,o),
(59.72,-67.858,o),
(59.72,140.724,cs),
(59.72,209.074,o),
(138.067,548.033,o),
(138.067,576.227,cs),
(138.067,617.61,o),
(287.705,641.199,o),
(312.975,567.424,c)
);
}
);
width = 339.47;
}
);
unicode = 116;
},
{
glyphname = u;
lastChange = "2023-05-25 05:29:16 +0000";
layers = (
{
layerId = "CDFC0212-EC7A-4000-86F8-EA19B9E6D7F9";
shapes = (
{
closed = 1;
nodes = (
(329.822,253.778,o),
(400.166,316.68,o),
(369.691,440.203,c),
(369.712,446.922,l),
(418.535,532.163,o),
(553.536,518.08,o),
(553.536,403.847,cs),
(553.536,334.566,o),
(489.818,214.756,o),
(489.818,140.075,cs),
(489.818,116.383,o),
(497.513,101.13,o),
(518.289,101.13,cs),
(530.053,101.13,o),
(545.591,105.443,o),
(560.307,124.402,c),
(566.953,121.598,l),
(566.953,49.259,o),
(499.4,0.512,o),
(436.405,0.512,cs),
(381.374,0.512,o),
(329.822,37.713,o),
(329.822,128.882,cs)
);
},
{
closed = 1;
nodes = (
(57.141,-26.717,o),
(57.141,126.988,cs),
(57.141,213.534,o),
(97.185,316.991,o),
(97.185,364.344,cs),
(97.185,405.007,o),
(53.236,403.52,o),
(35.655,369.214,c),
(28.002,371.673,l),
(28.002,453.759,o),
(98.375,500.505,o),
(161.745,500.505,cs),
(213.646,500.505,o),
(266.85,469.149,o),
(266.85,400.171,cs),
(266.85,324.319,o),
(185.912,135.832,o),
(261.764,135.832,cs),
(291.718,135.832,o),
(342.375,203.412,o),
(368.717,312.077,c),
(378.643,229.055,l),
(254.851,-89.942,o)
);
}
);
width = 597.63;
},
{
associatedMasterId = "CDFC0212-EC7A-4000-86F8-EA19B9E6D7F9";
layerId = "99CDD44C-CF36-41DD-B8AE-20AEB91BDB61";
name = "May 23, 23, 09:33";
shapes = (
{
closed = 1;
nodes = (
(329.822,253.778,o),
(400.166,316.68,o),
(369.691,440.203,c),
(369.712,446.922,l),
(418.535,532.163,o),
(553.536,518.08,o),
(553.536,403.847,cs),
(553.536,334.566,o),
(489.818,214.756,o),
(489.818,140.075,cs),
(489.818,116.383,o),
(497.513,101.13,o),
(518.289,101.13,cs),
(530.053,101.13,o),
(544.189,110.213,o),
(557.63,129,c),
(572.63,101,l),
(552.411,39.153,o),
(492.969,-0.064,o),
(435.328,-0.064,cs),
(380.125,-0.064,o),
(329.822,39.925,o),
(329.822,128.882,cs)
);
},
{
closed = 1;
nodes = (
(57.141,-26.717,o),
(57.141,126.988,cs),
(57.141,213.534,o),
(97.185,316.991,o),
(97.185,364.344,cs),
(97.185,405.007,o),
(53.236,403.52,o),
(35.655,369.214,c),
(28.002,371.673,l),
(28.002,453.759,o),
(98.375,500.505,o),
(161.745,500.505,cs),
(213.646,500.505,o),
(266.85,469.149,o),
(266.85,400.171,cs),
(266.85,324.319,o),
(185.912,135.832,o),
(261.764,135.832,cs),
(291.718,135.832,o),
(342.375,203.412,o),
(368.717,312.077,c),
(378.643,229.055,l),
(254.851,-89.942,o)
);
}
);
width = 597.63;
},
{
associatedMasterId = "CDFC0212-EC7A-4000-86F8-EA19B9E6D7F9";
layerId = "E3E9C9D9-3F22-4619-8A29-5F16EB7412B4";
name = "May 23, 23, 09:35";
shapes = (
{
closed = 1;
nodes = (
(378.643,229.055,l),
(297.349,-56.104,o),
(65.744,-47.932,o),
(65.744,104.789,cs),
(65.744,188.977,o),
(100.528,294.624,o),
(100.528,352.273,cs),
(100.528,398.209,o),
(47.367,399.365,o),
(30.971,364.507,c),
(24.41,368.177,l),
(24.41,531.153,o),
(276.609,543.227,o),
(276.609,391.361,cs),
(276.609,317.226,o),
(200.629,135.832,o),
(261.764,135.832,cs),
(291.718,135.832,o),
(342.375,203.412,o),
(368.717,312.077,c)
);
},
{
closed = 1;
nodes = (
(329.822,253.778,o),
(400.166,316.68,o),
(369.691,440.203,c),
(369.712,446.922,l),
(418.535,532.163,o),
(553.536,518.08,o),
(553.536,403.847,cs),
(553.536,334.566,o),
(489.818,214.756,o),
(489.818,140.075,cs),
(489.818,116.383,o),
(497.513,101.13,o),
(518.289,101.13,cs),
(530.053,101.13,o),
(544.189,110.213,o),
(557.63,129,c),
(572.63,101,l),
(552.411,39.153,o),
(492.969,-0.064,o),
(435.328,-0.064,cs),
(380.125,-0.064,o),
(329.822,39.925,o),
(329.822,128.882,cs)
);
}
);
width = 597.63;
}
);
unicode = 117;
},
{
glyphname = v;
lastChange = "2023-05-25 05:00:23 +0000";
layers = (
{
layerId = "CDFC0212-EC7A-4000-86F8-EA19B9E6D7F9";
shapes = (
{
closed = 1;
nodes = (
(171.057,110.112,o),
(246.909,110.112,cs),
(289.016,110.112,o),
(351.81,171.252,o),
(351.81,358.89,cs),
(351.81,394.914,o),
(347.751,426.764,o),
(339.417,447.737,c),
(339.417,453.284,l),
(354.96,479.508,o),
(408.854,510.207,o),
(452.24,510.207,cs),
(492.347,510.207,o),
(527.748,473.973,o),
(527.748,393.722,cs),
(527.748,124.482,o),
(320.679,0.041,o),
(179.566,0.041,cs),
(100.867,0.041,o),
(49.571,41.857,o),
(49.571,126.988,cs),
(49.571,213.534,o),
(89.615,317.991,o),
(89.615,365.344,cs),
(89.615,406.007,o),
(44.048,401.171,o),
(25.693,372.483,c),
(21.43,375.918,l),
(19.978,444.298,o),
(90.849,500.674,o),
(158.407,500.674,cs),
(209.677,500.674,o),
(253.28,472.235,o),
(253.28,401.171,cs),
(253.28,325.319,o)
);
}
);
width = 552.75;
}
);
unicode = 118;
},
{
glyphname = w;
lastChange = "2023-05-25 05:29:16 +0000";
layers = (
{
layerId = "CDFC0212-EC7A-4000-86F8-EA19B9E6D7F9";
shapes = (
{
closed = 1;
nodes = (
(420.837,377.89,l),
(420.837,199.252,o),
(299.586,110.112,o),
(257.479,110.112,cs),
(181.627,110.112,o),
(263.85,324.319,o),
(263.85,400.171,cs),
(263.85,469.149,o),
(210.646,500.505,o),
(158.745,500.505,cs),
(95.375,500.505,o),
(25.002,453.759,o),
(25.002,371.673,c),
(32.655,369.214,l),
(50.236,403.52,o),
(94.185,405.007,o),
(94.185,364.344,cs),
(94.185,316.991,o),
(54.141,213.534,o),
(54.141,126.988,cs),
(54.141,41.857,o),
(105.437,0.041,o),
(184.136,0.041,cs),
(270.701,0.041,o),
(346.495,75.807,o),
(420.837,172.088,c),
(468.767,194.119,o),
(526.318,284.126,o),
(526.318,384.722,cs),
(526.318,443.318,o),
(510.551,483.29,o),
(453.301,483.29,cs),
(367.076,483.29,o),
(308.283,374.923,o),
(365.917,110.438,c),
(457.804,184.452,l)
);
},
{
closed = 1;
nodes = (
(390.902,184.452,l),
(398.839,159.599,o),
(357.076,129.206,o),
(365.917,110.438,c),
(451.291,-92.028,o),
(796.318,-26.375,o),
(796.318,393.722,cs),
(796.318,473.973,o),
(760.917,510.207,o),
(720.81,510.207,cs),
(677.424,510.207,o),
(623.53,479.508,o),
(607.987,453.284,c),
(607.987,447.737,l),
(616.321,426.764,o),
(620.38,394.914,o),
(620.38,358.89,cs),
(620.38,67,o),
(458.767,47.921,o),
(460.982,220.838,c)
);
}
);
width = 826.32;
},
{
associatedMasterId = "CDFC0212-EC7A-4000-86F8-EA19B9E6D7F9";
layerId = "547E8274-EA01-409C-997B-816A22AC14C5";
name = "May 22, 23, 23:56";
shapes = (
{
closed = 1;
nodes = (
(422.267,349.89,l),
(422.267,171.252,o),
(289.016,110.112,o),
(246.909,110.112,cs),
(227.943,110.112,o),
(214.189,122.516,o),
(214.189,142.174,cs),
(214.189,199.952,o),
(253.28,309.05,o),
(253.28,403.171,cs),
(253.28,474.235,o),
(209.677,502.674,o),
(158.407,502.674,cs),
(90.849,502.674,o),
(26.978,453.298,o),
(15,387,c),
(34,367,l),
(40.882,384.921,o),
(55.916,395.514,o),
(68.62,395.514,cs),
(80.063,395.514,o),
(89.615,386.919,o),
(89.615,367.344,cs),
(89.615,319.991,o),
(49.571,213.534,o),
(49.571,126.988,cs),
(49.571,41.857,o),
(100.867,0.041,o),
(179.566,0.041,cs),
(320.679,0.041,o),
(527.748,124.482,o),
(527.748,384.722,cs),
(527.748,463.318,o),
(511.981,503.29,o),
(454.731,503.29,cs),
(358.506,503.29,o),
(299.713,374.923,o),
(367.347,110.438,c),
(478.65,165.665,l)
);
},
{
closed = 1;
nodes = (
(392.332,184.452,l),
(400.269,159.599,o),
(358.506,129.206,o),
(367.347,110.438,c),
(407.213,25.808,o),
(455.381,-0.508,o),
(503.889,-0.508,cs),
(637.305,-0.508,o),
(807.748,153.387,o),
(807.748,384.722,cs),
(807.748,464.973,o),
(772.347,501.207,o),
(732.24,501.207,cs),
(688.854,501.207,o),
(634.96,470.508,o),
(619.417,444.284,c),
(619.417,438.737,l),
(627.751,417.764,o),
(631.81,385.914,o),
(631.81,349.89,cs),
(631.81,171.252,o),
(569.016,110.112,o),
(526.909,110.112,cs),
(507.806,110.112,o),
(483.252,135.969,o),
(462.412,220.838,c)
);
}
);
width = 838.51;
},
{
associatedMasterId = "CDFC0212-EC7A-4000-86F8-EA19B9E6D7F9";
layerId = "5F940095-30CE-4C9B-A36B-7F23537ACAFC";
name = "May 23, 23, 00:05";
shapes = (
{
closed = 1;
nodes = (
(214.189,199.952,o),
(253.28,309.05,o),
(253.28,403.171,cs),
(253.28,474.235,o),
(209.677,502.674,o),
(158.407,502.674,cs),
(90.849,502.674,o),
(26.978,453.298,o),
(15,387,c),
(34,367,l),
(40.882,384.921,o),
(55.916,395.514,o),
(68.62,395.514,cs),
(80.063,395.514,o),
(89.615,386.919,o),
(89.615,367.344,cs),
(89.615,319.991,o),
(49.571,213.534,o),
(49.571,126.988,cs),
(49.571,41.857,o),
(100.867,0.041,o),
(179.566,0.041,cs),
(320.679,0.041,o),
(527.748,124.482,o),
(527.748,384.722,cs),
(527.748,464.973,o),
(492.347,501.207,o),
(452.24,501.207,cs),
(408.854,501.207,o),
(354.96,470.508,o),
(339.417,444.284,c),
(339.417,438.737,l),
(347.751,417.764,o),
(351.81,385.914,o),
(351.81,349.89,cs),
(351.81,171.252,o),
(289.016,110.112,o),
(246.909,110.112,cs),
(227.943,110.112,o),
(214.189,122.516,o),
(214.189,142.174,cs)
);
},
{
closed = 1;
nodes = (
(310.574,357.578,o),
(322.561,236.985,o),
(342.136,175.695,c),
(385.866,38.774,o),
(444.624,-0.508,o),
(503.889,-0.508,cs),
(637.305,-0.508,o),
(807.748,153.387,o),
(807.748,384.722,cs),
(807.748,464.973,o),
(772.347,501.207,o),
(732.24,501.207,cs),
(688.854,501.207,o),
(634.96,470.508,o),
(619.417,444.284,c),
(619.417,438.737,l),
(627.751,417.764,o),
(631.81,385.914,o),
(631.81,349.89,cs),
(631.81,171.252,o),
(569.016,110.112,o),
(526.909,110.112,cs),
(497.222,110.112,o),
(454.374,172.555,o),
(432.75,421.869,cs),
(430.392,449.059,o),
(428.286,462.899,o),
(426.478,494.695,c),
(391.124,494.695,o),
(369.04,465.715,o),
(324.796,441.98,c)
);
}
);
width = 838.51;
},
{
associatedMasterId = "CDFC0212-EC7A-4000-86F8-EA19B9E6D7F9";
layerId = "D24957F3-AB55-4C12-BEF9-DA6DF353E68B";
name = "May 23, 23, 08:48";
shapes = (
{
closed = 1;
nodes = (
(400.807,229.055,l),
(354.645,67.129,o),
(241.238,-0.213,o),
(166.676,-0.213,cs),
(109.932,-0.213,o),
(65.744,38.79,o),
(65.744,104.789,cs),
(65.744,188.977,o),
(100.528,294.624,o),
(100.528,352.273,cs),
(100.528,375.999,o),
(91.019,385.515,o),
(79.426,385.515,cs),
(66.619,385.515,o),
(51.267,373.902,o),
(43.38,357,c),
(20.001,370.684,l),
(38.721,454.609,o),
(116.105,501.448,o),
(181.046,501.448,cs),
(232.775,501.448,o),
(276.609,471.728,o),
(276.609,407.361,cs),
(276.609,360.222,o),
(237.916,250.415,o),
(237.916,184.741,cs),
(237.916,151.179,o),
(248.01,135.832,o),
(262.99,135.832,cs),
(294.425,135.832,o),
(347.375,203.412,o),
(373.717,312.077,c)
);
},
{
closed = 1;
nodes = (
(615.862,135.851,o),
(691.16,317.705,o),
(670.179,438.632,c),
(670.179,444.179,l),
(685.722,470.403,o),
(729.616,501.102,o),
(773.002,501.102,cs),
(939.571,501.102,o),
(803.583,-0.543,o),
(511.214,-0.543,cs),
(314.87,-0.543,o),
(357.69,318.805,o),
(405.082,421.328,cs),
(421.027,455.821,o),
(486.18,499.494,o),
(536.42,499.494,cs),
(568.888,499.494,o),
(580.369,480.516,o),
(580.369,451.231,cs),
(580.369,380.474,o),
(513.342,249.547,o),
(513.342,180.753,cs),
(513.342,153.534,o),
(523.833,135.851,o),
(553.122,135.851,cs)
);
}
);
width = 838.51;
}
);
unicode = 119;
},
{
glyphname = x;
lastChange = "2023-05-31 15:18:45 +0000";
layers = (
{
annotations = (
{
pos = (676.554,-48.97);
type = Text;
}
);
layerId = "CDFC0212-EC7A-4000-86F8-EA19B9E6D7F9";
shapes = (
{
closed = 1;
nodes = (
(437.143,-6,o),
(472.067,69,o),
(478.5,156,c),
(471.148,159,l),
(464.714,145,o),
(455.524,137,o),
(443.577,137,cs),
(417.844,137,o),
(384.868,178,o),
(323.292,298,cs),
(289.288,364,o),
(235.984,507,o),
(163.38,507,cs),
(96.29,507,o),
(55.852,437,o),
(48.5,345,c),
(54.014,343,l),
(63.205,358,o),
(72.395,369,o),
(84.342,369,cs),
(107.318,369,o),
(142.242,326,o),
(201.06,192,cs),
(244.255,93,o),
(298.369,-6,o),
(363.62,-6,cs)
);
},
{
closed = 1;
nodes = (
(131,-6,o),
(208,53,o),
(215,200,c),
(194,235,l),
(169,170,o),
(113,130,o),
(40,130,cs),
(33,130,o),
(21,134,o),
(15,135,c),
(1,114,o),
(-5,92,o),
(-5,72,cs),
(-5,28,o),
(26,-6,o),
(70,-6,cs)
);
},
{
closed = 1;
nodes = (
(355,303,o),
(406,335,o),
(468,335,cs),
(478,335,o),
(487,334,o),
(497,333,c),
(518,368,o),
(526,401,o),
(526,428,cs),
(526,474,o),
(508,505,o),
(462,505,cs),
(406,505,o),
(328,431,o),
(307,265,c),
(328,250,l)
);
}
);
width = 540;
},
{
annotations = (
{
pos = (676.554,-48.97);
type = Text;
}
);
associatedMasterId = "CDFC0212-EC7A-4000-86F8-EA19B9E6D7F9";
layerId = "817E3B06-9F51-4FDC-B444-68BD2ED0A049";
name = "May 26, 23, 14:34";
shapes = (
{
closed = 1;
nodes = (
(56.618,437.086,o),
(94.456,506.764,o),
(172.635,506.764,cs),
(251.232,506.764,o),
(322.151,364.308,o),
(364.711,298.232,cs),
(476.565,124.57,o),
(528.277,115.06,o),
(547.059,158.679,c),
(555.323,156.266,l),
(555.323,68.641,o),
(524.251,-5.999,o),
(444.297,-5.999,cs),
(368.665,-5.999,o),
(291.468,92.553,o),
(235.731,191.705,cs),
(122.348,393.408,o),
(86.694,388.346,o),
(63.201,343.284,c),
(56.618,345.301,l)
);
},
{
closed = 1;
nodes = (
(371.542,641.27,o),
(625.28,520,o),
(529.976,332.963,c),
(453.708,343.16,o),
(395.248,317.578,o),
(354.033,209.85,c),
(332.44,225.112,l)
);
},
{
closed = 1;
nodes = (
(207.99,-148.177,o),
(-36.748,-2.27,o),
(39.556,134.767,c),
(115.824,124.57,o),
(214.284,175.515,o),
(255.499,283.243,c),
(287.092,267.981,l)
);
}
);
width = 591.05;
},
{
annotations = (
{
pos = (676.554,-48.97);
type = Text;
}
);
associatedMasterId = "CDFC0212-EC7A-4000-86F8-EA19B9E6D7F9";
layerId = "5AF5259D-54E3-4A10-B542-373E103D5AE2";
name = "May 31, 23, 11:16";
shapes = (
{
closed = 1;
nodes = (
(452,-6,o),
(490,69,o),
(497,156,c),
(489,159,l),
(482,145,o),
(472,137,o),
(459,137,cs),
(431,137,o),
(406,178,o),
(339,298,cs),
(302,364,o),
(244,507,o),
(165,507,cs),
(92,507,o),
(48,437,o),
(40,345,c),
(46,343,l),
(56,358,o),
(66,369,o),
(79,369,cs),
(104,369,o),
(142,326,o),
(206,192,cs),
(253,93,o),
(301,-6,o),
(372,-6,cs)
);
},
{
closed = 1;
nodes = (
(131,-6,o),
(208,53,o),
(215,200,c),
(194,235,l),
(169,170,o),
(113,130,o),
(40,130,cs),
(33,130,o),
(21,134,o),
(15,135,c),
(1,114,o),
(-5,92,o),
(-5,72,cs),
(-5,28,o),
(26,-6,o),
(70,-6,cs)
);
},
{
closed = 1;
nodes = (
(365,303,o),
(416,335,o),
(478,335,cs),
(488,335,o),
(497,334,o),
(507,333,c),
(528,368,o),
(536,401,o),
(536,428,cs),
(536,474,o),
(518,505,o),
(472,505,cs),
(416,505,o),
(338,431,o),
(317,265,c),
(338,250,l)
);
}
);
width = 550;
}
);
unicode = 120;
},
{
glyphname = y;
lastChange = "2023-05-25 05:26:58 +0000";
layers = (
{
associatedMasterId = "CDFC0212-EC7A-4000-86F8-EA19B9E6D7F9";
layerId = "23B80EC9-1AE7-4854-B9B3-27CE5434851F";
name = "May 25, 23, 01:26";
shapes = (
{
closed = 1;
nodes = (
(402.809,178.814,l),
(329.624,82.959,o),
(263.942,0.041,o),
(177.566,0.041,cs),
(98.867,0.041,o),
(47.571,41.857,o),
(47.571,126.988,cs),
(47.571,213.534,o),
(87.615,315.991,o),
(87.615,363.344,cs),
(87.615,404.007,o),
(45.43,396.973,o),
(25.849,368.475,c),
(20.151,371.525,l),
(20.151,453.984,o),
(89.204,500.168,o),
(151.822,500.168,cs),
(203.765,500.168,o),
(251.28,468.388,o),
(251.28,399.171,cs),
(251.28,305.05,o),
(212.189,199.952,o),
(212.189,142.174,cs),
(212.189,122.516,o),
(225.943,110.112,o),
(244.909,110.112,cs),
(271.963,110.112,o),
(325.065,155.501,o),
(332.41,228.596,c)
);
},
{
closed = 1;
nodes = (
(476.189,407.326,o),
(473.07,-283.663,o),
(244.293,-283.663,cs),
(86.658,-283.663,o),
(12.795,-83.281,o),
(322.532,124.978,c),
(340.871,91.076,l),
(123.342,-88.154,o),
(187.677,-171.497,o),
(212.532,-171.497,cs),
(260.32,-171.497,o),
(311.231,12.729,o),
(328.325,186.396,cs),
(339.744,302.405,o),
(344.997,413.702,o),
(344.997,462.227,cs),
(344.997,502.728,o),
(491.38,527.944,o),
(516.905,453.424,c),
(518.905,447.424,l)
);
}
);
width = 543.91;
},
{
background = {
shapes = (
{
closed = 0;
nodes = (
(284.772,108.755,l)
);
},
{
closed = 0;
nodes = (
(246.02,136.836,l)
);
}
);
};
layerId = "CDFC0212-EC7A-4000-86F8-EA19B9E6D7F9";
name = Regular;
shapes = (
{
closed = 1;
nodes = (
(371.888,225.335,l),
(304.696,137.33,o),
(255.393,41.202,o),
(176.09,41.202,cs),
(103.836,41.202,o),
(56.741,79.594,o),
(56.741,157.753,cs),
(56.741,237.212,o),
(93.506,334.951,o),
(93.506,378.426,cs),
(93.506,396.398,o),
(84.736,404.289,o),
(74.23,404.289,cs),
(62.566,404.289,o),
(48.763,394.564,o),
(42.445,378.11,c),
(25.001,396.473,l),
(35.998,457.341,o),
(94.639,502.674,o),
(156.664,502.674,cs),
(203.727,502.674,o),
(243.768,476.564,o),
(243.768,411.319,cs),
(243.768,324.906,o),
(207.878,224.742,o),
(207.878,171.696,cs),
(207.878,153.647,o),
(220.506,142.259,o),
(237.919,142.259,cs),
(262.757,142.259,o),
(311.511,183.931,o),
(318.254,251.04,c)
);
},
{
closed = 1;
nodes = (
(308.832,136.268,l),
(176.09,-32.505,o),
(184.144,-85.497,o),
(210.456,-85.497,cs),
(258.244,-85.497,o),
(295.271,12.729,o),
(312.365,186.396,cs),
(323.784,302.405,o),
(329.037,413.702,o),
(329.037,462.227,cs),
(329.037,502.728,o),
(475.42,527.944,o),
(500.945,453.424,c),
(502.945,447.424,l),
(490.572,435.809,o),
(483.691,376.8,o),
(474.599,298.826,cs),
(452.301,107.607,o),
(416.704,-199.663,o),
(254.194,-199.663,cs),
(109.964,-199.663,o),
(76.639,-48.664,o),
(240.02,136.836,c)
);
}
);
width = 522.95;
}
);
unicode = 121;
},
{
glyphname = z;
lastChange = "2023-06-01 16:36:54 +0000";
layers = (
{
layerId = "CDFC0212-EC7A-4000-86F8-EA19B9E6D7F9";
shapes = (
{
closed = 1;
nodes = (
(400,132,o),
(337,306,o),
(552.103,388.732,cs),
(558,391,o),
(564,395,o),
(570,393,c),
(572,445,o),
(524,503,o),
(440,517,c),
(257,433,o),
(263,223,o),
(34.25,83.59,cs),
(30,81,o),
(24,80,o),
(20,80,c),
(61,14,o),
(110,-5,o),
(152,-8,c)
);
},
{
closed = 1;
nodes = (
(529,-20,o),
(574,39,o),
(576,100,cs),
(578,160,o),
(536,219,o),
(465,214,cs),
(447,214,o),
(428,209,o),
(407,198,c),
(425,174,o),
(432,153,o),
(432,136,cs),
(431,106,o),
(406,89,o),
(376,89,cs),
(336,89,o),
(306,112,o),
(267,112,cs),
(241,112,o),
(212,102,o),
(174,66,c),
(172,10,l),
(201,38,o),
(225,48,o),
(245,48,cs),
(300,48,o),
(338,-25,o),
(422,-25,cs)
);
},
{
closed = 1;
nodes = (
(142,280,o),
(162,285,o),
(183,296,c),
(161,324,o),
(153,347,o),
(153.428,364.99,cs),
(154,389,o),
(173,403,o),
(202,403,cs),
(236,403,o),
(283,383,o),
(328,340,c),
(373,383,l),
(293,476,o),
(219,508,o),
(159,508,cs),
(78,508,o),
(24,448,o),
(22.182,397.993,cs),
(20,338,o),
(62,280,o),
(124,280,cs)
);
}
);
width = 581.07;
},
{
associatedMasterId = "CDFC0212-EC7A-4000-86F8-EA19B9E6D7F9";
backgroundImage = {
imagePath = "../../../../Downloads/Untitled_Artwork 4.jpg";
locked = 1;
pos = (-255.301,-164.879);
scale = (0.741,0.741);
};
layerId = "AF2CFBD9-5427-4567-A23D-76925D42934D";
name = "May 25, 23, 00:29";
shapes = (
{
closed = 1;
nodes = (
(148.877,66.477,l),
(239.783,154.548,o),
(283.553,78.82,o),
(349.535,78.82,cs),
(397.42,78.82,o),
(428.914,132.415,o),
(377.002,197.551,c),
(467.603,247.28,o),
(541.563,172.672,o),
(541.563,95.237,cs),
(541.563,34.027,o),
(498.427,-24.699,o),
(400.197,-24.699,cs),
(283.553,-24.699,o),
(251.729,113.249,o),
(148.877,9.76,c)
);
},
{
closed = 1;
nodes = (
(354.976,336.895,l),
(242.696,441.755,o),
(110.025,402.525,o),
(201.378,287.902,c),
(110.777,238.172,o),
(37.098,312.78,o),
(37.098,390.216,cs),
(37.098,477.091,o),
(193.071,593.916,o),
(388.459,374.634,c)
);
},
{
closed = 1;
nodes = (
(483.451,489.679,o),
(539.286,444.29,o),
(538.759,393.213,c),
(532.83,395.328,o),
(526.49,391.156,o),
(521.175,388.676,cs),
(342.233,305.181,o),
(371.976,131.812,o),
(128.688,-8.079,c),
(87.452,-5.355,o),
(36.937,33.507,o),
(26.578,80.23,c),
(31.4,79.599,o),
(36.937,81.471,o),
(40.859,83.893,cs),
(265.415,222.593,o),
(251.729,420.319,o),
(431.385,504.396,c)
);
}
);
width = 552.81;
},
{
associatedMasterId = "CDFC0212-EC7A-4000-86F8-EA19B9E6D7F9";
backgroundImage = {
imagePath = "../../../../Downloads/Untitled_Artwork 4.jpg";
locked = 1;
pos = (-271.881,-164.879);
scale = (0.741,0.741);
};
layerId = "C50E4439-B3B8-4117-80C3-7E17F0A3201E";
name = "May 26, 23, 14:34";
shapes = (
{
closed = 1;
nodes = (
(132.297,66.477,l),
(223.203,154.548,o),
(266.973,88.82,o),
(332.955,88.82,cs),
(380.84,88.82,o),
(412.334,132.415,o),
(360.422,197.551,c),
(451.023,247.28,o),
(524.983,172.672,o),
(524.983,95.237,cs),
(524.983,34.027,o),
(481.847,-24.699,o),
(383.617,-24.699,cs),
(266.973,-24.699,o),
(235.149,113.249,o),
(132.297,9.76,c)
);
},
{
closed = 1;
nodes = (
(328.396,338.895,l),
(216.116,443.755,o),
(93.445,409.525,o),
(184.798,294.902,c),
(94.197,245.172,o),
(20.518,319.78,o),
(20.518,397.216,cs),
(20.518,484.091,o),
(176.491,600.916,o),
(371.879,381.634,c)
);
},
{
closed = 1;
nodes = (
(466.871,502.679,o),
(516.706,455.29,o),
(516.179,404.213,c),
(510.25,406.328,o),
(503.91,402.156,o),
(498.595,399.676,cs),
(319.653,316.181,o),
(355.396,131.812,o),
(112.108,-8.079,c),
(70.872,-5.355,o),
(20.357,33.507,o),
(9.998,80.23,c),
(14.82,79.599,o),
(20.357,81.471,o),
(24.279,83.893,cs),
(248.835,222.593,o),
(235.149,433.319,o),
(414.805,517.396,c)
);
}
);
width = 536.23;
},
{
associatedMasterId = "CDFC0212-EC7A-4000-86F8-EA19B9E6D7F9";
backgroundImage = {
imagePath = "../../../../Downloads/Untitled_Artwork 4.jpg";
locked = 1;
pos = (-271.881,-164.879);
scale = (0.741,0.741);
};
layerId = "1FA099B9-413F-427D-9320-BEE78BC88FCD";
name = "May 31, 23, 11:10";
shapes = (
{
closed = 1;
nodes = (
(367,132,o),
(347,316,o),
(529,400,cs),
(535,402,o),
(541,406,o),
(547,404,c),
(549,455,o),
(501,503,o),
(450,517,c),
(267,433,o),
(263,223,o),
(34,84,cs),
(30,81,o),
(24,80,o),
(20,80,c),
(28,34,o),
(77,-5,o),
(119,-8,c)
);
},
{
closed = 1;
nodes = (
(496,-20,o),
(541,39,o),
(543,100,cs),
(545,160,o),
(503,219,o),
(432,214,cs),
(414,214,o),
(395,209,o),
(374,198,c),
(392,174,o),
(399,153,o),
(399,136,cs),
(398,106,o),
(373,89,o),
(343,89,cs),
(303,89,o),
(273,112,o),
(234,112,cs),
(208,112,o),
(179,102,o),
(141,66,c),
(139,10,l),
(168,38,o),
(192,48,o),
(212,48,cs),
(267,48,o),
(305,-25,o),
(389,-25,cs)
);
},
{
closed = 1;
nodes = (
(152,280,o),
(172,285,o),
(193,296,c),
(171,324,o),
(163,347,o),
(163,365,cs),
(164,389,o),
(183,403,o),
(212,403,cs),
(246,403,o),
(293,383,o),
(338,340,c),
(383,383,l),
(303,476,o),
(229,508,o),
(169,508,cs),
(88,508,o),
(34,448,o),
(32,398,cs),
(30,338,o),
(72,280,o),
(134,280,cs)
);
}
);
width = 552.06;
}
);
unicode = 122;
},
{
glyphname = o.001;
lastChange = "2023-04-18 18:30:17 +0000";
layers = (
{
background = {
shapes = (
{
closed = 1;
nodes = (
(554,-17,o),
(610,518,o),
(294,518,cs),
(-7,518,o),
(-70,-17,o),
(250,-17,cs)
);
},
{
closed = 1;
nodes = (
(176,79,o),
(186,422,o),
(270,422,cs),
(376,422,o),
(352,79,o),
(270,79,cs)
);
}
);
};
layerId = "CDFC0212-EC7A-4000-86F8-EA19B9E6D7F9";
shapes = (
{
closed = 1;
nodes = (
(554,-17,o),
(610,518,o),
(294,518,cs),
(-7,518,o),
(-70,-17,o),
(250,-17,cs)
);
},
{
closed = 1;
nodes = (
(176,79,o),
(186,422,o),
(270,422,cs),
(376,422,o),
(352,79,o),
(270,79,cs)
);
}
);
width = 547;
}
);
},
{
glyphname = "ha-ethiopic";
lastChange = "2023-04-18 18:30:17 +0000";
layers = (
{
background = {
shapes = (
{
closed = 1;
nodes = (
(409,592,o),
(405,606,o),
(386,610,c),
(394,636,o),
(416,678,o),
(470,678,c),
(525,678,o),
(537,653,o),
(543,589,c),
(550,501,o),
(529,401,o),
(514,319,c),
(491,191,o),
(432,59,o),
(252,8,c),
(229,2,o),
(199,-2,o),
(157,3,c),
(96,12,o),
(41,67,o),
(53,167,c),
(65,269,o),
(85,347,o),
(97,447,c),
(99,462,o),
(117,571,o),
(77,590,c),
(128,655,o),
(232,643,o),
(232,542,c),
(232,527,o),
(230,514,o),
(228,501,c),
(203,355,o),
(203,324,o),
(182,181,c),
(163,65,o),
(227,54,o),
(266,74,c),
(322,103,o),
(361,154,o),
(389,320,c),
(402,397,o),
(430,506,o),
(415,568,c)
);
}
);
};
layerId = "CDFC0212-EC7A-4000-86F8-EA19B9E6D7F9";
shapes = (
{
closed = 1;
nodes = (
(409,592,o),
(405,606,o),
(386,610,c),
(394,636,o),
(416,678,o),
(470,678,c),
(525,678,o),
(537,653,o),
(543,589,c),
(550,501,o),
(529,401,o),
(514,319,c),
(491,191,o),
(432,59,o),
(252,8,c),
(229,2,o),
(199,-2,o),
(157,3,c),
(96,12,o),
(41,67,o),
(53,167,c),
(65,269,o),
(85,347,o),
(97,447,c),
(99,462,o),
(117,571,o),
(77,590,c),
(128,655,o),
(232,643,o),
(232,542,c),
(232,527,o),
(230,514,o),
(228,501,c),
(203,355,o),
(203,324,o),
(182,181,c),
(163,65,o),
(227,54,o),
(266,74,c),
(322,103,o),
(361,154,o),
(389,320,c),
(402,397,o),
(430,506,o),
(415,568,c)
);
}
);
width = 600;
}
);
unicode = 4608;
},
{
glyphname = "ma-ethiopic";
lastChange = "2023-04-18 18:30:17 +0000";
layers = (
{
background = {
shapes = (
{
closed = 1;
nodes = (
(368.304,547.294,o),
(380.361,552.328,o),
(386.218,564.181,c),
(392.656,577.21,o),
(387.621,589.069,o),
(374.101,592.722,c),
(340.539,601.79,o),
(313.032,602.095,o),
(297.252,602.095,c),
(89.717,602.095,o),
(18.733,451.658,o),
(2.292,240.753,c),
(-8,111.049,o),
(42.376,-1.995,o),
(199.863,0.163,c),
(358.14,2.363,o),
(424.34,84.625,o),
(444.238,326.903,c),
(446.752,357.516,o),
(458.639,560.086,o),
(499.645,567.984,c),
(529.052,573.648,o),
(536.64,557.765,o),
(523.023,450.038,c),
(501.684,281.214,l),
(498.5,259.507,o),
(500.171,247.282,o),
(500.171,236.436,c),
(500.171,128.882,o),
(533.236,65.137,o),
(633.816,47.998,c),
(802.293,17.118,o),
(926.003,122.551,o),
(940.397,319.823,c),
(954.11,503.598,o),
(850.094,609.828,o),
(675.086,575.984,c),
(660.546,573.172,o),
(652.27,560.806,o),
(654.839,545.733,c),
(657.263,531.507,o),
(668.041,524.073,o),
(683.656,525.858,c),
(745.719,532.951,o),
(828.385,503.866,o),
(814.656,336.53,c),
(805.575,231.588,o),
(774.71,121.751,o),
(712.763,104.698,c),
(583.888,69.221,o),
(620.92,230.543,o),
(627.626,282.49,c),
(655.65,499.592,o),
(687.87,635.991,o),
(508.104,628.712,c),
(384.683,623.716,o),
(348.779,534.507,o),
(332.072,426.681,c),
(320.923,354.723,o),
(317.256,65.768,o),
(209.336,66.817,c),
(132.369,67.238,o),
(115.361,148.374,o),
(126.842,226.345,c),
(146.752,371.081,o),
(167.477,555.396,o),
(306.027,555.396,c),
(321.332,555.396,o),
(339.255,553.169,o),
(353.125,550.364,c)
);
}
);
};
layerId = "CDFC0212-EC7A-4000-86F8-EA19B9E6D7F9";
shapes = (
{
closed = 1;
nodes = (
(368.304,547.294,o),
(380.361,552.328,o),
(386.218,564.181,c),
(392.656,577.21,o),
(387.621,589.069,o),
(374.101,592.722,c),
(340.539,601.79,o),
(313.032,602.095,o),
(297.252,602.095,c),
(89.717,602.095,o),
(18.733,451.658,o),
(2.292,240.753,c),
(-8,111.049,o),
(42.376,-1.995,o),
(199.863,0.163,c),
(358.14,2.363,o),
(424.34,84.625,o),
(444.238,326.903,c),
(446.752,357.516,o),
(458.639,560.086,o),
(499.645,567.984,c),
(529.052,573.648,o),
(536.64,557.765,o),
(523.023,450.038,c),
(501.684,281.214,l),
(498.5,259.507,o),
(500.171,247.282,o),
(500.171,236.436,c),
(500.171,128.882,o),
(533.236,65.137,o),
(633.816,47.998,c),
(802.293,17.118,o),
(926.003,122.551,o),
(940.397,319.823,c),
(954.11,503.598,o),
(850.094,609.828,o),
(675.086,575.984,c),
(660.546,573.172,o),
(652.27,560.806,o),
(654.839,545.733,c),
(657.263,531.507,o),
(668.041,524.073,o),
(683.656,525.858,c),
(745.719,532.951,o),
(828.385,503.866,o),
(814.656,336.53,c),
(805.575,231.588,o),
(774.71,121.751,o),
(712.763,104.698,c),
(583.888,69.221,o),
(620.92,230.543,o),
(627.626,282.49,c),
(655.65,499.592,o),
(687.87,635.991,o),
(508.104,628.712,c),
(384.683,623.716,o),
(348.779,534.507,o),
(332.072,426.681,c),
(320.923,354.723,o),
(317.256,65.768,o),
(209.336,66.817,c),
(132.369,67.238,o),
(115.361,148.374,o),
(126.842,226.345,c),
(146.752,371.081,o),
(167.477,555.396,o),
(306.027,555.396,c),
(321.332,555.396,o),
(339.255,553.169,o),
(353.125,550.364,c)
);
}
);
width = 942;
}
);
unicode = 4632;
},
{
glyphname = "aPharyngeal-ethiopic";
lastChange = "2023-04-18 18:30:17 +0000";
layers = (
{
background = {
shapes = (
{
closed = 1;
nodes = (
(383,678,o),
(363,675,o),
(344,670,c),
(130,610,o),
(89,436,o),
(63,241,c),
(59,208,o),
(51,174,o),
(51,140,c),
(51,51,o),
(106,1,o),
(194,1,c),
(256,1,o),
(329,32,o),
(378,70,c),
(496,161,o),
(515,299,o),
(533,436,c),
(537,470,o),
(545,504,o),
(545,538,c),
(545,628,o),
(491,678,o),
(403,678,c)
);
},
{
closed = 1;
nodes = (
(191,66,o),
(178,107,o),
(178,143,c),
(178,185,o),
(187,230,o),
(195,272,c),
(222,417,o),
(227,552,o),
(330,604,c),
(340,609,o),
(351,612,o),
(362,612,c),
(406,612,o),
(418,571,o),
(418,535,c),
(418,494,o),
(408,452,o),
(402,412,c),
(388,307,o),
(366,127,o),
(266,74,c),
(256,69,o),
(245,66,o),
(234,66,c)
);
}
);
};
layerId = "CDFC0212-EC7A-4000-86F8-EA19B9E6D7F9";
shapes = (
{
closed = 1;
nodes = (
(383,678,o),
(363,675,o),
(344,670,c),
(130,610,o),
(89,436,o),
(63,241,c),
(59,208,o),
(51,174,o),
(51,140,c),
(51,51,o),
(106,1,o),
(194,1,c),
(256,1,o),
(329,32,o),
(378,70,c),
(496,161,o),
(515,299,o),
(533,436,c),
(537,470,o),
(545,504,o),
(545,538,c),
(545,628,o),
(491,678,o),
(403,678,c)
);
},
{
closed = 1;
nodes = (
(191,66,o),
(178,107,o),
(178,143,c),
(178,185,o),
(187,230,o),
(195,272,c),
(222,417,o),
(227,552,o),
(330,604,c),
(340,609,o),
(351,612,o),
(362,612,c),
(406,612,o),
(418,571,o),
(418,535,c),
(418,494,o),
(408,452,o),
(402,412,c),
(388,307,o),
(366,127,o),
(266,74,c),
(256,69,o),
(245,66,o),
(234,66,c)
);
}
);
width = 600;
}
);
unicode = 4816;
},
{
glyphname = "za-ethiopic";
lastChange = "2023-04-18 18:30:17 +0000";
layers = (
{
background = {
shapes = (
{
closed = 1;
nodes = (
(163,345,l),
(219,458,o),
(341,339,o),
(353,509,c),
(363,396,l),
(323,304,o),
(182,387,o),
(164,242,c)
);
},
{
closed = 1;
nodes = (
(487,422,o),
(427,213,o),
(467,44,c),
(467,37,l),
(416,-17,o),
(290,-21,o),
(290,85,cs),
(290,152,o),
(307,246,o),
(318,312,cs),
(327,370,o),
(342,430,o),
(350,478,cs),
(359,532,o),
(348,585,o),
(330,596,c),
(330,602,l),
(387,667,o),
(506,658,o),
(506,554,c)
);
},
{
closed = 1;
nodes = (
(223,529,o),
(222,516,o),
(219,505,c),
(208,441,o),
(189,363,o),
(173,285,cs),
(156,197,o),
(167,220,o),
(167,74,cs),
(167,-23,o),
(0,-25,o),
(0,69,cs),
(0,158,o),
(14,219,o),
(35,329,cs),
(57,440,o),
(66,552,o),
(45,587,c),
(45,593,l),
(118,675,o),
(223,654,o),
(223,542,cs)
);
}
);
};
layerId = "CDFC0212-EC7A-4000-86F8-EA19B9E6D7F9";
shapes = (
{
closed = 1;
nodes = (
(163,345,l),
(219,458,o),
(341,339,o),
(353,509,c),
(363,396,l),
(323,304,o),
(182,387,o),
(164,242,c)
);
},
{
closed = 1;
nodes = (
(487,422,o),
(427,213,o),
(467,44,c),
(467,37,l),
(416,-17,o),
(290,-21,o),
(290,85,cs),
(290,152,o),
(307,246,o),
(318,312,cs),
(327,370,o),
(342,430,o),
(350,478,cs),
(359,532,o),
(348,585,o),
(330,596,c),
(330,602,l),
(387,667,o),
(506,658,o),
(506,554,c)
);
},
{
closed = 1;
nodes = (
(223,529,o),
(222,516,o),
(219,505,c),
(208,441,o),
(189,363,o),
(173,285,cs),
(156,197,o),
(167,220,o),
(167,74,cs),
(167,-23,o),
(0,-25,o),
(0,69,cs),
(0,158,o),
(14,219,o),
(35,329,cs),
(57,440,o),
(66,552,o),
(45,587,c),
(45,593,l),
(118,675,o),
(223,654,o),
(223,542,cs)
);
}
);
width = 600;
}
);
unicode = 4824;
},
{
glyphname = "za-ethiopic.001";
lastChange = "2023-04-18 18:30:17 +0000";
layers = (
{
background = {
shapes = (
{
closed = 1;
nodes = (
(398,529,o),
(388,563,o),
(388,668,cs),
(388,742,o),
(571,767,o),
(571,706,cs),
(571,624,o),
(517,201,o),
(517,143,cs),
(517,118,o),
(523,103,o),
(541,103,c),
(556,103,o),
(567,111,o),
(574,126,c),
(589,98,l),
(572,46,o),
(526,0,o),
(455,0,cs),
(373,0,o),
(351,53,o),
(351,120,cs),
(351,169,o),
(371,332,o),
(387,453,c),
(388,463,o),
(390,473,o),
(391,483,c)
);
},
{
closed = 1;
nodes = (
(0,643,l),
(39,702,o),
(92,735,o),
(158,735,cs),
(225,735,o),
(251,688,o),
(251,626,cs),
(251,544,o),
(197,201,o),
(197,143,cs),
(197,118,o),
(203,103,o),
(221,103,c),
(236,103,o),
(247,111,o),
(254,126,c),
(269,98,l),
(252,46,o),
(206,0,o),
(135,0,cs),
(53,0,o),
(31,53,o),
(31,120,cs),
(31,193,o),
(77,517,o),
(85,576,cs),
(86,585,o),
(87,594,o),
(87,601,cs),
(87,629,o),
(77,640,o),
(64,640,cs),
(51,640,o),
(35,628,o),
(24,613,c)
);
},
{
closed = 1;
nodes = (
(137,485,l),
(247,468,o),
(348,482,o),
(458,525,c),
(458,443,l),
(348,400,o),
(247,386,o),
(137,403,c)
);
}
);
};
layerId = "CDFC0212-EC7A-4000-86F8-EA19B9E6D7F9";
shapes = (
{
closed = 1;
nodes = (
(398,529,o),
(388,563,o),
(388,668,cs),
(388,742,o),
(571,767,o),
(571,706,cs),
(571,624,o),
(517,201,o),
(517,143,cs),
(517,118,o),
(523,103,o),
(541,103,c),
(556,103,o),
(567,111,o),
(574,126,c),
(589,98,l),
(572,46,o),
(526,0,o),
(455,0,cs),
(373,0,o),
(351,53,o),
(351,120,cs),
(351,169,o),
(371,332,o),
(387,453,c),
(388,463,o),
(390,473,o),
(391,483,c)
);
},
{
closed = 1;
nodes = (
(0,643,l),
(39,702,o),
(92,735,o),
(158,735,cs),
(225,735,o),
(251,688,o),
(251,626,cs),
(251,544,o),
(197,201,o),
(197,143,cs),
(197,118,o),
(203,103,o),
(221,103,c),
(236,103,o),
(247,111,o),
(254,126,c),
(269,98,l),
(252,46,o),
(206,0,o),
(135,0,cs),
(53,0,o),
(31,53,o),
(31,120,cs),
(31,193,o),
(77,517,o),
(85,576,cs),
(86,585,o),
(87,594,o),
(87,601,cs),
(87,629,o),
(77,640,o),
(64,640,cs),
(51,640,o),
(35,628,o),
(24,613,c)
);
},
{
closed = 1;
nodes = (
(137,485,l),
(247,468,o),
(348,482,o),
(458,525,c),
(458,443,l),
(348,400,o),
(247,386,o),
(137,403,c)
);
}
);
width = 600;
}
);
},
{
glyphname = "za-ethiopic.002";
lastChange = "2023-04-18 18:30:17 +0000";
layers = (
{
background = {
shapes = (
{
closed = 1;
nodes = (
(398,529,o),
(388,563,o),
(388,668,cs),
(388,742,o),
(571,767,o),
(571,706,cs),
(571,624,o),
(517,201,o),
(517,143,cs),
(517,118,o),
(523,103,o),
(541,103,c),
(556,103,o),
(567,111,o),
(574,126,c),
(589,98,l),
(572,46,o),
(526,0,o),
(455,0,cs),
(373,0,o),
(351,53,o),
(351,120,cs),
(351,169,o),
(371,332,o),
(387,453,c),
(388,463,o),
(390,473,o),
(391,483,c)
);
},
{
closed = 1;
nodes = (
(137,485,l),
(247,468,o),
(348,482,o),
(458,525,c),
(458,443,l),
(348,400,o),
(247,386,o),
(137,403,c)
);
},
{
closed = 1;
nodes = (
(96,585,o),
(97,594,o),
(97,601,cs),
(97,629,o),
(87,640,o),
(74,640,cs),
(61,640,o),
(45,628,o),
(34,613,c),
(10,643,l),
(49,702,o),
(102,735,o),
(168,735,cs),
(235,735,o),
(253,688,o),
(253,626,cs),
(253,524,o),
(204,168,o),
(204,66,cs),
(204,-8,o),
(34,-23,o),
(34,38,cs),
(34,103,o),
(86,511,o),
(95,576,c)
);
}
);
};
layerId = "CDFC0212-EC7A-4000-86F8-EA19B9E6D7F9";
shapes = (
{
closed = 1;
nodes = (
(398,529,o),
(388,563,o),
(388,668,cs),
(388,742,o),
(571,767,o),
(571,706,cs),
(571,624,o),
(517,201,o),
(517,143,cs),
(517,118,o),
(523,103,o),
(541,103,c),
(556,103,o),
(567,111,o),
(574,126,c),
(589,98,l),
(572,46,o),
(526,0,o),
(455,0,cs),
(373,0,o),
(351,53,o),
(351,120,cs),
(351,169,o),
(371,332,o),
(387,453,c),
(388,463,o),
(390,473,o),
(391,483,c)
);
},
{
closed = 1;
nodes = (
(137,485,l),
(247,468,o),
(348,482,o),
(458,525,c),
(458,443,l),
(348,400,o),
(247,386,o),
(137,403,c)
);
},
{
closed = 1;
nodes = (
(96,585,o),
(97,594,o),
(97,601,cs),
(97,629,o),
(87,640,o),
(74,640,cs),
(61,640,o),
(45,628,o),
(34,613,c),
(10,643,l),
(49,702,o),
(102,735,o),
(168,735,cs),
(235,735,o),
(253,688,o),
(253,626,cs),
(253,524,o),
(204,168,o),
(204,66,cs),
(204,-8,o),
(34,-23,o),
(34,38,cs),
(34,103,o),
(86,511,o),
(95,576,c)
);
}
);
width = 600;
}
);
},
{
glyphname = "za-ethiopic.003";
lastChange = "2023-04-18 18:30:17 +0000";
layers = (
{
background = {
shapes = (
{
closed = 1;
nodes = (
(398,529,o),
(388,544,o),
(388,649,cs),
(388,784,o),
(571,767,o),
(571,632,cs),
(571,550,o),
(517,201,o),
(517,143,cs),
(517,118,o),
(523,103,o),
(541,103,c),
(556,103,o),
(567,111,o),
(574,126,c),
(589,98,l),
(572,46,o),
(526,0,o),
(455,0,cs),
(373,0,o),
(351,53,o),
(351,120,cs),
(351,169,o),
(371,332,o),
(387,453,c),
(388,463,o),
(390,473,o),
(391,483,c)
);
},
{
closed = 1;
nodes = (
(0,643,l),
(39,702,o),
(92,735,o),
(158,735,cs),
(225,735,o),
(251,688,o),
(251,626,cs),
(251,544,o),
(197,201,o),
(197,143,cs),
(197,118,o),
(203,103,o),
(221,103,c),
(236,103,o),
(247,111,o),
(254,126,c),
(269,98,l),
(252,46,o),
(206,0,o),
(135,0,cs),
(53,0,o),
(31,53,o),
(31,120,cs),
(31,193,o),
(77,517,o),
(85,576,cs),
(86,585,o),
(87,594,o),
(87,601,cs),
(87,629,o),
(77,640,o),
(64,640,cs),
(51,640,o),
(35,628,o),
(24,613,c)
);
},
{
closed = 1;
nodes = (
(137,485,l),
(247,468,o),
(348,482,o),
(458,525,c),
(458,443,l),
(348,400,o),
(247,386,o),
(137,403,c)
);
}
);
};
layerId = "CDFC0212-EC7A-4000-86F8-EA19B9E6D7F9";
shapes = (
{
closed = 1;
nodes = (
(398,529,o),
(388,544,o),
(388,649,cs),
(388,784,o),
(571,767,o),
(571,632,cs),
(571,550,o),
(517,201,o),
(517,143,cs),
(517,118,o),
(523,103,o),
(541,103,c),
(556,103,o),
(567,111,o),
(574,126,c),
(589,98,l),
(572,46,o),
(526,0,o),
(455,0,cs),
(373,0,o),
(351,53,o),
(351,120,cs),
(351,169,o),
(371,332,o),
(387,453,c),
(388,463,o),
(390,473,o),
(391,483,c)
);
},
{
closed = 1;
nodes = (
(0,643,l),
(39,702,o),
(92,735,o),
(158,735,cs),
(225,735,o),
(251,688,o),
(251,626,cs),
(251,544,o),
(197,201,o),
(197,143,cs),
(197,118,o),
(203,103,o),
(221,103,c),
(236,103,o),
(247,111,o),
(254,126,c),
(269,98,l),
(252,46,o),
(206,0,o),
(135,0,cs),
(53,0,o),
(31,53,o),
(31,120,cs),
(31,193,o),
(77,517,o),
(85,576,cs),
(86,585,o),
(87,594,o),
(87,601,cs),
(87,629,o),
(77,640,o),
(64,640,cs),
(51,640,o),
(35,628,o),
(24,613,c)
);
},
{
closed = 1;
nodes = (
(137,485,l),
(247,468,o),
(348,482,o),
(458,525,c),
(458,443,l),
(348,400,o),
(247,386,o),
(137,403,c)
);
}
);
width = 600;
}
);
},
{
glyphname = "za-ethiopic.alt";
lastChange = "2023-04-18 18:30:17 +0000";
layers = (
{
background = {
shapes = (
{
closed = 1;
nodes = (
(137.178,351.143,l),
(208.372,453.294,o),
(310.699,338.291,o),
(345.44,490.258,c),
(364.397,380.33,l),
(311.377,302.756,o),
(172.824,411.256,o),
(139.01,262.027,c)
);
},
{
closed = 1;
nodes = (
(464.893,583.574,o),
(460.804,570.817,o),
(459.194,559.504,c),
(403.734,170.026,l),
(398.518,133.39,o),
(398.167,62.604,o),
(422.512,39.705,c),
(395.563,12.697,o),
(370.853,0.939,o),
(349.471,0.939,c),
(311.779,0.939,o),
(284.426,37.477,o),
(284.426,91.432,c),
(284.426,163.323,o),
(301.992,263.505,o),
(314.145,336.351,c),
(324.471,398.254,o),
(339.686,462.267,o),
(348.822,514.453,c),
(361.493,592.74,o),
(349.088,624.317,o),
(326.883,648.224,c),
(352.172,675.232,o),
(377.236,686.99,o),
(398.925,686.99,c),
(437.158,686.99,o),
(465.286,650.322,o),
(464.969,596.497,c)
);
},
{
closed = 1;
nodes = (
(202.362,569.322,o),
(200.51,555.001,o),
(198.435,542.92,c),
(173.224,396.198,o),
(147.962,341.14,o),
(127.032,194.327,c),
(125.529,183.786,o),
(125.362,170.249,o),
(125.362,157.724,c),
(125.362,117.898,o),
(132.362,73.076,o),
(132.362,41.315,c),
(132.362,20.95,o),
(103.762,5.676,o),
(68.639,5.676,c),
(35.365,5.676,o),
(1.01,27.281,o),
(1.01,81.292,c),
(1.01,169.331,o),
(29.564,243.507,o),
(44.623,332.674,c),
(55.623,397.802,o),
(71.433,456.309,o),
(79.732,510.346,c),
(90.847,582.708,o),
(89.764,618.086,o),
(63.955,638.224,c),
(90.924,665.232,o),
(115.652,676.99,o),
(137.051,676.99,c),
(174.773,676.99,o),
(202.354,637.322,o),
(202.148,583.28,c)
);
}
);
};
layerId = "CDFC0212-EC7A-4000-86F8-EA19B9E6D7F9";
shapes = (
{
closed = 1;
nodes = (
(137.178,351.143,l),
(208.372,453.294,o),
(310.699,338.291,o),
(345.44,490.258,c),
(364.397,380.33,l),
(311.377,302.756,o),
(172.824,411.256,o),
(139.01,262.027,c)
);
},
{
closed = 1;
nodes = (
(464.893,583.574,o),
(460.804,570.817,o),
(459.194,559.504,c),
(403.734,170.026,l),
(398.518,133.39,o),
(398.167,62.604,o),
(422.512,39.705,c),
(395.563,12.697,o),
(370.853,0.939,o),
(349.471,0.939,c),
(311.779,0.939,o),
(284.426,37.477,o),
(284.426,91.432,c),
(284.426,163.323,o),
(301.992,263.505,o),
(314.145,336.351,c),
(324.471,398.254,o),
(339.686,462.267,o),
(348.822,514.453,c),
(361.493,592.74,o),
(349.088,624.317,o),
(326.883,648.224,c),
(352.172,675.232,o),
(377.236,686.99,o),
(398.925,686.99,c),
(437.158,686.99,o),
(465.286,650.322,o),
(464.969,596.497,c)
);
},
{
closed = 1;
nodes = (
(202.362,569.322,o),
(200.51,555.001,o),
(198.435,542.92,c),
(173.224,396.198,o),
(147.962,341.14,o),
(127.032,194.327,c),
(125.529,183.786,o),
(125.362,170.249,o),
(125.362,157.724,c),
(125.362,117.898,o),
(132.362,73.076,o),
(132.362,41.315,c),
(132.362,20.95,o),
(103.762,5.676,o),
(68.639,5.676,c),
(35.365,5.676,o),
(1.01,27.281,o),
(1.01,81.292,c),
(1.01,169.331,o),
(29.564,243.507,o),
(44.623,332.674,c),
(55.623,397.802,o),
(71.433,456.309,o),
(79.732,510.346,c),
(90.847,582.708,o),
(89.764,618.086,o),
(63.955,638.224,c),
(90.924,665.232,o),
(115.652,676.99,o),
(137.051,676.99,c),
(174.773,676.99,o),
(202.354,637.322,o),
(202.148,583.28,c)
);
}
);
width = 600;
}
);
},
{
glyphname = a.alt;
lastChange = "2023-04-18 18:30:17 +0000";
layers = (
{
background = {
shapes = (
{
closed = 1;
nodes = (
(164,332,l),
(121,551,o),
(515,553,o),
(515,319,cs),
(515,223,o),
(469,83,o),
(535,83,c),
(564,98,l),
(578,63,o),
(536,-6,o),
(450,-6,cs),
(336,-6,o),
(337,117,o),
(337,132,c),
(342,163,o),
(341,175,o),
(346,201,cs),
(397,491,o),
(136,464,o),
(189,300,c)
);
},
{
closed = 1;
nodes = (
(381,160,l),
(327,-39,o),
(30,-81,o),
(30,150,cs),
(30,382,o),
(326,353,o),
(380,210,c)
);
},
{
closed = 1;
nodes = (
(341,184,l),
(295,280,o),
(191,250,o),
(191,160,cs),
(191,60,o),
(312,91,o),
(340,158,c)
);
}
);
};
layerId = "CDFC0212-EC7A-4000-86F8-EA19B9E6D7F9";
shapes = (
{
closed = 1;
nodes = (
(164,332,l),
(121,551,o),
(515,553,o),
(515,319,cs),
(515,223,o),
(469,83,o),
(535,83,c),
(564,98,l),
(578,63,o),
(536,-6,o),
(450,-6,cs),
(336,-6,o),
(337,117,o),
(337,132,c),
(342,163,o),
(341,175,o),
(346,201,cs),
(397,491,o),
(136,464,o),
(189,300,c)
);
},
{
closed = 1;
nodes = (
(381,160,l),
(327,-39,o),
(30,-81,o),
(30,150,cs),
(30,382,o),
(326,353,o),
(380,210,c)
);
},
{
closed = 1;
nodes = (
(341,184,l),
(295,280,o),
(191,250,o),
(191,160,cs),
(191,60,o),
(312,91,o),
(340,158,c)
);
}
);
width = 597;
}
);
},
{
glyphname = a.alt1;
lastChange = "2023-04-18 18:30:17 +0000";
layers = (
{
background = {
shapes = (
{
closed = 1;
nodes = (
(381,160,l),
(327,-39,o),
(30,-81,o),
(30,150,cs),
(30,382,o),
(326,353,o),
(380,210,c)
);
},
{
closed = 1;
nodes = (
(341,184,l),
(295,280,o),
(191,250,o),
(191,160,cs),
(191,60,o),
(312,91,o),
(340,158,c)
);
},
{
closed = 1;
nodes = (
(229,298,l),
(43,472,o),
(597,676,o),
(522,245,cs),
(509,168,o),
(495,103,o),
(532,103,c),
(547,103,o),
(558,111,o),
(565,126,c),
(580,98,l),
(563,46,o),
(517,0,o),
(441,0,cs),
(360,0,o),
(337,48,o),
(337,108,cs),
(337,150,o),
(349,199,o),
(359,243,cs),
(408,458,o),
(148,463,o),
(263,296,c)
);
}
);
};
layerId = "CDFC0212-EC7A-4000-86F8-EA19B9E6D7F9";
shapes = (
{
closed = 1;
nodes = (
(381,160,l),
(327,-39,o),
(30,-81,o),
(30,150,cs),
(30,382,o),
(326,353,o),
(380,210,c)
);
},
{
closed = 1;
nodes = (
(341,184,l),
(295,280,o),
(191,250,o),
(191,160,cs),
(191,60,o),
(312,91,o),
(340,158,c)
);
},
{
closed = 1;
nodes = (
(229,298,l),
(43,472,o),
(597,676,o),
(522,245,cs),
(509,168,o),
(495,103,o),
(532,103,c),
(547,103,o),
(558,111,o),
(565,126,c),
(580,98,l),
(563,46,o),
(517,0,o),
(441,0,cs),
(360,0,o),
(337,48,o),
(337,108,cs),
(337,150,o),
(349,199,o),
(359,243,cs),
(408,458,o),
(148,463,o),
(263,296,c)
);
}
);
width = 597;
}
);
},
{
glyphname = a.alt2;
lastChange = "2023-04-18 18:30:17 +0000";
layers = (
{
background = {
shapes = (
{
closed = 1;
nodes = (
(95,418,l),
(190,548,o),
(515,553,o),
(515,319,cs),
(515,223,o),
(469,83,o),
(535,83,c),
(564,98,l),
(578,63,o),
(536,-6,o),
(450,-6,cs),
(336,-6,o),
(337,117,o),
(337,132,c),
(342,163,o),
(341,175,o),
(346,201,cs),
(397,491,o),
(205,461,o),
(120,386,c)
);
},
{
closed = 1;
nodes = (
(381,160,l),
(327,-39,o),
(30,-81,o),
(30,150,cs),
(30,382,o),
(326,353,o),
(380,210,c)
);
},
{
closed = 1;
nodes = (
(341,184,l),
(295,280,o),
(191,250,o),
(191,160,cs),
(191,60,o),
(312,91,o),
(340,158,c)
);
}
);
};
layerId = "CDFC0212-EC7A-4000-86F8-EA19B9E6D7F9";
shapes = (
{
closed = 1;
nodes = (
(95,418,l),
(190,548,o),
(515,553,o),
(515,319,cs),
(515,223,o),
(469,83,o),
(535,83,c),
(564,98,l),
(578,63,o),
(536,-6,o),
(450,-6,cs),
(336,-6,o),
(337,117,o),
(337,132,c),
(342,163,o),
(341,175,o),
(346,201,cs),
(397,491,o),
(205,461,o),
(120,386,c)
);
},
{
closed = 1;
nodes = (
(381,160,l),
(327,-39,o),
(30,-81,o),
(30,150,cs),
(30,382,o),
(326,353,o),
(380,210,c)
);
},
{
closed = 1;
nodes = (
(341,184,l),
(295,280,o),
(191,250,o),
(191,160,cs),
(191,60,o),
(312,91,o),
(340,158,c)
);
}
);
width = 597;
}
);
},
{
glyphname = a.alt3;
lastChange = "2023-04-18 18:30:17 +0000";
layers = (
{
background = {
shapes = (
{
closed = 1;
nodes = (
(391,160,l),
(337,-30,o),
(40,-72,o),
(40,150,cs),
(40,382,o),
(336,353,o),
(390,210,c)
);
},
{
closed = 1;
nodes = (
(367.716,170.032,l),
(321.716,266.032,o),
(201,240,o),
(201,160,cs),
(201,72,o),
(336.716,113.032,o),
(364.716,168.032,c)
);
},
{
closed = 1;
nodes = (
(368.113,202.575,l),
(-137.18,496.27,o),
(639.671,676.057,o),
(545,245,cs),
(528.249,168.728,o),
(518,103,o),
(555,103,c),
(570,103,o),
(581,111,o),
(588,126,c),
(603,98,l),
(582.641,35.725,o),
(517.596,0.077,o),
(459.504,0.167,cs),
(405.216,0.252,o),
(357,31.295,o),
(357,108,cs),
(357,150,o),
(365.216,200.035,o),
(379,243,cs),
(447.978,458.005,o),
(102.085,458.005,o),
(398.123,233.508,c)
);
}
);
};
layerId = "CDFC0212-EC7A-4000-86F8-EA19B9E6D7F9";
shapes = (
{
closed = 1;
nodes = (
(391,160,l),
(337,-30,o),
(40,-72,o),
(40,150,cs),
(40,382,o),
(336,353,o),
(390,210,c)
);
},
{
closed = 1;
nodes = (
(367.716,170.032,l),
(321.716,266.032,o),
(201,240,o),
(201,160,cs),
(201,72,o),
(336.716,113.032,o),
(364.716,168.032,c)
);
},
{
closed = 1;
nodes = (
(368.113,202.575,l),
(-137.18,496.27,o),
(639.671,676.057,o),
(545,245,cs),
(528.249,168.728,o),
(518,103,o),
(555,103,c),
(570,103,o),
(581,111,o),
(588,126,c),
(603,98,l),
(582.641,35.725,o),
(517.596,0.077,o),
(459.504,0.167,cs),
(405.216,0.252,o),
(357,31.295,o),
(357,108,cs),
(357,150,o),
(365.216,200.035,o),
(379,243,cs),
(447.978,458.005,o),
(102.085,458.005,o),
(398.123,233.508,c)
);
}
);
width = 623;
}
);
},
{
glyphname = a.alt4;
lastChange = "2023-04-18 18:30:17 +0000";
layers = (
{
background = {
shapes = (
{
closed = 1;
nodes = (
(380.053,128.493,l),
(358.723,232.781,o),
(193.045,226.234,o),
(192.873,356.747,cs),
(192.753,448.188,o),
(288.75,504.279,o),
(384.477,504.264,cs),
(495.587,504.246,o),
(606.333,428.643,o),
(566,245,cs),
(549.249,168.728,o),
(539,103,o),
(576,103,c),
(591,103,o),
(602,111,o),
(609,126,c),
(624,98,l),
(603.641,35.725,o),
(537.596,0.077,o),
(479.504,0.167,cs),
(425.216,0.252,o),
(369,31.295,o),
(369,108,cs),
(369,156.785,o),
(403.786,247.363,o),
(403.816,314.898,cs),
(403.844,379.423,o),
(367.591,408.143,o),
(334.771,408.285,cs),
(307.697,408.402,o),
(282.96,389.072,o),
(282.854,354.352,cs),
(282.55,255.009,o),
(413.883,234.222,o),
(411,191.18,c)
);
},
{
closed = 1;
nodes = (
(410.5,210,l),
(410.5,160,l),
(357,-33,o),
(50,-75,o),
(50,150,cs),
(50,318.129,o),
(283.239,314.898,o),
(322.484,252.668,c),
(315.513,232.595,l),
(274.791,249.311,o),
(211,238.337,o),
(211,160,cs),
(211,72,o),
(356.716,113.032,o),
(384.716,168.032,c),
(387.716,170.032,l)
);
}
);
};
layerId = "CDFC0212-EC7A-4000-86F8-EA19B9E6D7F9";
shapes = (
{
closed = 1;
nodes = (
(380.053,128.493,l),
(358.723,232.781,o),
(193.045,226.234,o),
(192.873,356.747,cs),
(192.753,448.188,o),
(288.75,504.279,o),
(384.477,504.264,cs),
(495.587,504.246,o),
(606.333,428.643,o),
(566,245,cs),
(549.249,168.728,o),
(539,103,o),
(576,103,c),
(591,103,o),
(602,111,o),
(609,126,c),
(624,98,l),
(603.641,35.725,o),
(537.596,0.077,o),
(479.504,0.167,cs),
(425.216,0.252,o),
(369,31.295,o),
(369,108,cs),
(369,156.785,o),
(403.786,247.363,o),
(403.816,314.898,cs),
(403.844,379.423,o),
(367.591,408.143,o),
(334.771,408.285,cs),
(307.697,408.402,o),
(282.96,389.072,o),
(282.854,354.352,cs),
(282.55,255.009,o),
(413.883,234.222,o),
(411,191.18,c)
);
},
{
closed = 1;
nodes = (
(410.5,210,l),
(410.5,160,l),
(357,-33,o),
(50,-75,o),
(50,150,cs),
(50,318.129,o),
(283.239,314.898,o),
(322.484,252.668,c),
(315.513,232.595,l),
(274.791,249.311,o),
(211,238.337,o),
(211,160,cs),
(211,72,o),
(356.716,113.032,o),
(384.716,168.032,c),
(387.716,170.032,l)
);
}
);
width = 654;
}
);
},
{
glyphname = a.alt5;
lastChange = "2023-04-18 18:30:17 +0000";
layers = (
{
background = {
shapes = (
{
closed = 1;
nodes = (
(364.93,163.152,l),
(-174.592,433.695,o),
(637.786,728.188,o),
(537,245,cs),
(521.055,168.556,o),
(510,103,o),
(547,103,c),
(562,103,o),
(573,111,o),
(580,126,c),
(595,98,l),
(574.641,35.725,o),
(509.596,0.077,o),
(451.504,0.167,cs),
(397.216,0.252,o),
(349,31.295,o),
(349,108,cs),
(349,150,o),
(358.789,199.561,o),
(371,243,cs),
(446.093,510.136,o),
(62,401.274,o),
(399.321,213.776,c)
);
},
{
closed = 1;
nodes = (
(393.543,213.776,l),
(349,58.931,o),
(275.135,0.794,o),
(188.302,0.812,cs),
(109.632,0.829,o),
(40.488,46.785,o),
(40.488,139.13,cs),
(40.488,316.389,o),
(265.014,324.726,o),
(306.465,259,c),
(306.465,245,l),
(298.283,248.359,o),
(289.212,250.099,o),
(279.94,250.1,cs),
(237.615,250.104,o),
(209.002,212.712,o),
(209.098,172.835,cs),
(209.348,68.931,o),
(334.364,100.185,o),
(359.11,233.508,c)
);
}
);
};
layerId = "CDFC0212-EC7A-4000-86F8-EA19B9E6D7F9";
shapes = (
{
closed = 1;
nodes = (
(364.93,163.152,l),
(-174.592,433.695,o),
(637.786,728.188,o),
(537,245,cs),
(521.055,168.556,o),
(510,103,o),
(547,103,c),
(562,103,o),
(573,111,o),
(580,126,c),
(595,98,l),
(574.641,35.725,o),
(509.596,0.077,o),
(451.504,0.167,cs),
(397.216,0.252,o),
(349,31.295,o),
(349,108,cs),
(349,150,o),
(358.789,199.561,o),
(371,243,cs),
(446.093,510.136,o),
(62,401.274,o),
(399.321,213.776,c)
);
},
{
closed = 1;
nodes = (
(393.543,213.776,l),
(349,58.931,o),
(275.135,0.794,o),
(188.302,0.812,cs),
(109.632,0.829,o),
(40.488,46.785,o),
(40.488,139.13,cs),
(40.488,316.389,o),
(265.014,324.726,o),
(306.465,259,c),
(306.465,245,l),
(298.283,248.359,o),
(289.212,250.099,o),
(279.94,250.1,cs),
(237.615,250.104,o),
(209.002,212.712,o),
(209.098,172.835,cs),
(209.348,68.931,o),
(334.364,100.185,o),
(359.11,233.508,c)
);
}
);
width = 615;
}
);
},
{
glyphname = H.alt;
lastChange = "2023-04-18 18:30:17 +0000";
layers = (
{
background = {
shapes = (
{
closed = 1;
nodes = (
(147,365,l),
(277,341,o),
(378,342,o),
(488,385,c),
(488,303,l),
(378,260,o),
(277,259,o),
(147,283,c)
);
},
{
closed = 1;
nodes = (
(15,456,l),
(29.813,530.933,o),
(116.261,595.342,o),
(188.571,595.356,cs),
(269.73,595.371,o),
(290.357,528.769,o),
(290.357,457.054,cs),
(290.357,334.844,o),
(217.483,195.519,o),
(270,80,c),
(270,39.727,o),
(214.565,1.355,o),
(162.071,1.355,cs),
(114.894,1.355,o),
(70.093,32.933,o),
(70.041,122.472,cs),
(69.981,224.486,o),
(123.903,375.738,o),
(123.903,445.314,cs),
(123.903,505.135,o),
(63.551,494,o),
(39,442,c)
);
},
{
closed = 1;
nodes = (
(435.435,354.581,o),
(467.62,478.966,o),
(431,540,c),
(431,546,l),
(504,628,o),
(625,607,o),
(625,495,cs),
(625,373.833,o),
(523.147,98.503,o),
(602.858,98.503,cs),
(614.159,98.503,o),
(627.404,108.394,o),
(640,126,c),
(655,98,l),
(636.545,41.55,o),
(570.76,0.26,o),
(511.236,0.257,cs),
(401.028,0.253,o),
(396.528,124.382,o),
(410.119,204.794,cs)
);
}
);
};
guides = (
{
pos = (0,595);
}
);
layerId = "CDFC0212-EC7A-4000-86F8-EA19B9E6D7F9";
shapes = (
{
closed = 1;
nodes = (
(147,365,l),
(277,341,o),
(378,342,o),
(488,385,c),
(488,303,l),
(378,260,o),
(277,259,o),
(147,283,c)
);
},
{
closed = 1;
nodes = (
(15,456,l),
(29.813,530.933,o),
(116.261,595.342,o),
(188.571,595.356,cs),
(269.73,595.371,o),
(290.357,528.769,o),
(290.357,457.054,cs),
(290.357,334.844,o),
(217.483,195.519,o),
(270,80,c),
(270,39.727,o),
(214.565,1.355,o),
(162.071,1.355,cs),
(114.894,1.355,o),
(70.093,32.933,o),
(70.041,122.472,cs),
(69.981,224.486,o),
(123.903,375.738,o),
(123.903,445.314,cs),
(123.903,505.135,o),
(63.551,494,o),
(39,442,c)
);
},
{
closed = 1;
nodes = (
(435.435,354.581,o),
(467.62,478.966,o),
(431,540,c),
(431,546,l),
(504,628,o),
(625,607,o),
(625,495,cs),
(625,373.833,o),
(523.147,98.503,o),
(602.858,98.503,cs),
(614.159,98.503,o),
(627.404,108.394,o),
(640,126,c),
(655,98,l),
(636.545,41.55,o),
(570.76,0.26,o),
(511.236,0.257,cs),
(401.028,0.253,o),
(396.528,124.382,o),
(410.119,204.794,cs)
);
}
);
width = 600;
}
);
},
{
glyphname = a.alt6;
lastChange = "2023-05-03 16:46:37 +0000";
layers = (
{
background = {
shapes = (
{
closed = 1;
nodes = (
(357.825,354.581,o),
(390.01,425.966,o),
(353.39,487,c),
(353.39,493,l),
(426.39,575,o),
(547.39,554,o),
(547.39,442,cs),
(547.39,320.833,o),
(445.537,98.503,o),
(525.248,98.503,cs),
(536.549,98.503,o),
(549.794,108.394,o),
(562.39,126,c),
(577.39,98,l),
(558.935,41.55,o),
(493.15,0.26,o),
(433.626,0.257,cs),
(323.418,0.253,o),
(318.918,124.382,o),
(332.509,204.794,cs)
);
},
{
closed = 1;
nodes = (
(357.93,335.02,l),
(290.381,496.914,o),
(192.362,348.13,o),
(192.36,233.845,cs),
(192.357,52.798,o),
(306.22,104.584,o),
(357.513,331.861,c),
(371.39,226.794,l),
(338.15,76.25,o),
(249.831,0.105,o),
(171.759,0.194,cs),
(97.77,0.278,o),
(32.985,68.829,o),
(33.004,207.407,cs),
(33.028,381.83,o),
(146.836,508.005,o),
(247.735,507.893,cs),
(309.438,507.825,o),
(366.315,461.781,o),
(389.39,347,c)
);
}
);
};
guides = (
{
pos = (278.937,500);
}
);
layerId = "CDFC0212-EC7A-4000-86F8-EA19B9E6D7F9";
shapes = (
{
closed = 1;
nodes = (
(336.365,309.251,o),
(361.682,360.411,o),
(361.682,404.677,cs),
(361.682,423.17,o),
(357.263,439.937,o),
(346.472,457.922,c),
(346.472,463.922,l),
(367.409,487.44,o),
(397.683,499.624,o),
(427.237,499.624,cs),
(475.828,499.624,o),
(522.472,466.689,o),
(522.472,397.047,cs),
(522.472,307.078,o),
(459.104,187.465,o),
(459.104,130.288,cs),
(459.104,110.461,o),
(466.724,98.503,o),
(487.248,98.503,cs),
(498.549,98.503,o),
(511.794,108.394,o),
(524.39,126,c),
(539.39,98,l),
(520.486,40.176,o),
(458.108,0.143,o),
(402.098,0.143,cs),
(349.448,0.143,o),
(302.424,35.516,o),
(302.424,124.737,cs),
(302.424,147.738,o),
(305.549,174.318,o),
(312.509,204.794,cs)
);
},
{
closed = 1;
nodes = (
(382.166,326.323,l),
(331.232,489.544,o),
(185.225,432.425,o),
(185.225,222.801,cs),
(185.225,170.06,o),
(199.835,127.76,o),
(229.802,127.76,cs),
(263.195,127.76,o),
(313.529,205.561,o),
(350.34,342.06,c),
(353.711,241.543,l),
(320.471,91,o),
(239.831,0.105,o),
(161.759,0.194,cs),
(64.316,0.305,o),
(20.137,85.107,o),
(20.137,185.362,cs),
(20.137,515.574,o),
(363.567,598.874,o),
(426.406,395.109,c)
);
}
);
width = 577.39;
}
);
metricLeft = o;
metricRight = n;
},
{
glyphname = H.alt1;
lastChange = "2023-04-18 18:30:17 +0000";
layers = (
{
background = {
shapes = (
{
closed = 1;
nodes = (
(147,365,l),
(277,341,o),
(378,342,o),
(488,385,c),
(488,303,l),
(378,260,o),
(277,259,o),
(147,283,c)
);
},
{
closed = 1;
nodes = (
(15,456,l),
(29.813,530.933,o),
(116.261,595.342,o),
(188.571,595.356,cs),
(269.73,595.371,o),
(290.357,528.769,o),
(290.357,457.054,cs),
(290.357,334.844,o),
(217.483,195.519,o),
(270,80,c),
(270,39.727,o),
(214.565,1.355,o),
(162.071,1.355,cs),
(114.894,1.355,o),
(70.093,32.933,o),
(70.041,122.472,cs),
(69.981,224.486,o),
(123.903,375.738,o),
(123.903,445.314,cs),
(123.903,505.135,o),
(63.551,494,o),
(39,442,c)
);
},
{
closed = 1;
nodes = (
(428,602,o),
(611,627,o),
(611,566,cs),
(611,484,o),
(547,201,o),
(547,143,cs),
(547,118,o),
(553,103,o),
(571,103,c),
(586,103,o),
(597,111,o),
(604,126,c),
(619,98,l),
(602,46,o),
(556,0,o),
(485,0,cs),
(403,0,o),
(381,53,o),
(381,120,cs),
(381,247.036,o),
(428,324.348,o),
(428,528,cs)
);
}
);
};
layerId = "CDFC0212-EC7A-4000-86F8-EA19B9E6D7F9";
shapes = (
{
closed = 1;
nodes = (
(147,365,l),
(277,341,o),
(378,342,o),
(488,385,c),
(488,303,l),
(378,260,o),
(277,259,o),
(147,283,c)
);
},
{
closed = 1;
nodes = (
(15,456,l),
(29.813,530.933,o),
(116.261,595.342,o),
(188.571,595.356,cs),
(269.73,595.371,o),
(290.357,528.769,o),
(290.357,457.054,cs),
(290.357,334.844,o),
(217.483,195.519,o),
(270,80,c),
(270,39.727,o),
(214.565,1.355,o),
(162.071,1.355,cs),
(114.894,1.355,o),
(70.093,32.933,o),
(70.041,122.472,cs),
(69.981,224.486,o),
(123.903,375.738,o),
(123.903,445.314,cs),
(123.903,505.135,o),
(63.551,494,o),
(39,442,c)
);
},
{
closed = 1;
nodes = (
(428,602,o),
(611,627,o),
(611,566,cs),
(611,484,o),
(547,201,o),
(547,143,cs),
(547,118,o),
(553,103,o),
(571,103,c),
(586,103,o),
(597,111,o),
(604,126,c),
(619,98,l),
(602,46,o),
(556,0,o),
(485,0,cs),
(403,0,o),
(381,53,o),
(381,120,cs),
(381,247.036,o),
(428,324.348,o),
(428,528,cs)
);
}
);
width = 600;
}
);
},
{
glyphname = A.alt;
lastChange = "2023-04-18 18:30:17 +0000";
layers = (
{
background = {
shapes = (
{
closed = 1;
nodes = (
(396.941,547.75,l),
(477.456,638.191,o),
(590.912,615.029,o),
(590.912,491.5,cs),
(590.912,357.86,o),
(468.574,108.642,o),
(556.49,108.642,cs),
(568.954,108.642,o),
(583.563,119.552,o),
(597.456,138.971,c),
(614,108.088,l),
(593.645,45.827,o),
(541.089,0.286,o),
(475.436,0.284,cs),
(228.816,0.273,o),
(464.778,428.071,o),
(396.941,541.132,c)
);
},
{
closed = 1;
nodes = (
(408.852,351.551,l),
(274.776,-418.244,o),
(-416.267,271.445,o),
(510.403,464.374,c),
(539.809,420.691,l),
(-52.529,277.252,o),
(259.973,-98.898,o),
(398.57,381,c)
);
}
);
};
layerId = "CDFC0212-EC7A-4000-86F8-EA19B9E6D7F9";
shapes = (
{
closed = 1;
nodes = (
(396.941,547.75,l),
(477.456,638.191,o),
(590.912,615.029,o),
(590.912,491.5,cs),
(590.912,357.86,o),
(468.574,108.642,o),
(556.49,108.642,cs),
(568.954,108.642,o),
(583.563,119.552,o),
(597.456,138.971,c),
(614,108.088,l),
(593.645,45.827,o),
(541.089,0.286,o),
(475.436,0.284,cs),
(228.816,0.273,o),
(464.778,428.071,o),
(396.941,541.132,c)
);
},
{
closed = 1;
nodes = (
(408.852,351.551,l),
(274.776,-418.244,o),
(-416.267,271.445,o),
(510.403,464.374,c),
(539.809,420.691,l),
(-52.529,277.252,o),
(259.973,-98.898,o),
(398.57,381,c)
);
}
);
width = 629;
}
);
},
{
glyphname = A.001;
layers = (
{
background = {
shapes = (
{
closed = 1;
nodes = (
(392.832,391.082,o),
(428.331,473.816,o),
(387.941,541.132,c),
(387.941,547.75,l),
(468.456,638.191,o),
(581.912,615.029,o),
(581.912,491.5,cs),
(581.912,357.86,o),
(469.574,108.642,o),
(557.49,108.642,cs),
(569.954,108.642,o),
(584.563,119.552,o),
(598.456,138.971,c),
(615,108.088,l),
(594.645,45.827,o),
(542.089,0.286,o),
(476.436,0.284,cs),
(354.884,0.279,o),
(349.92,137.185,o),
(364.91,225.876,cs)
);
},
{
closed = 1;
nodes = (
(395.882,385.112,l),
(372.001,442.347,o),
(344.366,474.827,o),
(317.838,474.802,cs),
(261.602,474.747,o),
(210.336,373.563,o),
(210.335,287.918,cs),
(210.333,190.699,o),
(234.984,142.543,o),
(267.371,142.523,cs),
(308.169,142.498,o),
(361.243,218.856,o),
(392.781,369.746,c),
(407.794,280.141,l),
(368.2,100.82,o),
(267.599,0.488,o),
(180.055,0.475,cs),
(-54.618,0.44,o),
(-2.675,594.869,o),
(262.462,594.779,cs),
(334.042,594.754,o),
(401.004,527.247,o),
(427.647,394.721,c)
);
}
);
};
layerId = "CDFC0212-EC7A-4000-86F8-EA19B9E6D7F9";
shapes = (
{
closed = 1;
nodes = (
(392.832,391.082,o),
(428.331,473.816,o),
(387.941,541.132,c),
(387.941,547.75,l),
(468.456,638.191,o),
(581.912,615.029,o),
(581.912,491.5,cs),
(581.912,357.86,o),
(469.574,108.642,o),
(557.49,108.642,cs),
(569.954,108.642,o),
(584.563,119.552,o),
(598.456,138.971,c),
(615,108.088,l),
(594.645,45.827,o),
(542.089,0.286,o),
(476.436,0.284,cs),
(354.884,0.279,o),
(349.92,137.185,o),
(364.91,225.876,cs)
);
},
{
closed = 1;
nodes = (
(395.882,385.112,l),
(372.001,442.347,o),
(344.366,474.827,o),
(317.838,474.802,cs),
(261.602,474.747,o),
(210.336,373.563,o),
(210.335,287.918,cs),
(210.333,190.699,o),
(234.984,142.543,o),
(267.371,142.523,cs),
(308.169,142.498,o),
(361.243,218.856,o),
(392.781,369.746,c),
(407.794,280.141,l),
(368.2,100.82,o),
(267.599,0.488,o),
(180.055,0.475,cs),
(-54.618,0.44,o),
(-2.675,594.869,o),
(262.462,594.779,cs),
(334.042,594.754,o),
(401.004,527.247,o),
(427.647,394.721,c)
);
}
);
width = 617;
}
);
},
{
glyphname = A.002;
lastChange = "2023-05-29 19:32:18 +0000";
layers = (
{
background = {
shapes = (
{
closed = 1;
nodes = (
(438.642,391.082,o),
(474.141,473.816,o),
(433.751,541.132,c),
(433.751,547.75,l),
(514.266,638.191,o),
(627.722,615.029,o),
(627.722,491.5,cs),
(627.722,357.86,o),
(515.384,108.642,o),
(603.3,108.642,cs),
(615.764,108.642,o),
(630.373,119.552,o),
(644.266,138.971,c),
(660.81,108.088,l),
(640.455,45.827,o),
(587.899,0.286,o),
(522.246,0.284,cs),
(400.694,0.279,o),
(395.73,137.185,o),
(410.72,225.876,cs)
);
},
{
closed = 1;
nodes = (
(441.692,385.112,l),
(417.811,442.347,o),
(390.176,474.827,o),
(363.648,474.802,cs),
(307.412,474.747,o),
(256.146,373.563,o),
(256.145,287.918,cs),
(256.143,190.699,o),
(280.794,142.543,o),
(313.181,142.523,cs),
(353.979,142.498,o),
(407.053,218.856,o),
(438.591,369.746,c),
(453.604,280.141,l),
(414.01,100.82,o),
(313.409,0.488,o),
(225.865,0.475,cs),
(-8.808,0.44,o),
(43.135,594.869,o),
(308.272,594.779,cs),
(379.852,594.754,o),
(446.814,527.247,o),
(473.457,394.721,c)
);
}
);
};
layerId = "CDFC0212-EC7A-4000-86F8-EA19B9E6D7F9";
name = Regular;
shapes = (
{
closed = 1;
nodes = (
(650.092,67.572,o),
(564.166,-0.626,o),
(488.486,-0.626,cs),
(428.932,-0.626,o),
(375.722,41.605,o),
(375.722,140.204,cs),
(375.722,272.88,o),
(445.791,479.013,o),
(454.83,669.931,c),
(454.83,728.083,o),
(642.214,764.288,o),
(674.888,657.292,c),
(677.449,648.677,l),
(636.381,536.872,o),
(579.49,346.626,o),
(579.49,210.493,cs),
(579.49,133.356,o),
(615.127,131.388,o),
(640.832,180.943,c),
(650.092,174.961,l)
);
},
{
closed = 1;
nodes = (
(432.897,369.692,l),
(422.167,526.085,o),
(385.771,587.061,o),
(346.194,587.061,cs),
(229.417,587.061,o),
(179.729,152.711,o),
(263.714,152.711,cs),
(317.146,152.711,o),
(407.788,330.054,o),
(440.098,541.353,c),
(453.008,495.121,l),
(418.425,143.976,o),
(294.296,-0.338,o),
(188.034,-0.338,cs),
(-82.551,-0.338,o),
(1.491,725.213,o),
(302.642,725.213,cs),
(399.103,725.213,o),
(477.874,626.404,o),
(453.818,397.656,c)
);
}
);
width = 675.21;
},
{
associatedMasterId = "CDFC0212-EC7A-4000-86F8-EA19B9E6D7F9";
background = {
shapes = (
{
closed = 1;
nodes = (
(428.642,391.082,o),
(464.141,473.816,o),
(423.751,541.132,c),
(423.751,547.75,l),
(504.266,638.191,o),
(617.722,615.029,o),
(617.722,491.5,cs),
(617.722,357.86,o),
(505.384,108.642,o),
(593.3,108.642,cs),
(605.764,108.642,o),
(620.373,119.552,o),
(634.266,138.971,c),
(650.81,108.088,l),
(630.455,45.827,o),
(577.899,0.286,o),
(512.246,0.284,cs),
(390.694,0.279,o),
(385.73,137.185,o),
(400.72,225.876,cs)
);
},
{
closed = 1;
nodes = (
(431.692,385.112,l),
(407.811,442.347,o),
(380.176,474.827,o),
(353.648,474.802,cs),
(297.412,474.747,o),
(246.146,373.563,o),
(246.145,287.918,cs),
(246.143,190.699,o),
(270.794,142.543,o),
(303.181,142.523,cs),
(343.979,142.498,o),
(397.053,218.856,o),
(428.591,369.746,c),
(443.604,280.141,l),
(404.01,100.82,o),
(303.409,0.488,o),
(215.865,0.475,cs),
(-18.808,0.44,o),
(33.135,594.869,o),
(298.272,594.779,cs),
(369.852,594.754,o),
(436.814,527.247,o),
(463.457,394.721,c)
);
}
);
};
layerId = "2632A926-11CE-4F40-B0A5-12F56AF0419B";
name = "May 29, 23, 15:02";
shapes = (
{
closed = 1;
nodes = (
(634.76,-4.741,o),
(355.738,-106.111,o),
(355.738,180.102,cs),
(355.738,313.013,o),
(430.721,489.189,o),
(430.721,665.108,c),
(440.721,723.363,o),
(608.335,759.632,o),
(639.306,652.447,c),
(641.733,643.817,l),
(602.807,537.824,o),
(558.359,347.241,o),
(558.359,210.867,cs),
(558.359,133.594,o),
(601.618,131.622,o),
(625.982,196.264,c),
(634.76,190.272,l)
);
},
{
closed = 1;
nodes = (
(410.891,343.525,l),
(394.228,546.18,o),
(354.043,575.811,o),
(325.346,575.811,cs),
(208.221,575.811,o),
(169.272,178.366,o),
(264.597,178.366,cs),
(309.563,178.366,o),
(371.893,281.889,o),
(408.123,472.189,c),
(420.36,425.875,l),
(386.987,127.843,o),
(270.185,-0.446,o),
(175.281,-0.446,cs),
(-77.802,-0.446,o),
(-6.149,719.439,o),
(290.934,719.439,cs),
(369.293,719.439,o),
(472.866,600,o),
(430.721,371.538,c)
);
}
);
width = 665.21;
},
{
associatedMasterId = "CDFC0212-EC7A-4000-86F8-EA19B9E6D7F9";
background = {
shapes = (
{
closed = 1;
nodes = (
(438.642,391.082,o),
(474.141,473.816,o),
(433.751,541.132,c),
(433.751,547.75,l),
(514.266,638.191,o),
(627.722,615.029,o),
(627.722,491.5,cs),
(627.722,357.86,o),
(515.384,108.642,o),
(603.3,108.642,cs),
(615.764,108.642,o),
(630.373,119.552,o),
(644.266,138.971,c),
(660.81,108.088,l),
(640.455,45.827,o),
(587.899,0.286,o),
(522.246,0.284,cs),
(400.694,0.279,o),
(395.73,137.185,o),
(410.72,225.876,cs)
);
},
{
closed = 1;
nodes = (
(441.692,385.112,l),
(417.811,442.347,o),
(390.176,474.827,o),
(363.648,474.802,cs),
(307.412,474.747,o),
(256.146,373.563,o),
(256.145,287.918,cs),
(256.143,190.699,o),
(280.794,142.543,o),
(313.181,142.523,cs),
(353.979,142.498,o),
(407.053,218.856,o),
(438.591,369.746,c),
(453.604,280.141,l),
(414.01,100.82,o),
(313.409,0.488,o),
(225.865,0.475,cs),
(-8.808,0.44,o),
(43.135,594.869,o),
(308.272,594.779,cs),
(379.852,594.754,o),
(446.814,527.247,o),
(473.457,394.721,c)
);
}
);
};
layerId = "BA19D614-75C3-4B37-AEAE-B67109163DC6";
name = "May 29, 23, 15:32";
shapes = (
{
closed = 1;
nodes = (
(664.634,76.02,o),
(566.695,-0.611,o),
(484.482,-0.611,cs),
(425.02,-0.611,o),
(373.786,39.477,o),
(373.786,140.204,cs),
(373.786,272.88,o),
(443.016,479.013,o),
(451.947,663.931,c),
(451.947,722.083,o),
(637.09,758.288,o),
(669.373,651.292,c),
(671.903,642.677,l),
(631.327,536.872,o),
(584.996,346.626,o),
(584.996,210.493,cs),
(584.996,133.356,o),
(630.088,131.388,o),
(655.485,180.943,c),
(664.634,174.961,l)
);
},
{
closed = 1;
nodes = (
(431.277,469.692,l),
(403.483,545.213,o),
(372.02,574.792,o),
(342.105,574.792,cs),
(218.644,574.792,o),
(181.12,178.05,o),
(278.782,178.05,cs),
(325.654,178.05,o),
(390.626,281.389,o),
(428.392,471.353,c),
(441.147,425.121,l),
(406.359,127.616,o),
(305.03,-0.447,o),
(206.104,-0.447,cs),
(-57.996,-0.447,o),
(-4.489,718.166,o),
(305.811,718.166,cs),
(387.492,718.166,o),
(447.055,648.943,o),
(451.947,497.656,c)
);
}
);
width = 675.21;
}
);
},
